G04 #@! TF.GenerationSoftware,KiCad,Pcbnew,8.0.6*
G04 #@! TF.CreationDate,2024-12-20T23:31:47+08:00*
G04 #@! TF.ProjectId,keyboard,6b657962-6f61-4726-942e-6b696361645f,rev?*
G04 #@! TF.SameCoordinates,Original*
G04 #@! TF.FileFunction,Soldermask,Bot*
G04 #@! TF.FilePolarity,Negative*
%FSLAX46Y46*%
G04 Gerber Fmt 4.6, Leading zero omitted, Abs format (unit mm)*
G04 Created by KiCad (PCBNEW 8.0.6) date 2024-12-20 23:31:47*
%MOMM*%
%LPD*%
G01*
G04 APERTURE LIST*
%ADD10C,1.750000*%
%ADD11C,3.000000*%
%ADD12C,3.987800*%
%ADD13R,2.550000X2.500000*%
%ADD14R,1.600000X1.600000*%
%ADD15O,1.600000X1.600000*%
%ADD16C,3.048000*%
%ADD17R,2.500000X2.550000*%
%ADD18C,3.500000*%
%ADD19C,2.600000*%
G04 APERTURE END LIST*
D10*
X273995000Y-201875000D03*
D11*
X275265000Y-199335000D03*
D12*
X279075000Y-201875000D03*
D11*
X281615000Y-196795000D03*
D10*
X284155000Y-201875000D03*
D13*
X271990000Y-199335000D03*
X284917000Y-196795000D03*
D14*
X303492000Y-129698000D03*
D15*
X303492000Y-137318000D03*
D14*
X299742000Y-129698000D03*
D15*
X299742000Y-137318000D03*
D12*
X308920000Y-242388000D03*
D16*
X324160000Y-242388000D03*
D10*
X317175000Y-235530000D03*
D11*
X314635000Y-234260000D03*
D12*
X317175000Y-230450000D03*
D11*
X312095000Y-227910000D03*
D10*
X317175000Y-225370000D03*
D12*
X308920000Y-218512000D03*
D16*
X324160000Y-218512000D03*
D17*
X314635000Y-237535000D03*
X312095000Y-224608000D03*
D18*
X248750000Y-245000000D03*
D19*
X248750000Y-245000000D03*
D14*
X318492000Y-129698000D03*
D15*
X318492000Y-137318000D03*
D14*
X292242000Y-143508000D03*
D15*
X292242000Y-151128000D03*
D14*
X299742000Y-143508000D03*
D15*
X299742000Y-151128000D03*
D14*
X307242000Y-143508000D03*
D15*
X307242000Y-151128000D03*
D10*
X254945000Y-182825000D03*
D11*
X256215000Y-180285000D03*
D12*
X260025000Y-182825000D03*
D11*
X262565000Y-177745000D03*
D10*
X265105000Y-182825000D03*
D13*
X252940000Y-180285000D03*
X265867000Y-177745000D03*
D10*
X254945000Y-201875000D03*
D11*
X256215000Y-199335000D03*
D12*
X260025000Y-201875000D03*
D11*
X262565000Y-196795000D03*
D10*
X265105000Y-201875000D03*
D13*
X252940000Y-199335000D03*
X265867000Y-196795000D03*
D10*
X254945000Y-163775000D03*
D11*
X256215000Y-161235000D03*
D12*
X260025000Y-163775000D03*
D11*
X262565000Y-158695000D03*
D10*
X265105000Y-163775000D03*
D13*
X252940000Y-161235000D03*
X265867000Y-158695000D03*
D10*
X293045000Y-239975000D03*
D11*
X294315000Y-237435000D03*
D12*
X298125000Y-239975000D03*
D11*
X300665000Y-234895000D03*
D10*
X303205000Y-239975000D03*
D13*
X291040000Y-237435000D03*
X303967000Y-234895000D03*
D14*
X310992000Y-129698000D03*
D15*
X310992000Y-137318000D03*
D14*
X295992000Y-143508000D03*
D15*
X295992000Y-151128000D03*
D19*
X328500000Y-154000000D03*
D18*
X328500000Y-154000000D03*
D10*
X273995000Y-220925000D03*
D11*
X275265000Y-218385000D03*
D12*
X279075000Y-220925000D03*
D11*
X281615000Y-215845000D03*
D10*
X284155000Y-220925000D03*
D13*
X271990000Y-218385000D03*
X284917000Y-215845000D03*
D14*
X314742000Y-143508000D03*
D15*
X314742000Y-151128000D03*
D14*
X292242000Y-129698000D03*
D15*
X292242000Y-137318000D03*
D12*
X308920000Y-204258000D03*
D16*
X324160000Y-204258000D03*
D10*
X317175000Y-197400000D03*
D11*
X314635000Y-196130000D03*
D12*
X317175000Y-192320000D03*
D11*
X312095000Y-189780000D03*
D10*
X317175000Y-187240000D03*
D12*
X308920000Y-180382000D03*
D16*
X324160000Y-180382000D03*
D17*
X314635000Y-199405000D03*
X312095000Y-186478000D03*
D10*
X254945000Y-220925000D03*
D11*
X256215000Y-218385000D03*
D12*
X260025000Y-220925000D03*
D11*
X262565000Y-215845000D03*
D10*
X265105000Y-220925000D03*
D13*
X252940000Y-218385000D03*
X265867000Y-215845000D03*
D10*
X293045000Y-220925000D03*
D11*
X294315000Y-218385000D03*
D12*
X298125000Y-220925000D03*
D11*
X300665000Y-215845000D03*
D10*
X303205000Y-220925000D03*
D13*
X291040000Y-218385000D03*
X303967000Y-215845000D03*
D10*
X293045000Y-182825000D03*
D11*
X294315000Y-180285000D03*
D12*
X298125000Y-182825000D03*
D11*
X300665000Y-177745000D03*
D10*
X303205000Y-182825000D03*
D13*
X291040000Y-180285000D03*
X303967000Y-177745000D03*
D14*
X314742000Y-129698000D03*
D15*
X314742000Y-137318000D03*
D14*
X318492000Y-143568000D03*
D15*
X318492000Y-151188000D03*
D19*
X248750000Y-154000000D03*
D18*
X248750000Y-154000000D03*
D19*
X328500000Y-245000000D03*
D18*
X328500000Y-245000000D03*
D10*
X293045000Y-201875000D03*
D11*
X294315000Y-199335000D03*
D12*
X298125000Y-201875000D03*
D11*
X300665000Y-196795000D03*
D10*
X303205000Y-201875000D03*
D13*
X291040000Y-199335000D03*
X303967000Y-196795000D03*
D10*
X273995000Y-182825000D03*
D11*
X275265000Y-180285000D03*
D12*
X279075000Y-182825000D03*
D11*
X281615000Y-177745000D03*
D10*
X284155000Y-182825000D03*
D13*
X271990000Y-180285000D03*
X284917000Y-177745000D03*
D10*
X312095000Y-163775000D03*
D11*
X313365000Y-161235000D03*
D12*
X317175000Y-163775000D03*
D11*
X319715000Y-158695000D03*
D10*
X322255000Y-163775000D03*
D13*
X310090000Y-161235000D03*
X323017000Y-158695000D03*
D14*
X310992000Y-143508000D03*
D15*
X310992000Y-151128000D03*
D12*
X257612000Y-231720000D03*
D16*
X257612000Y-246960000D03*
D10*
X264470000Y-239975000D03*
D11*
X265740000Y-237435000D03*
D12*
X269550000Y-239975000D03*
D11*
X272090000Y-234895000D03*
D10*
X274630000Y-239975000D03*
D12*
X281488000Y-231720000D03*
D16*
X281488000Y-246960000D03*
D13*
X262465000Y-237435000D03*
X275392000Y-234895000D03*
D10*
X293045000Y-163775000D03*
D11*
X294315000Y-161235000D03*
D12*
X298125000Y-163775000D03*
D11*
X300665000Y-158695000D03*
D10*
X303205000Y-163775000D03*
D13*
X291040000Y-161235000D03*
X303967000Y-158695000D03*
D10*
X273995000Y-163775000D03*
D11*
X275265000Y-161235000D03*
D12*
X279075000Y-163775000D03*
D11*
X281615000Y-158695000D03*
D10*
X284155000Y-163775000D03*
D13*
X271990000Y-161235000D03*
X284917000Y-158695000D03*
D14*
X288742000Y-129698000D03*
D15*
X288742000Y-137318000D03*
D14*
X303492000Y-143508000D03*
D15*
X303492000Y-151128000D03*
D14*
X307242000Y-129698000D03*
D15*
X307242000Y-137318000D03*
D18*
X288625000Y-192250000D03*
D19*
X288625000Y-192250000D03*
D14*
X295992000Y-129698000D03*
D15*
X295992000Y-137318000D03*
M02*
