%TF.GenerationSoftware,KiCad,Pcbnew,8.0.6*%
%TF.CreationDate,2024-12-19T22:26:00+08:00*%
%TF.ProjectId,keyboard,6b657962-6f61-4726-942e-6b696361645f,rev?*%
%TF.SameCoordinates,Original*%
%TF.FileFunction,Drillmap*%
%TF.FilePolarity,Positive*%
%FSLAX45Y45*%
G04 Gerber Fmt 4.5, Leading zero omitted, Abs format (unit mm)*
G04 Created by KiCad (PCBNEW 8.0.6) date 2024-12-19 22:26:00*
%MOMM*%
%LPD*%
G01*
G04 APERTURE LIST*
%ADD10C,0.100000*%
%ADD11C,0.200000*%
%ADD12C,0.175000*%
%ADD13C,0.300000*%
%ADD14C,0.304800*%
%ADD15C,0.398780*%
G04 APERTURE END LIST*
D10*
X33160000Y-24701066D02*
G75*
G02*
X32860000Y-25001070I-300000J-4D01*
G01*
X24860000Y-25000000D02*
X32860000Y-25001066D01*
X24860000Y-25000000D02*
G75*
G02*
X24560000Y-24700000I0J300000D01*
G01*
X24560000Y-12800000D02*
G75*
G02*
X24860000Y-12500000I300000J0D01*
G01*
X32860000Y-12500000D02*
G75*
G02*
X33160000Y-12800000I0J-300000D01*
G01*
X33160000Y-12800000D02*
X33160000Y-24701066D01*
X24860000Y-12500000D02*
X32860000Y-12500000D01*
X24560000Y-12800000D02*
X24560000Y-24700000D01*
D11*
D12*
X25407000Y-16290000D02*
X25582000Y-16465000D01*
X25582000Y-16290000D02*
X25407000Y-16465000D01*
X25407000Y-18195000D02*
X25582000Y-18370000D01*
X25582000Y-18195000D02*
X25407000Y-18370000D01*
X25407000Y-20100000D02*
X25582000Y-20275000D01*
X25582000Y-20100000D02*
X25407000Y-20275000D01*
X25407000Y-22005000D02*
X25582000Y-22180000D01*
X25582000Y-22005000D02*
X25407000Y-22180000D01*
X26359500Y-23910000D02*
X26534500Y-24085000D01*
X26534500Y-23910000D02*
X26359500Y-24085000D01*
X26423000Y-16290000D02*
X26598000Y-16465000D01*
X26598000Y-16290000D02*
X26423000Y-16465000D01*
X26423000Y-18195000D02*
X26598000Y-18370000D01*
X26598000Y-18195000D02*
X26423000Y-18370000D01*
X26423000Y-20100000D02*
X26598000Y-20275000D01*
X26598000Y-20100000D02*
X26423000Y-20275000D01*
X26423000Y-22005000D02*
X26598000Y-22180000D01*
X26598000Y-22005000D02*
X26423000Y-22180000D01*
X27312000Y-16290000D02*
X27487000Y-16465000D01*
X27487000Y-16290000D02*
X27312000Y-16465000D01*
X27312000Y-18195000D02*
X27487000Y-18370000D01*
X27487000Y-18195000D02*
X27312000Y-18370000D01*
X27312000Y-20100000D02*
X27487000Y-20275000D01*
X27487000Y-20100000D02*
X27312000Y-20275000D01*
X27312000Y-22005000D02*
X27487000Y-22180000D01*
X27487000Y-22005000D02*
X27312000Y-22180000D01*
X27375500Y-23910000D02*
X27550500Y-24085000D01*
X27550500Y-23910000D02*
X27375500Y-24085000D01*
X28328000Y-16290000D02*
X28503000Y-16465000D01*
X28503000Y-16290000D02*
X28328000Y-16465000D01*
X28328000Y-18195000D02*
X28503000Y-18370000D01*
X28503000Y-18195000D02*
X28328000Y-18370000D01*
X28328000Y-20100000D02*
X28503000Y-20275000D01*
X28503000Y-20100000D02*
X28328000Y-20275000D01*
X28328000Y-22005000D02*
X28503000Y-22180000D01*
X28503000Y-22005000D02*
X28328000Y-22180000D01*
X29217000Y-16290000D02*
X29392000Y-16465000D01*
X29392000Y-16290000D02*
X29217000Y-16465000D01*
X29217000Y-18195000D02*
X29392000Y-18370000D01*
X29392000Y-18195000D02*
X29217000Y-18370000D01*
X29217000Y-20100000D02*
X29392000Y-20275000D01*
X29392000Y-20100000D02*
X29217000Y-20275000D01*
X29217000Y-22005000D02*
X29392000Y-22180000D01*
X29392000Y-22005000D02*
X29217000Y-22180000D01*
X29217000Y-23910000D02*
X29392000Y-24085000D01*
X29392000Y-23910000D02*
X29217000Y-24085000D01*
X30233000Y-16290000D02*
X30408000Y-16465000D01*
X30408000Y-16290000D02*
X30233000Y-16465000D01*
X30233000Y-18195000D02*
X30408000Y-18370000D01*
X30408000Y-18195000D02*
X30233000Y-18370000D01*
X30233000Y-20100000D02*
X30408000Y-20275000D01*
X30408000Y-20100000D02*
X30233000Y-20275000D01*
X30233000Y-22005000D02*
X30408000Y-22180000D01*
X30408000Y-22005000D02*
X30233000Y-22180000D01*
X30233000Y-23910000D02*
X30408000Y-24085000D01*
X30408000Y-23910000D02*
X30233000Y-24085000D01*
X31122000Y-16290000D02*
X31297000Y-16465000D01*
X31297000Y-16290000D02*
X31122000Y-16465000D01*
X31630000Y-18636500D02*
X31805000Y-18811500D01*
X31805000Y-18636500D02*
X31630000Y-18811500D01*
X31630000Y-19652500D02*
X31805000Y-19827500D01*
X31805000Y-19652500D02*
X31630000Y-19827500D01*
X31630000Y-22449500D02*
X31805000Y-22624500D01*
X31805000Y-22449500D02*
X31630000Y-22624500D01*
X31630000Y-23465500D02*
X31805000Y-23640500D01*
X31805000Y-23465500D02*
X31630000Y-23640500D01*
X32138000Y-16290000D02*
X32313000Y-16465000D01*
X32313000Y-16290000D02*
X32138000Y-16465000D01*
D13*
X25771500Y-16123500D02*
G75*
G02*
X25471500Y-16123500I-150000J0D01*
G01*
X25471500Y-16123500D02*
G75*
G02*
X25771500Y-16123500I150000J0D01*
G01*
X25771500Y-18028500D02*
G75*
G02*
X25471500Y-18028500I-150000J0D01*
G01*
X25471500Y-18028500D02*
G75*
G02*
X25771500Y-18028500I150000J0D01*
G01*
X25771500Y-19933500D02*
G75*
G02*
X25471500Y-19933500I-150000J0D01*
G01*
X25471500Y-19933500D02*
G75*
G02*
X25771500Y-19933500I150000J0D01*
G01*
X25771500Y-21838500D02*
G75*
G02*
X25471500Y-21838500I-150000J0D01*
G01*
X25471500Y-21838500D02*
G75*
G02*
X25771500Y-21838500I150000J0D01*
G01*
X26406500Y-15869500D02*
G75*
G02*
X26106500Y-15869500I-150000J0D01*
G01*
X26106500Y-15869500D02*
G75*
G02*
X26406500Y-15869500I150000J0D01*
G01*
X26406500Y-17774500D02*
G75*
G02*
X26106500Y-17774500I-150000J0D01*
G01*
X26106500Y-17774500D02*
G75*
G02*
X26406500Y-17774500I150000J0D01*
G01*
X26406500Y-19679500D02*
G75*
G02*
X26106500Y-19679500I-150000J0D01*
G01*
X26106500Y-19679500D02*
G75*
G02*
X26406500Y-19679500I150000J0D01*
G01*
X26406500Y-21584500D02*
G75*
G02*
X26106500Y-21584500I-150000J0D01*
G01*
X26106500Y-21584500D02*
G75*
G02*
X26406500Y-21584500I150000J0D01*
G01*
X26724000Y-23743500D02*
G75*
G02*
X26424000Y-23743500I-150000J0D01*
G01*
X26424000Y-23743500D02*
G75*
G02*
X26724000Y-23743500I150000J0D01*
G01*
X27359000Y-23489500D02*
G75*
G02*
X27059000Y-23489500I-150000J0D01*
G01*
X27059000Y-23489500D02*
G75*
G02*
X27359000Y-23489500I150000J0D01*
G01*
X27676500Y-16123500D02*
G75*
G02*
X27376500Y-16123500I-150000J0D01*
G01*
X27376500Y-16123500D02*
G75*
G02*
X27676500Y-16123500I150000J0D01*
G01*
X27676500Y-18028500D02*
G75*
G02*
X27376500Y-18028500I-150000J0D01*
G01*
X27376500Y-18028500D02*
G75*
G02*
X27676500Y-18028500I150000J0D01*
G01*
X27676500Y-19933500D02*
G75*
G02*
X27376500Y-19933500I-150000J0D01*
G01*
X27376500Y-19933500D02*
G75*
G02*
X27676500Y-19933500I150000J0D01*
G01*
X27676500Y-21838500D02*
G75*
G02*
X27376500Y-21838500I-150000J0D01*
G01*
X27376500Y-21838500D02*
G75*
G02*
X27676500Y-21838500I150000J0D01*
G01*
X28311500Y-15869500D02*
G75*
G02*
X28011500Y-15869500I-150000J0D01*
G01*
X28011500Y-15869500D02*
G75*
G02*
X28311500Y-15869500I150000J0D01*
G01*
X28311500Y-17774500D02*
G75*
G02*
X28011500Y-17774500I-150000J0D01*
G01*
X28011500Y-17774500D02*
G75*
G02*
X28311500Y-17774500I150000J0D01*
G01*
X28311500Y-19679500D02*
G75*
G02*
X28011500Y-19679500I-150000J0D01*
G01*
X28011500Y-19679500D02*
G75*
G02*
X28311500Y-19679500I150000J0D01*
G01*
X28311500Y-21584500D02*
G75*
G02*
X28011500Y-21584500I-150000J0D01*
G01*
X28011500Y-21584500D02*
G75*
G02*
X28311500Y-21584500I150000J0D01*
G01*
X29581500Y-16123500D02*
G75*
G02*
X29281500Y-16123500I-150000J0D01*
G01*
X29281500Y-16123500D02*
G75*
G02*
X29581500Y-16123500I150000J0D01*
G01*
X29581500Y-18028500D02*
G75*
G02*
X29281500Y-18028500I-150000J0D01*
G01*
X29281500Y-18028500D02*
G75*
G02*
X29581500Y-18028500I150000J0D01*
G01*
X29581500Y-19933500D02*
G75*
G02*
X29281500Y-19933500I-150000J0D01*
G01*
X29281500Y-19933500D02*
G75*
G02*
X29581500Y-19933500I150000J0D01*
G01*
X29581500Y-21838500D02*
G75*
G02*
X29281500Y-21838500I-150000J0D01*
G01*
X29281500Y-21838500D02*
G75*
G02*
X29581500Y-21838500I150000J0D01*
G01*
X29581500Y-23743500D02*
G75*
G02*
X29281500Y-23743500I-150000J0D01*
G01*
X29281500Y-23743500D02*
G75*
G02*
X29581500Y-23743500I150000J0D01*
G01*
X30216500Y-15869500D02*
G75*
G02*
X29916500Y-15869500I-150000J0D01*
G01*
X29916500Y-15869500D02*
G75*
G02*
X30216500Y-15869500I150000J0D01*
G01*
X30216500Y-17774500D02*
G75*
G02*
X29916500Y-17774500I-150000J0D01*
G01*
X29916500Y-17774500D02*
G75*
G02*
X30216500Y-17774500I150000J0D01*
G01*
X30216500Y-19679500D02*
G75*
G02*
X29916500Y-19679500I-150000J0D01*
G01*
X29916500Y-19679500D02*
G75*
G02*
X30216500Y-19679500I150000J0D01*
G01*
X30216500Y-21584500D02*
G75*
G02*
X29916500Y-21584500I-150000J0D01*
G01*
X29916500Y-21584500D02*
G75*
G02*
X30216500Y-21584500I150000J0D01*
G01*
X30216500Y-23489500D02*
G75*
G02*
X29916500Y-23489500I-150000J0D01*
G01*
X29916500Y-23489500D02*
G75*
G02*
X30216500Y-23489500I150000J0D01*
G01*
X31359500Y-18978000D02*
G75*
G02*
X31059500Y-18978000I-150000J0D01*
G01*
X31059500Y-18978000D02*
G75*
G02*
X31359500Y-18978000I150000J0D01*
G01*
X31359500Y-22791000D02*
G75*
G02*
X31059500Y-22791000I-150000J0D01*
G01*
X31059500Y-22791000D02*
G75*
G02*
X31359500Y-22791000I150000J0D01*
G01*
X31486500Y-16123500D02*
G75*
G02*
X31186500Y-16123500I-150000J0D01*
G01*
X31186500Y-16123500D02*
G75*
G02*
X31486500Y-16123500I150000J0D01*
G01*
X31613500Y-19613000D02*
G75*
G02*
X31313500Y-19613000I-150000J0D01*
G01*
X31313500Y-19613000D02*
G75*
G02*
X31613500Y-19613000I150000J0D01*
G01*
X31613500Y-23426000D02*
G75*
G02*
X31313500Y-23426000I-150000J0D01*
G01*
X31313500Y-23426000D02*
G75*
G02*
X31613500Y-23426000I150000J0D01*
G01*
X32121500Y-15869500D02*
G75*
G02*
X31821500Y-15869500I-150000J0D01*
G01*
X31821500Y-15869500D02*
G75*
G02*
X32121500Y-15869500I150000J0D01*
G01*
D14*
X25761200Y-24543600D02*
X25761200Y-24848400D01*
X25608800Y-24696000D02*
X25913600Y-24696000D01*
X28148800Y-24543600D02*
X28148800Y-24848400D01*
X27996400Y-24696000D02*
X28301200Y-24696000D01*
X32416000Y-17885800D02*
X32416000Y-18190600D01*
X32263600Y-18038200D02*
X32568400Y-18038200D01*
X32416000Y-20273400D02*
X32416000Y-20578200D01*
X32263600Y-20425800D02*
X32568400Y-20425800D01*
X32416000Y-21698800D02*
X32416000Y-22003600D01*
X32263600Y-21851200D02*
X32568400Y-21851200D01*
X32416000Y-24086400D02*
X32416000Y-24391200D01*
X32263600Y-24238800D02*
X32568400Y-24238800D01*
D15*
X25902191Y-23312991D02*
X25902191Y-23031009D01*
X25620209Y-23031009D01*
X25620209Y-23312991D01*
X25902191Y-23312991D01*
X26143491Y-16518491D02*
X26143491Y-16236509D01*
X25861509Y-16236509D01*
X25861509Y-16518491D01*
X26143491Y-16518491D01*
X26143491Y-18423491D02*
X26143491Y-18141509D01*
X25861509Y-18141509D01*
X25861509Y-18423491D01*
X26143491Y-18423491D01*
X26143491Y-20328491D02*
X26143491Y-20046509D01*
X25861509Y-20046509D01*
X25861509Y-20328491D01*
X26143491Y-20328491D01*
X26143491Y-22233491D02*
X26143491Y-21951509D01*
X25861509Y-21951509D01*
X25861509Y-22233491D01*
X26143491Y-22233491D01*
X27095991Y-24138491D02*
X27095991Y-23856509D01*
X26814009Y-23856509D01*
X26814009Y-24138491D01*
X27095991Y-24138491D01*
X28048491Y-16518491D02*
X28048491Y-16236509D01*
X27766509Y-16236509D01*
X27766509Y-16518491D01*
X28048491Y-16518491D01*
X28048491Y-18423491D02*
X28048491Y-18141509D01*
X27766509Y-18141509D01*
X27766509Y-18423491D01*
X28048491Y-18423491D01*
X28048491Y-20328491D02*
X28048491Y-20046509D01*
X27766509Y-20046509D01*
X27766509Y-20328491D01*
X28048491Y-20328491D01*
X28048491Y-22233491D02*
X28048491Y-21951509D01*
X27766509Y-21951509D01*
X27766509Y-22233491D01*
X28048491Y-22233491D01*
X28289791Y-23312991D02*
X28289791Y-23031009D01*
X28007809Y-23031009D01*
X28007809Y-23312991D01*
X28289791Y-23312991D01*
X29953491Y-16518491D02*
X29953491Y-16236509D01*
X29671509Y-16236509D01*
X29671509Y-16518491D01*
X29953491Y-16518491D01*
X29953491Y-18423491D02*
X29953491Y-18141509D01*
X29671509Y-18141509D01*
X29671509Y-18423491D01*
X29953491Y-18423491D01*
X29953491Y-20328491D02*
X29953491Y-20046509D01*
X29671509Y-20046509D01*
X29671509Y-20328491D01*
X29953491Y-20328491D01*
X29953491Y-22233491D02*
X29953491Y-21951509D01*
X29671509Y-21951509D01*
X29671509Y-22233491D01*
X29953491Y-22233491D01*
X29953491Y-24138491D02*
X29953491Y-23856509D01*
X29671509Y-23856509D01*
X29671509Y-24138491D01*
X29953491Y-24138491D01*
X31032991Y-18179191D02*
X31032991Y-17897209D01*
X30751009Y-17897209D01*
X30751009Y-18179191D01*
X31032991Y-18179191D01*
X31032991Y-20566791D02*
X31032991Y-20284809D01*
X30751009Y-20284809D01*
X30751009Y-20566791D01*
X31032991Y-20566791D01*
X31032991Y-21992191D02*
X31032991Y-21710209D01*
X30751009Y-21710209D01*
X30751009Y-21992191D01*
X31032991Y-21992191D01*
X31032991Y-24379791D02*
X31032991Y-24097809D01*
X30751009Y-24097809D01*
X30751009Y-24379791D01*
X31032991Y-24379791D01*
X31858491Y-16518491D02*
X31858491Y-16236509D01*
X31576509Y-16236509D01*
X31576509Y-16518491D01*
X31858491Y-16518491D01*
X31858491Y-19372991D02*
X31858491Y-19091009D01*
X31576509Y-19091009D01*
X31576509Y-19372991D01*
X31858491Y-19372991D01*
X31858491Y-23185991D02*
X31858491Y-22904009D01*
X31576509Y-22904009D01*
X31576509Y-23185991D01*
X31858491Y-23185991D01*
D11*
X24815777Y-25317550D02*
X24815777Y-25117550D01*
X24815777Y-25117550D02*
X24863396Y-25117550D01*
X24863396Y-25117550D02*
X24891967Y-25127074D01*
X24891967Y-25127074D02*
X24911015Y-25146121D01*
X24911015Y-25146121D02*
X24920539Y-25165169D01*
X24920539Y-25165169D02*
X24930062Y-25203264D01*
X24930062Y-25203264D02*
X24930062Y-25231835D01*
X24930062Y-25231835D02*
X24920539Y-25269931D01*
X24920539Y-25269931D02*
X24911015Y-25288978D01*
X24911015Y-25288978D02*
X24891967Y-25308026D01*
X24891967Y-25308026D02*
X24863396Y-25317550D01*
X24863396Y-25317550D02*
X24815777Y-25317550D01*
X25015777Y-25317550D02*
X25015777Y-25184216D01*
X25015777Y-25222312D02*
X25025300Y-25203264D01*
X25025300Y-25203264D02*
X25034824Y-25193740D01*
X25034824Y-25193740D02*
X25053872Y-25184216D01*
X25053872Y-25184216D02*
X25072920Y-25184216D01*
X25139586Y-25317550D02*
X25139586Y-25184216D01*
X25139586Y-25117550D02*
X25130062Y-25127074D01*
X25130062Y-25127074D02*
X25139586Y-25136597D01*
X25139586Y-25136597D02*
X25149110Y-25127074D01*
X25149110Y-25127074D02*
X25139586Y-25117550D01*
X25139586Y-25117550D02*
X25139586Y-25136597D01*
X25263396Y-25317550D02*
X25244348Y-25308026D01*
X25244348Y-25308026D02*
X25234824Y-25288978D01*
X25234824Y-25288978D02*
X25234824Y-25117550D01*
X25368158Y-25317550D02*
X25349110Y-25308026D01*
X25349110Y-25308026D02*
X25339586Y-25288978D01*
X25339586Y-25288978D02*
X25339586Y-25117550D01*
X25596729Y-25317550D02*
X25596729Y-25117550D01*
X25596729Y-25117550D02*
X25663396Y-25260407D01*
X25663396Y-25260407D02*
X25730062Y-25117550D01*
X25730062Y-25117550D02*
X25730062Y-25317550D01*
X25911015Y-25317550D02*
X25911015Y-25212788D01*
X25911015Y-25212788D02*
X25901491Y-25193740D01*
X25901491Y-25193740D02*
X25882443Y-25184216D01*
X25882443Y-25184216D02*
X25844348Y-25184216D01*
X25844348Y-25184216D02*
X25825300Y-25193740D01*
X25911015Y-25308026D02*
X25891967Y-25317550D01*
X25891967Y-25317550D02*
X25844348Y-25317550D01*
X25844348Y-25317550D02*
X25825300Y-25308026D01*
X25825300Y-25308026D02*
X25815777Y-25288978D01*
X25815777Y-25288978D02*
X25815777Y-25269931D01*
X25815777Y-25269931D02*
X25825300Y-25250883D01*
X25825300Y-25250883D02*
X25844348Y-25241359D01*
X25844348Y-25241359D02*
X25891967Y-25241359D01*
X25891967Y-25241359D02*
X25911015Y-25231835D01*
X26006253Y-25184216D02*
X26006253Y-25384216D01*
X26006253Y-25193740D02*
X26025300Y-25184216D01*
X26025300Y-25184216D02*
X26063396Y-25184216D01*
X26063396Y-25184216D02*
X26082443Y-25193740D01*
X26082443Y-25193740D02*
X26091967Y-25203264D01*
X26091967Y-25203264D02*
X26101491Y-25222312D01*
X26101491Y-25222312D02*
X26101491Y-25279454D01*
X26101491Y-25279454D02*
X26091967Y-25298502D01*
X26091967Y-25298502D02*
X26082443Y-25308026D01*
X26082443Y-25308026D02*
X26063396Y-25317550D01*
X26063396Y-25317550D02*
X26025300Y-25317550D01*
X26025300Y-25317550D02*
X26006253Y-25308026D01*
X26187205Y-25298502D02*
X26196729Y-25308026D01*
X26196729Y-25308026D02*
X26187205Y-25317550D01*
X26187205Y-25317550D02*
X26177681Y-25308026D01*
X26177681Y-25308026D02*
X26187205Y-25298502D01*
X26187205Y-25298502D02*
X26187205Y-25317550D01*
X26187205Y-25193740D02*
X26196729Y-25203264D01*
X26196729Y-25203264D02*
X26187205Y-25212788D01*
X26187205Y-25212788D02*
X26177681Y-25203264D01*
X26177681Y-25203264D02*
X26187205Y-25193740D01*
X26187205Y-25193740D02*
X26187205Y-25212788D01*
D12*
X24380000Y-25558566D02*
X24555000Y-25733566D01*
X24555000Y-25558566D02*
X24380000Y-25733566D01*
D11*
X24920539Y-25737550D02*
X24806253Y-25737550D01*
X24863396Y-25737550D02*
X24863396Y-25537550D01*
X24863396Y-25537550D02*
X24844348Y-25566121D01*
X24844348Y-25566121D02*
X24825300Y-25585169D01*
X24825300Y-25585169D02*
X24806253Y-25594693D01*
X25006253Y-25718502D02*
X25015777Y-25728026D01*
X25015777Y-25728026D02*
X25006253Y-25737550D01*
X25006253Y-25737550D02*
X24996729Y-25728026D01*
X24996729Y-25728026D02*
X25006253Y-25718502D01*
X25006253Y-25718502D02*
X25006253Y-25737550D01*
X25082443Y-25537550D02*
X25215777Y-25537550D01*
X25215777Y-25537550D02*
X25130062Y-25737550D01*
X25387205Y-25537550D02*
X25291967Y-25537550D01*
X25291967Y-25537550D02*
X25282443Y-25632788D01*
X25282443Y-25632788D02*
X25291967Y-25623264D01*
X25291967Y-25623264D02*
X25311015Y-25613740D01*
X25311015Y-25613740D02*
X25358634Y-25613740D01*
X25358634Y-25613740D02*
X25377681Y-25623264D01*
X25377681Y-25623264D02*
X25387205Y-25632788D01*
X25387205Y-25632788D02*
X25396729Y-25651835D01*
X25396729Y-25651835D02*
X25396729Y-25699454D01*
X25396729Y-25699454D02*
X25387205Y-25718502D01*
X25387205Y-25718502D02*
X25377681Y-25728026D01*
X25377681Y-25728026D02*
X25358634Y-25737550D01*
X25358634Y-25737550D02*
X25311015Y-25737550D01*
X25311015Y-25737550D02*
X25291967Y-25728026D01*
X25291967Y-25728026D02*
X25282443Y-25718502D01*
X25520539Y-25537550D02*
X25539586Y-25537550D01*
X25539586Y-25537550D02*
X25558634Y-25547074D01*
X25558634Y-25547074D02*
X25568158Y-25556597D01*
X25568158Y-25556597D02*
X25577681Y-25575645D01*
X25577681Y-25575645D02*
X25587205Y-25613740D01*
X25587205Y-25613740D02*
X25587205Y-25661359D01*
X25587205Y-25661359D02*
X25577681Y-25699454D01*
X25577681Y-25699454D02*
X25568158Y-25718502D01*
X25568158Y-25718502D02*
X25558634Y-25728026D01*
X25558634Y-25728026D02*
X25539586Y-25737550D01*
X25539586Y-25737550D02*
X25520539Y-25737550D01*
X25520539Y-25737550D02*
X25501491Y-25728026D01*
X25501491Y-25728026D02*
X25491967Y-25718502D01*
X25491967Y-25718502D02*
X25482443Y-25699454D01*
X25482443Y-25699454D02*
X25472920Y-25661359D01*
X25472920Y-25661359D02*
X25472920Y-25613740D01*
X25472920Y-25613740D02*
X25482443Y-25575645D01*
X25482443Y-25575645D02*
X25491967Y-25556597D01*
X25491967Y-25556597D02*
X25501491Y-25547074D01*
X25501491Y-25547074D02*
X25520539Y-25537550D01*
X25672920Y-25737550D02*
X25672920Y-25604216D01*
X25672920Y-25623264D02*
X25682443Y-25613740D01*
X25682443Y-25613740D02*
X25701491Y-25604216D01*
X25701491Y-25604216D02*
X25730062Y-25604216D01*
X25730062Y-25604216D02*
X25749110Y-25613740D01*
X25749110Y-25613740D02*
X25758634Y-25632788D01*
X25758634Y-25632788D02*
X25758634Y-25737550D01*
X25758634Y-25632788D02*
X25768158Y-25613740D01*
X25768158Y-25613740D02*
X25787205Y-25604216D01*
X25787205Y-25604216D02*
X25815777Y-25604216D01*
X25815777Y-25604216D02*
X25834824Y-25613740D01*
X25834824Y-25613740D02*
X25844348Y-25632788D01*
X25844348Y-25632788D02*
X25844348Y-25737550D01*
X25939586Y-25737550D02*
X25939586Y-25604216D01*
X25939586Y-25623264D02*
X25949110Y-25613740D01*
X25949110Y-25613740D02*
X25968158Y-25604216D01*
X25968158Y-25604216D02*
X25996729Y-25604216D01*
X25996729Y-25604216D02*
X26015777Y-25613740D01*
X26015777Y-25613740D02*
X26025301Y-25632788D01*
X26025301Y-25632788D02*
X26025301Y-25737550D01*
X26025301Y-25632788D02*
X26034824Y-25613740D01*
X26034824Y-25613740D02*
X26053872Y-25604216D01*
X26053872Y-25604216D02*
X26082443Y-25604216D01*
X26082443Y-25604216D02*
X26101491Y-25613740D01*
X26101491Y-25613740D02*
X26111015Y-25632788D01*
X26111015Y-25632788D02*
X26111015Y-25737550D01*
X26501491Y-25528026D02*
X26330063Y-25785169D01*
X26758634Y-25537550D02*
X26777682Y-25537550D01*
X26777682Y-25537550D02*
X26796729Y-25547074D01*
X26796729Y-25547074D02*
X26806253Y-25556597D01*
X26806253Y-25556597D02*
X26815777Y-25575645D01*
X26815777Y-25575645D02*
X26825301Y-25613740D01*
X26825301Y-25613740D02*
X26825301Y-25661359D01*
X26825301Y-25661359D02*
X26815777Y-25699454D01*
X26815777Y-25699454D02*
X26806253Y-25718502D01*
X26806253Y-25718502D02*
X26796729Y-25728026D01*
X26796729Y-25728026D02*
X26777682Y-25737550D01*
X26777682Y-25737550D02*
X26758634Y-25737550D01*
X26758634Y-25737550D02*
X26739586Y-25728026D01*
X26739586Y-25728026D02*
X26730063Y-25718502D01*
X26730063Y-25718502D02*
X26720539Y-25699454D01*
X26720539Y-25699454D02*
X26711015Y-25661359D01*
X26711015Y-25661359D02*
X26711015Y-25613740D01*
X26711015Y-25613740D02*
X26720539Y-25575645D01*
X26720539Y-25575645D02*
X26730063Y-25556597D01*
X26730063Y-25556597D02*
X26739586Y-25547074D01*
X26739586Y-25547074D02*
X26758634Y-25537550D01*
X26911015Y-25718502D02*
X26920539Y-25728026D01*
X26920539Y-25728026D02*
X26911015Y-25737550D01*
X26911015Y-25737550D02*
X26901491Y-25728026D01*
X26901491Y-25728026D02*
X26911015Y-25718502D01*
X26911015Y-25718502D02*
X26911015Y-25737550D01*
X27044348Y-25537550D02*
X27063396Y-25537550D01*
X27063396Y-25537550D02*
X27082444Y-25547074D01*
X27082444Y-25547074D02*
X27091967Y-25556597D01*
X27091967Y-25556597D02*
X27101491Y-25575645D01*
X27101491Y-25575645D02*
X27111015Y-25613740D01*
X27111015Y-25613740D02*
X27111015Y-25661359D01*
X27111015Y-25661359D02*
X27101491Y-25699454D01*
X27101491Y-25699454D02*
X27091967Y-25718502D01*
X27091967Y-25718502D02*
X27082444Y-25728026D01*
X27082444Y-25728026D02*
X27063396Y-25737550D01*
X27063396Y-25737550D02*
X27044348Y-25737550D01*
X27044348Y-25737550D02*
X27025301Y-25728026D01*
X27025301Y-25728026D02*
X27015777Y-25718502D01*
X27015777Y-25718502D02*
X27006253Y-25699454D01*
X27006253Y-25699454D02*
X26996729Y-25661359D01*
X26996729Y-25661359D02*
X26996729Y-25613740D01*
X26996729Y-25613740D02*
X27006253Y-25575645D01*
X27006253Y-25575645D02*
X27015777Y-25556597D01*
X27015777Y-25556597D02*
X27025301Y-25547074D01*
X27025301Y-25547074D02*
X27044348Y-25537550D01*
X27282444Y-25537550D02*
X27244348Y-25537550D01*
X27244348Y-25537550D02*
X27225301Y-25547074D01*
X27225301Y-25547074D02*
X27215777Y-25556597D01*
X27215777Y-25556597D02*
X27196729Y-25585169D01*
X27196729Y-25585169D02*
X27187205Y-25623264D01*
X27187205Y-25623264D02*
X27187205Y-25699454D01*
X27187205Y-25699454D02*
X27196729Y-25718502D01*
X27196729Y-25718502D02*
X27206253Y-25728026D01*
X27206253Y-25728026D02*
X27225301Y-25737550D01*
X27225301Y-25737550D02*
X27263396Y-25737550D01*
X27263396Y-25737550D02*
X27282444Y-25728026D01*
X27282444Y-25728026D02*
X27291967Y-25718502D01*
X27291967Y-25718502D02*
X27301491Y-25699454D01*
X27301491Y-25699454D02*
X27301491Y-25651835D01*
X27301491Y-25651835D02*
X27291967Y-25632788D01*
X27291967Y-25632788D02*
X27282444Y-25623264D01*
X27282444Y-25623264D02*
X27263396Y-25613740D01*
X27263396Y-25613740D02*
X27225301Y-25613740D01*
X27225301Y-25613740D02*
X27206253Y-25623264D01*
X27206253Y-25623264D02*
X27196729Y-25632788D01*
X27196729Y-25632788D02*
X27187205Y-25651835D01*
X27415777Y-25623264D02*
X27396729Y-25613740D01*
X27396729Y-25613740D02*
X27387205Y-25604216D01*
X27387205Y-25604216D02*
X27377682Y-25585169D01*
X27377682Y-25585169D02*
X27377682Y-25575645D01*
X27377682Y-25575645D02*
X27387205Y-25556597D01*
X27387205Y-25556597D02*
X27396729Y-25547074D01*
X27396729Y-25547074D02*
X27415777Y-25537550D01*
X27415777Y-25537550D02*
X27453872Y-25537550D01*
X27453872Y-25537550D02*
X27472920Y-25547074D01*
X27472920Y-25547074D02*
X27482444Y-25556597D01*
X27482444Y-25556597D02*
X27491967Y-25575645D01*
X27491967Y-25575645D02*
X27491967Y-25585169D01*
X27491967Y-25585169D02*
X27482444Y-25604216D01*
X27482444Y-25604216D02*
X27472920Y-25613740D01*
X27472920Y-25613740D02*
X27453872Y-25623264D01*
X27453872Y-25623264D02*
X27415777Y-25623264D01*
X27415777Y-25623264D02*
X27396729Y-25632788D01*
X27396729Y-25632788D02*
X27387205Y-25642312D01*
X27387205Y-25642312D02*
X27377682Y-25661359D01*
X27377682Y-25661359D02*
X27377682Y-25699454D01*
X27377682Y-25699454D02*
X27387205Y-25718502D01*
X27387205Y-25718502D02*
X27396729Y-25728026D01*
X27396729Y-25728026D02*
X27415777Y-25737550D01*
X27415777Y-25737550D02*
X27453872Y-25737550D01*
X27453872Y-25737550D02*
X27472920Y-25728026D01*
X27472920Y-25728026D02*
X27482444Y-25718502D01*
X27482444Y-25718502D02*
X27491967Y-25699454D01*
X27491967Y-25699454D02*
X27491967Y-25661359D01*
X27491967Y-25661359D02*
X27482444Y-25642312D01*
X27482444Y-25642312D02*
X27472920Y-25632788D01*
X27472920Y-25632788D02*
X27453872Y-25623264D01*
X27587205Y-25737550D02*
X27625301Y-25737550D01*
X27625301Y-25737550D02*
X27644348Y-25728026D01*
X27644348Y-25728026D02*
X27653872Y-25718502D01*
X27653872Y-25718502D02*
X27672920Y-25689931D01*
X27672920Y-25689931D02*
X27682444Y-25651835D01*
X27682444Y-25651835D02*
X27682444Y-25575645D01*
X27682444Y-25575645D02*
X27672920Y-25556597D01*
X27672920Y-25556597D02*
X27663396Y-25547074D01*
X27663396Y-25547074D02*
X27644348Y-25537550D01*
X27644348Y-25537550D02*
X27606253Y-25537550D01*
X27606253Y-25537550D02*
X27587205Y-25547074D01*
X27587205Y-25547074D02*
X27577682Y-25556597D01*
X27577682Y-25556597D02*
X27568158Y-25575645D01*
X27568158Y-25575645D02*
X27568158Y-25623264D01*
X27568158Y-25623264D02*
X27577682Y-25642312D01*
X27577682Y-25642312D02*
X27587205Y-25651835D01*
X27587205Y-25651835D02*
X27606253Y-25661359D01*
X27606253Y-25661359D02*
X27644348Y-25661359D01*
X27644348Y-25661359D02*
X27663396Y-25651835D01*
X27663396Y-25651835D02*
X27672920Y-25642312D01*
X27672920Y-25642312D02*
X27682444Y-25623264D01*
X27758634Y-25537550D02*
X27758634Y-25575645D01*
X27834825Y-25537550D02*
X27834825Y-25575645D01*
X28130063Y-25813740D02*
X28120539Y-25804216D01*
X28120539Y-25804216D02*
X28101491Y-25775645D01*
X28101491Y-25775645D02*
X28091967Y-25756597D01*
X28091967Y-25756597D02*
X28082444Y-25728026D01*
X28082444Y-25728026D02*
X28072920Y-25680407D01*
X28072920Y-25680407D02*
X28072920Y-25642312D01*
X28072920Y-25642312D02*
X28082444Y-25594693D01*
X28082444Y-25594693D02*
X28091967Y-25566121D01*
X28091967Y-25566121D02*
X28101491Y-25547074D01*
X28101491Y-25547074D02*
X28120539Y-25518502D01*
X28120539Y-25518502D02*
X28130063Y-25508978D01*
X28187206Y-25537550D02*
X28311015Y-25537550D01*
X28311015Y-25537550D02*
X28244348Y-25613740D01*
X28244348Y-25613740D02*
X28272920Y-25613740D01*
X28272920Y-25613740D02*
X28291967Y-25623264D01*
X28291967Y-25623264D02*
X28301491Y-25632788D01*
X28301491Y-25632788D02*
X28311015Y-25651835D01*
X28311015Y-25651835D02*
X28311015Y-25699454D01*
X28311015Y-25699454D02*
X28301491Y-25718502D01*
X28301491Y-25718502D02*
X28291967Y-25728026D01*
X28291967Y-25728026D02*
X28272920Y-25737550D01*
X28272920Y-25737550D02*
X28215777Y-25737550D01*
X28215777Y-25737550D02*
X28196729Y-25728026D01*
X28196729Y-25728026D02*
X28187206Y-25718502D01*
X28482444Y-25604216D02*
X28482444Y-25737550D01*
X28434825Y-25528026D02*
X28387206Y-25670883D01*
X28387206Y-25670883D02*
X28511015Y-25670883D01*
X28739587Y-25737550D02*
X28739587Y-25537550D01*
X28825301Y-25737550D02*
X28825301Y-25632788D01*
X28825301Y-25632788D02*
X28815777Y-25613740D01*
X28815777Y-25613740D02*
X28796729Y-25604216D01*
X28796729Y-25604216D02*
X28768158Y-25604216D01*
X28768158Y-25604216D02*
X28749110Y-25613740D01*
X28749110Y-25613740D02*
X28739587Y-25623264D01*
X28949110Y-25737550D02*
X28930063Y-25728026D01*
X28930063Y-25728026D02*
X28920539Y-25718502D01*
X28920539Y-25718502D02*
X28911015Y-25699454D01*
X28911015Y-25699454D02*
X28911015Y-25642312D01*
X28911015Y-25642312D02*
X28920539Y-25623264D01*
X28920539Y-25623264D02*
X28930063Y-25613740D01*
X28930063Y-25613740D02*
X28949110Y-25604216D01*
X28949110Y-25604216D02*
X28977682Y-25604216D01*
X28977682Y-25604216D02*
X28996729Y-25613740D01*
X28996729Y-25613740D02*
X29006253Y-25623264D01*
X29006253Y-25623264D02*
X29015777Y-25642312D01*
X29015777Y-25642312D02*
X29015777Y-25699454D01*
X29015777Y-25699454D02*
X29006253Y-25718502D01*
X29006253Y-25718502D02*
X28996729Y-25728026D01*
X28996729Y-25728026D02*
X28977682Y-25737550D01*
X28977682Y-25737550D02*
X28949110Y-25737550D01*
X29130063Y-25737550D02*
X29111015Y-25728026D01*
X29111015Y-25728026D02*
X29101491Y-25708978D01*
X29101491Y-25708978D02*
X29101491Y-25537550D01*
X29282444Y-25728026D02*
X29263396Y-25737550D01*
X29263396Y-25737550D02*
X29225301Y-25737550D01*
X29225301Y-25737550D02*
X29206253Y-25728026D01*
X29206253Y-25728026D02*
X29196729Y-25708978D01*
X29196729Y-25708978D02*
X29196729Y-25632788D01*
X29196729Y-25632788D02*
X29206253Y-25613740D01*
X29206253Y-25613740D02*
X29225301Y-25604216D01*
X29225301Y-25604216D02*
X29263396Y-25604216D01*
X29263396Y-25604216D02*
X29282444Y-25613740D01*
X29282444Y-25613740D02*
X29291968Y-25632788D01*
X29291968Y-25632788D02*
X29291968Y-25651835D01*
X29291968Y-25651835D02*
X29196729Y-25670883D01*
X29368158Y-25728026D02*
X29387206Y-25737550D01*
X29387206Y-25737550D02*
X29425301Y-25737550D01*
X29425301Y-25737550D02*
X29444349Y-25728026D01*
X29444349Y-25728026D02*
X29453872Y-25708978D01*
X29453872Y-25708978D02*
X29453872Y-25699454D01*
X29453872Y-25699454D02*
X29444349Y-25680407D01*
X29444349Y-25680407D02*
X29425301Y-25670883D01*
X29425301Y-25670883D02*
X29396729Y-25670883D01*
X29396729Y-25670883D02*
X29377682Y-25661359D01*
X29377682Y-25661359D02*
X29368158Y-25642312D01*
X29368158Y-25642312D02*
X29368158Y-25632788D01*
X29368158Y-25632788D02*
X29377682Y-25613740D01*
X29377682Y-25613740D02*
X29396729Y-25604216D01*
X29396729Y-25604216D02*
X29425301Y-25604216D01*
X29425301Y-25604216D02*
X29444349Y-25613740D01*
X29520539Y-25813740D02*
X29530063Y-25804216D01*
X29530063Y-25804216D02*
X29549110Y-25775645D01*
X29549110Y-25775645D02*
X29558634Y-25756597D01*
X29558634Y-25756597D02*
X29568158Y-25728026D01*
X29568158Y-25728026D02*
X29577682Y-25680407D01*
X29577682Y-25680407D02*
X29577682Y-25642312D01*
X29577682Y-25642312D02*
X29568158Y-25594693D01*
X29568158Y-25594693D02*
X29558634Y-25566121D01*
X29558634Y-25566121D02*
X29549110Y-25547074D01*
X29549110Y-25547074D02*
X29530063Y-25518502D01*
X29530063Y-25518502D02*
X29520539Y-25508978D01*
X29882444Y-25813740D02*
X29872920Y-25804216D01*
X29872920Y-25804216D02*
X29853872Y-25775645D01*
X29853872Y-25775645D02*
X29844349Y-25756597D01*
X29844349Y-25756597D02*
X29834825Y-25728026D01*
X29834825Y-25728026D02*
X29825301Y-25680407D01*
X29825301Y-25680407D02*
X29825301Y-25642312D01*
X29825301Y-25642312D02*
X29834825Y-25594693D01*
X29834825Y-25594693D02*
X29844349Y-25566121D01*
X29844349Y-25566121D02*
X29853872Y-25547074D01*
X29853872Y-25547074D02*
X29872920Y-25518502D01*
X29872920Y-25518502D02*
X29882444Y-25508978D01*
X29958634Y-25604216D02*
X29958634Y-25737550D01*
X29958634Y-25623264D02*
X29968158Y-25613740D01*
X29968158Y-25613740D02*
X29987206Y-25604216D01*
X29987206Y-25604216D02*
X30015777Y-25604216D01*
X30015777Y-25604216D02*
X30034825Y-25613740D01*
X30034825Y-25613740D02*
X30044349Y-25632788D01*
X30044349Y-25632788D02*
X30044349Y-25737550D01*
X30168158Y-25737550D02*
X30149110Y-25728026D01*
X30149110Y-25728026D02*
X30139587Y-25718502D01*
X30139587Y-25718502D02*
X30130063Y-25699454D01*
X30130063Y-25699454D02*
X30130063Y-25642312D01*
X30130063Y-25642312D02*
X30139587Y-25623264D01*
X30139587Y-25623264D02*
X30149110Y-25613740D01*
X30149110Y-25613740D02*
X30168158Y-25604216D01*
X30168158Y-25604216D02*
X30196730Y-25604216D01*
X30196730Y-25604216D02*
X30215777Y-25613740D01*
X30215777Y-25613740D02*
X30225301Y-25623264D01*
X30225301Y-25623264D02*
X30234825Y-25642312D01*
X30234825Y-25642312D02*
X30234825Y-25699454D01*
X30234825Y-25699454D02*
X30225301Y-25718502D01*
X30225301Y-25718502D02*
X30215777Y-25728026D01*
X30215777Y-25728026D02*
X30196730Y-25737550D01*
X30196730Y-25737550D02*
X30168158Y-25737550D01*
X30291968Y-25604216D02*
X30368158Y-25604216D01*
X30320539Y-25537550D02*
X30320539Y-25708978D01*
X30320539Y-25708978D02*
X30330063Y-25728026D01*
X30330063Y-25728026D02*
X30349110Y-25737550D01*
X30349110Y-25737550D02*
X30368158Y-25737550D01*
X30587206Y-25604216D02*
X30587206Y-25804216D01*
X30587206Y-25613740D02*
X30606253Y-25604216D01*
X30606253Y-25604216D02*
X30644349Y-25604216D01*
X30644349Y-25604216D02*
X30663396Y-25613740D01*
X30663396Y-25613740D02*
X30672920Y-25623264D01*
X30672920Y-25623264D02*
X30682444Y-25642312D01*
X30682444Y-25642312D02*
X30682444Y-25699454D01*
X30682444Y-25699454D02*
X30672920Y-25718502D01*
X30672920Y-25718502D02*
X30663396Y-25728026D01*
X30663396Y-25728026D02*
X30644349Y-25737550D01*
X30644349Y-25737550D02*
X30606253Y-25737550D01*
X30606253Y-25737550D02*
X30587206Y-25728026D01*
X30796730Y-25737550D02*
X30777682Y-25728026D01*
X30777682Y-25728026D02*
X30768158Y-25708978D01*
X30768158Y-25708978D02*
X30768158Y-25537550D01*
X30958634Y-25737550D02*
X30958634Y-25632788D01*
X30958634Y-25632788D02*
X30949111Y-25613740D01*
X30949111Y-25613740D02*
X30930063Y-25604216D01*
X30930063Y-25604216D02*
X30891968Y-25604216D01*
X30891968Y-25604216D02*
X30872920Y-25613740D01*
X30958634Y-25728026D02*
X30939587Y-25737550D01*
X30939587Y-25737550D02*
X30891968Y-25737550D01*
X30891968Y-25737550D02*
X30872920Y-25728026D01*
X30872920Y-25728026D02*
X30863396Y-25708978D01*
X30863396Y-25708978D02*
X30863396Y-25689931D01*
X30863396Y-25689931D02*
X30872920Y-25670883D01*
X30872920Y-25670883D02*
X30891968Y-25661359D01*
X30891968Y-25661359D02*
X30939587Y-25661359D01*
X30939587Y-25661359D02*
X30958634Y-25651835D01*
X31025301Y-25604216D02*
X31101491Y-25604216D01*
X31053872Y-25537550D02*
X31053872Y-25708978D01*
X31053872Y-25708978D02*
X31063396Y-25728026D01*
X31063396Y-25728026D02*
X31082444Y-25737550D01*
X31082444Y-25737550D02*
X31101491Y-25737550D01*
X31244349Y-25728026D02*
X31225301Y-25737550D01*
X31225301Y-25737550D02*
X31187206Y-25737550D01*
X31187206Y-25737550D02*
X31168158Y-25728026D01*
X31168158Y-25728026D02*
X31158634Y-25708978D01*
X31158634Y-25708978D02*
X31158634Y-25632788D01*
X31158634Y-25632788D02*
X31168158Y-25613740D01*
X31168158Y-25613740D02*
X31187206Y-25604216D01*
X31187206Y-25604216D02*
X31225301Y-25604216D01*
X31225301Y-25604216D02*
X31244349Y-25613740D01*
X31244349Y-25613740D02*
X31253872Y-25632788D01*
X31253872Y-25632788D02*
X31253872Y-25651835D01*
X31253872Y-25651835D02*
X31158634Y-25670883D01*
X31425301Y-25737550D02*
X31425301Y-25537550D01*
X31425301Y-25728026D02*
X31406253Y-25737550D01*
X31406253Y-25737550D02*
X31368158Y-25737550D01*
X31368158Y-25737550D02*
X31349111Y-25728026D01*
X31349111Y-25728026D02*
X31339587Y-25718502D01*
X31339587Y-25718502D02*
X31330063Y-25699454D01*
X31330063Y-25699454D02*
X31330063Y-25642312D01*
X31330063Y-25642312D02*
X31339587Y-25623264D01*
X31339587Y-25623264D02*
X31349111Y-25613740D01*
X31349111Y-25613740D02*
X31368158Y-25604216D01*
X31368158Y-25604216D02*
X31406253Y-25604216D01*
X31406253Y-25604216D02*
X31425301Y-25613740D01*
X31501492Y-25813740D02*
X31511015Y-25804216D01*
X31511015Y-25804216D02*
X31530063Y-25775645D01*
X31530063Y-25775645D02*
X31539587Y-25756597D01*
X31539587Y-25756597D02*
X31549111Y-25728026D01*
X31549111Y-25728026D02*
X31558634Y-25680407D01*
X31558634Y-25680407D02*
X31558634Y-25642312D01*
X31558634Y-25642312D02*
X31549111Y-25594693D01*
X31549111Y-25594693D02*
X31539587Y-25566121D01*
X31539587Y-25566121D02*
X31530063Y-25547074D01*
X31530063Y-25547074D02*
X31511015Y-25518502D01*
X31511015Y-25518502D02*
X31501492Y-25508978D01*
X24555000Y-25941066D02*
G75*
G02*
X24355000Y-25941066I-100000J0D01*
G01*
X24355000Y-25941066D02*
G75*
G02*
X24555000Y-25941066I100000J0D01*
G01*
X24796729Y-25832550D02*
X24920539Y-25832550D01*
X24920539Y-25832550D02*
X24853872Y-25908740D01*
X24853872Y-25908740D02*
X24882443Y-25908740D01*
X24882443Y-25908740D02*
X24901491Y-25918264D01*
X24901491Y-25918264D02*
X24911015Y-25927788D01*
X24911015Y-25927788D02*
X24920539Y-25946835D01*
X24920539Y-25946835D02*
X24920539Y-25994454D01*
X24920539Y-25994454D02*
X24911015Y-26013502D01*
X24911015Y-26013502D02*
X24901491Y-26023026D01*
X24901491Y-26023026D02*
X24882443Y-26032550D01*
X24882443Y-26032550D02*
X24825300Y-26032550D01*
X24825300Y-26032550D02*
X24806253Y-26023026D01*
X24806253Y-26023026D02*
X24796729Y-26013502D01*
X25006253Y-26013502D02*
X25015777Y-26023026D01*
X25015777Y-26023026D02*
X25006253Y-26032550D01*
X25006253Y-26032550D02*
X24996729Y-26023026D01*
X24996729Y-26023026D02*
X25006253Y-26013502D01*
X25006253Y-26013502D02*
X25006253Y-26032550D01*
X25139586Y-25832550D02*
X25158634Y-25832550D01*
X25158634Y-25832550D02*
X25177681Y-25842074D01*
X25177681Y-25842074D02*
X25187205Y-25851597D01*
X25187205Y-25851597D02*
X25196729Y-25870645D01*
X25196729Y-25870645D02*
X25206253Y-25908740D01*
X25206253Y-25908740D02*
X25206253Y-25956359D01*
X25206253Y-25956359D02*
X25196729Y-25994454D01*
X25196729Y-25994454D02*
X25187205Y-26013502D01*
X25187205Y-26013502D02*
X25177681Y-26023026D01*
X25177681Y-26023026D02*
X25158634Y-26032550D01*
X25158634Y-26032550D02*
X25139586Y-26032550D01*
X25139586Y-26032550D02*
X25120539Y-26023026D01*
X25120539Y-26023026D02*
X25111015Y-26013502D01*
X25111015Y-26013502D02*
X25101491Y-25994454D01*
X25101491Y-25994454D02*
X25091967Y-25956359D01*
X25091967Y-25956359D02*
X25091967Y-25908740D01*
X25091967Y-25908740D02*
X25101491Y-25870645D01*
X25101491Y-25870645D02*
X25111015Y-25851597D01*
X25111015Y-25851597D02*
X25120539Y-25842074D01*
X25120539Y-25842074D02*
X25139586Y-25832550D01*
X25330062Y-25832550D02*
X25349110Y-25832550D01*
X25349110Y-25832550D02*
X25368158Y-25842074D01*
X25368158Y-25842074D02*
X25377681Y-25851597D01*
X25377681Y-25851597D02*
X25387205Y-25870645D01*
X25387205Y-25870645D02*
X25396729Y-25908740D01*
X25396729Y-25908740D02*
X25396729Y-25956359D01*
X25396729Y-25956359D02*
X25387205Y-25994454D01*
X25387205Y-25994454D02*
X25377681Y-26013502D01*
X25377681Y-26013502D02*
X25368158Y-26023026D01*
X25368158Y-26023026D02*
X25349110Y-26032550D01*
X25349110Y-26032550D02*
X25330062Y-26032550D01*
X25330062Y-26032550D02*
X25311015Y-26023026D01*
X25311015Y-26023026D02*
X25301491Y-26013502D01*
X25301491Y-26013502D02*
X25291967Y-25994454D01*
X25291967Y-25994454D02*
X25282443Y-25956359D01*
X25282443Y-25956359D02*
X25282443Y-25908740D01*
X25282443Y-25908740D02*
X25291967Y-25870645D01*
X25291967Y-25870645D02*
X25301491Y-25851597D01*
X25301491Y-25851597D02*
X25311015Y-25842074D01*
X25311015Y-25842074D02*
X25330062Y-25832550D01*
X25520539Y-25832550D02*
X25539586Y-25832550D01*
X25539586Y-25832550D02*
X25558634Y-25842074D01*
X25558634Y-25842074D02*
X25568158Y-25851597D01*
X25568158Y-25851597D02*
X25577681Y-25870645D01*
X25577681Y-25870645D02*
X25587205Y-25908740D01*
X25587205Y-25908740D02*
X25587205Y-25956359D01*
X25587205Y-25956359D02*
X25577681Y-25994454D01*
X25577681Y-25994454D02*
X25568158Y-26013502D01*
X25568158Y-26013502D02*
X25558634Y-26023026D01*
X25558634Y-26023026D02*
X25539586Y-26032550D01*
X25539586Y-26032550D02*
X25520539Y-26032550D01*
X25520539Y-26032550D02*
X25501491Y-26023026D01*
X25501491Y-26023026D02*
X25491967Y-26013502D01*
X25491967Y-26013502D02*
X25482443Y-25994454D01*
X25482443Y-25994454D02*
X25472920Y-25956359D01*
X25472920Y-25956359D02*
X25472920Y-25908740D01*
X25472920Y-25908740D02*
X25482443Y-25870645D01*
X25482443Y-25870645D02*
X25491967Y-25851597D01*
X25491967Y-25851597D02*
X25501491Y-25842074D01*
X25501491Y-25842074D02*
X25520539Y-25832550D01*
X25672920Y-26032550D02*
X25672920Y-25899216D01*
X25672920Y-25918264D02*
X25682443Y-25908740D01*
X25682443Y-25908740D02*
X25701491Y-25899216D01*
X25701491Y-25899216D02*
X25730062Y-25899216D01*
X25730062Y-25899216D02*
X25749110Y-25908740D01*
X25749110Y-25908740D02*
X25758634Y-25927788D01*
X25758634Y-25927788D02*
X25758634Y-26032550D01*
X25758634Y-25927788D02*
X25768158Y-25908740D01*
X25768158Y-25908740D02*
X25787205Y-25899216D01*
X25787205Y-25899216D02*
X25815777Y-25899216D01*
X25815777Y-25899216D02*
X25834824Y-25908740D01*
X25834824Y-25908740D02*
X25844348Y-25927788D01*
X25844348Y-25927788D02*
X25844348Y-26032550D01*
X25939586Y-26032550D02*
X25939586Y-25899216D01*
X25939586Y-25918264D02*
X25949110Y-25908740D01*
X25949110Y-25908740D02*
X25968158Y-25899216D01*
X25968158Y-25899216D02*
X25996729Y-25899216D01*
X25996729Y-25899216D02*
X26015777Y-25908740D01*
X26015777Y-25908740D02*
X26025301Y-25927788D01*
X26025301Y-25927788D02*
X26025301Y-26032550D01*
X26025301Y-25927788D02*
X26034824Y-25908740D01*
X26034824Y-25908740D02*
X26053872Y-25899216D01*
X26053872Y-25899216D02*
X26082443Y-25899216D01*
X26082443Y-25899216D02*
X26101491Y-25908740D01*
X26101491Y-25908740D02*
X26111015Y-25927788D01*
X26111015Y-25927788D02*
X26111015Y-26032550D01*
X26501491Y-25823026D02*
X26330063Y-26080169D01*
X26758634Y-25832550D02*
X26777682Y-25832550D01*
X26777682Y-25832550D02*
X26796729Y-25842074D01*
X26796729Y-25842074D02*
X26806253Y-25851597D01*
X26806253Y-25851597D02*
X26815777Y-25870645D01*
X26815777Y-25870645D02*
X26825301Y-25908740D01*
X26825301Y-25908740D02*
X26825301Y-25956359D01*
X26825301Y-25956359D02*
X26815777Y-25994454D01*
X26815777Y-25994454D02*
X26806253Y-26013502D01*
X26806253Y-26013502D02*
X26796729Y-26023026D01*
X26796729Y-26023026D02*
X26777682Y-26032550D01*
X26777682Y-26032550D02*
X26758634Y-26032550D01*
X26758634Y-26032550D02*
X26739586Y-26023026D01*
X26739586Y-26023026D02*
X26730063Y-26013502D01*
X26730063Y-26013502D02*
X26720539Y-25994454D01*
X26720539Y-25994454D02*
X26711015Y-25956359D01*
X26711015Y-25956359D02*
X26711015Y-25908740D01*
X26711015Y-25908740D02*
X26720539Y-25870645D01*
X26720539Y-25870645D02*
X26730063Y-25851597D01*
X26730063Y-25851597D02*
X26739586Y-25842074D01*
X26739586Y-25842074D02*
X26758634Y-25832550D01*
X26911015Y-26013502D02*
X26920539Y-26023026D01*
X26920539Y-26023026D02*
X26911015Y-26032550D01*
X26911015Y-26032550D02*
X26901491Y-26023026D01*
X26901491Y-26023026D02*
X26911015Y-26013502D01*
X26911015Y-26013502D02*
X26911015Y-26032550D01*
X27111015Y-26032550D02*
X26996729Y-26032550D01*
X27053872Y-26032550D02*
X27053872Y-25832550D01*
X27053872Y-25832550D02*
X27034824Y-25861121D01*
X27034824Y-25861121D02*
X27015777Y-25880169D01*
X27015777Y-25880169D02*
X26996729Y-25889693D01*
X27301491Y-26032550D02*
X27187205Y-26032550D01*
X27244348Y-26032550D02*
X27244348Y-25832550D01*
X27244348Y-25832550D02*
X27225301Y-25861121D01*
X27225301Y-25861121D02*
X27206253Y-25880169D01*
X27206253Y-25880169D02*
X27187205Y-25889693D01*
X27415777Y-25918264D02*
X27396729Y-25908740D01*
X27396729Y-25908740D02*
X27387205Y-25899216D01*
X27387205Y-25899216D02*
X27377682Y-25880169D01*
X27377682Y-25880169D02*
X27377682Y-25870645D01*
X27377682Y-25870645D02*
X27387205Y-25851597D01*
X27387205Y-25851597D02*
X27396729Y-25842074D01*
X27396729Y-25842074D02*
X27415777Y-25832550D01*
X27415777Y-25832550D02*
X27453872Y-25832550D01*
X27453872Y-25832550D02*
X27472920Y-25842074D01*
X27472920Y-25842074D02*
X27482444Y-25851597D01*
X27482444Y-25851597D02*
X27491967Y-25870645D01*
X27491967Y-25870645D02*
X27491967Y-25880169D01*
X27491967Y-25880169D02*
X27482444Y-25899216D01*
X27482444Y-25899216D02*
X27472920Y-25908740D01*
X27472920Y-25908740D02*
X27453872Y-25918264D01*
X27453872Y-25918264D02*
X27415777Y-25918264D01*
X27415777Y-25918264D02*
X27396729Y-25927788D01*
X27396729Y-25927788D02*
X27387205Y-25937312D01*
X27387205Y-25937312D02*
X27377682Y-25956359D01*
X27377682Y-25956359D02*
X27377682Y-25994454D01*
X27377682Y-25994454D02*
X27387205Y-26013502D01*
X27387205Y-26013502D02*
X27396729Y-26023026D01*
X27396729Y-26023026D02*
X27415777Y-26032550D01*
X27415777Y-26032550D02*
X27453872Y-26032550D01*
X27453872Y-26032550D02*
X27472920Y-26023026D01*
X27472920Y-26023026D02*
X27482444Y-26013502D01*
X27482444Y-26013502D02*
X27491967Y-25994454D01*
X27491967Y-25994454D02*
X27491967Y-25956359D01*
X27491967Y-25956359D02*
X27482444Y-25937312D01*
X27482444Y-25937312D02*
X27472920Y-25927788D01*
X27472920Y-25927788D02*
X27453872Y-25918264D01*
X27682444Y-26032550D02*
X27568158Y-26032550D01*
X27625301Y-26032550D02*
X27625301Y-25832550D01*
X27625301Y-25832550D02*
X27606253Y-25861121D01*
X27606253Y-25861121D02*
X27587205Y-25880169D01*
X27587205Y-25880169D02*
X27568158Y-25889693D01*
X27758634Y-25832550D02*
X27758634Y-25870645D01*
X27834825Y-25832550D02*
X27834825Y-25870645D01*
X28130063Y-26108740D02*
X28120539Y-26099216D01*
X28120539Y-26099216D02*
X28101491Y-26070645D01*
X28101491Y-26070645D02*
X28091967Y-26051597D01*
X28091967Y-26051597D02*
X28082444Y-26023026D01*
X28082444Y-26023026D02*
X28072920Y-25975407D01*
X28072920Y-25975407D02*
X28072920Y-25937312D01*
X28072920Y-25937312D02*
X28082444Y-25889693D01*
X28082444Y-25889693D02*
X28091967Y-25861121D01*
X28091967Y-25861121D02*
X28101491Y-25842074D01*
X28101491Y-25842074D02*
X28120539Y-25813502D01*
X28120539Y-25813502D02*
X28130063Y-25803978D01*
X28187206Y-25832550D02*
X28311015Y-25832550D01*
X28311015Y-25832550D02*
X28244348Y-25908740D01*
X28244348Y-25908740D02*
X28272920Y-25908740D01*
X28272920Y-25908740D02*
X28291967Y-25918264D01*
X28291967Y-25918264D02*
X28301491Y-25927788D01*
X28301491Y-25927788D02*
X28311015Y-25946835D01*
X28311015Y-25946835D02*
X28311015Y-25994454D01*
X28311015Y-25994454D02*
X28301491Y-26013502D01*
X28301491Y-26013502D02*
X28291967Y-26023026D01*
X28291967Y-26023026D02*
X28272920Y-26032550D01*
X28272920Y-26032550D02*
X28215777Y-26032550D01*
X28215777Y-26032550D02*
X28196729Y-26023026D01*
X28196729Y-26023026D02*
X28187206Y-26013502D01*
X28482444Y-25899216D02*
X28482444Y-26032550D01*
X28434825Y-25823026D02*
X28387206Y-25965883D01*
X28387206Y-25965883D02*
X28511015Y-25965883D01*
X28739587Y-26032550D02*
X28739587Y-25832550D01*
X28825301Y-26032550D02*
X28825301Y-25927788D01*
X28825301Y-25927788D02*
X28815777Y-25908740D01*
X28815777Y-25908740D02*
X28796729Y-25899216D01*
X28796729Y-25899216D02*
X28768158Y-25899216D01*
X28768158Y-25899216D02*
X28749110Y-25908740D01*
X28749110Y-25908740D02*
X28739587Y-25918264D01*
X28949110Y-26032550D02*
X28930063Y-26023026D01*
X28930063Y-26023026D02*
X28920539Y-26013502D01*
X28920539Y-26013502D02*
X28911015Y-25994454D01*
X28911015Y-25994454D02*
X28911015Y-25937312D01*
X28911015Y-25937312D02*
X28920539Y-25918264D01*
X28920539Y-25918264D02*
X28930063Y-25908740D01*
X28930063Y-25908740D02*
X28949110Y-25899216D01*
X28949110Y-25899216D02*
X28977682Y-25899216D01*
X28977682Y-25899216D02*
X28996729Y-25908740D01*
X28996729Y-25908740D02*
X29006253Y-25918264D01*
X29006253Y-25918264D02*
X29015777Y-25937312D01*
X29015777Y-25937312D02*
X29015777Y-25994454D01*
X29015777Y-25994454D02*
X29006253Y-26013502D01*
X29006253Y-26013502D02*
X28996729Y-26023026D01*
X28996729Y-26023026D02*
X28977682Y-26032550D01*
X28977682Y-26032550D02*
X28949110Y-26032550D01*
X29130063Y-26032550D02*
X29111015Y-26023026D01*
X29111015Y-26023026D02*
X29101491Y-26003978D01*
X29101491Y-26003978D02*
X29101491Y-25832550D01*
X29282444Y-26023026D02*
X29263396Y-26032550D01*
X29263396Y-26032550D02*
X29225301Y-26032550D01*
X29225301Y-26032550D02*
X29206253Y-26023026D01*
X29206253Y-26023026D02*
X29196729Y-26003978D01*
X29196729Y-26003978D02*
X29196729Y-25927788D01*
X29196729Y-25927788D02*
X29206253Y-25908740D01*
X29206253Y-25908740D02*
X29225301Y-25899216D01*
X29225301Y-25899216D02*
X29263396Y-25899216D01*
X29263396Y-25899216D02*
X29282444Y-25908740D01*
X29282444Y-25908740D02*
X29291968Y-25927788D01*
X29291968Y-25927788D02*
X29291968Y-25946835D01*
X29291968Y-25946835D02*
X29196729Y-25965883D01*
X29368158Y-26023026D02*
X29387206Y-26032550D01*
X29387206Y-26032550D02*
X29425301Y-26032550D01*
X29425301Y-26032550D02*
X29444349Y-26023026D01*
X29444349Y-26023026D02*
X29453872Y-26003978D01*
X29453872Y-26003978D02*
X29453872Y-25994454D01*
X29453872Y-25994454D02*
X29444349Y-25975407D01*
X29444349Y-25975407D02*
X29425301Y-25965883D01*
X29425301Y-25965883D02*
X29396729Y-25965883D01*
X29396729Y-25965883D02*
X29377682Y-25956359D01*
X29377682Y-25956359D02*
X29368158Y-25937312D01*
X29368158Y-25937312D02*
X29368158Y-25927788D01*
X29368158Y-25927788D02*
X29377682Y-25908740D01*
X29377682Y-25908740D02*
X29396729Y-25899216D01*
X29396729Y-25899216D02*
X29425301Y-25899216D01*
X29425301Y-25899216D02*
X29444349Y-25908740D01*
X29520539Y-26108740D02*
X29530063Y-26099216D01*
X29530063Y-26099216D02*
X29549110Y-26070645D01*
X29549110Y-26070645D02*
X29558634Y-26051597D01*
X29558634Y-26051597D02*
X29568158Y-26023026D01*
X29568158Y-26023026D02*
X29577682Y-25975407D01*
X29577682Y-25975407D02*
X29577682Y-25937312D01*
X29577682Y-25937312D02*
X29568158Y-25889693D01*
X29568158Y-25889693D02*
X29558634Y-25861121D01*
X29558634Y-25861121D02*
X29549110Y-25842074D01*
X29549110Y-25842074D02*
X29530063Y-25813502D01*
X29530063Y-25813502D02*
X29520539Y-25803978D01*
X29882444Y-26108740D02*
X29872920Y-26099216D01*
X29872920Y-26099216D02*
X29853872Y-26070645D01*
X29853872Y-26070645D02*
X29844349Y-26051597D01*
X29844349Y-26051597D02*
X29834825Y-26023026D01*
X29834825Y-26023026D02*
X29825301Y-25975407D01*
X29825301Y-25975407D02*
X29825301Y-25937312D01*
X29825301Y-25937312D02*
X29834825Y-25889693D01*
X29834825Y-25889693D02*
X29844349Y-25861121D01*
X29844349Y-25861121D02*
X29853872Y-25842074D01*
X29853872Y-25842074D02*
X29872920Y-25813502D01*
X29872920Y-25813502D02*
X29882444Y-25803978D01*
X29958634Y-25899216D02*
X29958634Y-26032550D01*
X29958634Y-25918264D02*
X29968158Y-25908740D01*
X29968158Y-25908740D02*
X29987206Y-25899216D01*
X29987206Y-25899216D02*
X30015777Y-25899216D01*
X30015777Y-25899216D02*
X30034825Y-25908740D01*
X30034825Y-25908740D02*
X30044349Y-25927788D01*
X30044349Y-25927788D02*
X30044349Y-26032550D01*
X30168158Y-26032550D02*
X30149110Y-26023026D01*
X30149110Y-26023026D02*
X30139587Y-26013502D01*
X30139587Y-26013502D02*
X30130063Y-25994454D01*
X30130063Y-25994454D02*
X30130063Y-25937312D01*
X30130063Y-25937312D02*
X30139587Y-25918264D01*
X30139587Y-25918264D02*
X30149110Y-25908740D01*
X30149110Y-25908740D02*
X30168158Y-25899216D01*
X30168158Y-25899216D02*
X30196730Y-25899216D01*
X30196730Y-25899216D02*
X30215777Y-25908740D01*
X30215777Y-25908740D02*
X30225301Y-25918264D01*
X30225301Y-25918264D02*
X30234825Y-25937312D01*
X30234825Y-25937312D02*
X30234825Y-25994454D01*
X30234825Y-25994454D02*
X30225301Y-26013502D01*
X30225301Y-26013502D02*
X30215777Y-26023026D01*
X30215777Y-26023026D02*
X30196730Y-26032550D01*
X30196730Y-26032550D02*
X30168158Y-26032550D01*
X30291968Y-25899216D02*
X30368158Y-25899216D01*
X30320539Y-25832550D02*
X30320539Y-26003978D01*
X30320539Y-26003978D02*
X30330063Y-26023026D01*
X30330063Y-26023026D02*
X30349110Y-26032550D01*
X30349110Y-26032550D02*
X30368158Y-26032550D01*
X30587206Y-25899216D02*
X30587206Y-26099216D01*
X30587206Y-25908740D02*
X30606253Y-25899216D01*
X30606253Y-25899216D02*
X30644349Y-25899216D01*
X30644349Y-25899216D02*
X30663396Y-25908740D01*
X30663396Y-25908740D02*
X30672920Y-25918264D01*
X30672920Y-25918264D02*
X30682444Y-25937312D01*
X30682444Y-25937312D02*
X30682444Y-25994454D01*
X30682444Y-25994454D02*
X30672920Y-26013502D01*
X30672920Y-26013502D02*
X30663396Y-26023026D01*
X30663396Y-26023026D02*
X30644349Y-26032550D01*
X30644349Y-26032550D02*
X30606253Y-26032550D01*
X30606253Y-26032550D02*
X30587206Y-26023026D01*
X30796730Y-26032550D02*
X30777682Y-26023026D01*
X30777682Y-26023026D02*
X30768158Y-26003978D01*
X30768158Y-26003978D02*
X30768158Y-25832550D01*
X30958634Y-26032550D02*
X30958634Y-25927788D01*
X30958634Y-25927788D02*
X30949111Y-25908740D01*
X30949111Y-25908740D02*
X30930063Y-25899216D01*
X30930063Y-25899216D02*
X30891968Y-25899216D01*
X30891968Y-25899216D02*
X30872920Y-25908740D01*
X30958634Y-26023026D02*
X30939587Y-26032550D01*
X30939587Y-26032550D02*
X30891968Y-26032550D01*
X30891968Y-26032550D02*
X30872920Y-26023026D01*
X30872920Y-26023026D02*
X30863396Y-26003978D01*
X30863396Y-26003978D02*
X30863396Y-25984931D01*
X30863396Y-25984931D02*
X30872920Y-25965883D01*
X30872920Y-25965883D02*
X30891968Y-25956359D01*
X30891968Y-25956359D02*
X30939587Y-25956359D01*
X30939587Y-25956359D02*
X30958634Y-25946835D01*
X31025301Y-25899216D02*
X31101491Y-25899216D01*
X31053872Y-25832550D02*
X31053872Y-26003978D01*
X31053872Y-26003978D02*
X31063396Y-26023026D01*
X31063396Y-26023026D02*
X31082444Y-26032550D01*
X31082444Y-26032550D02*
X31101491Y-26032550D01*
X31244349Y-26023026D02*
X31225301Y-26032550D01*
X31225301Y-26032550D02*
X31187206Y-26032550D01*
X31187206Y-26032550D02*
X31168158Y-26023026D01*
X31168158Y-26023026D02*
X31158634Y-26003978D01*
X31158634Y-26003978D02*
X31158634Y-25927788D01*
X31158634Y-25927788D02*
X31168158Y-25908740D01*
X31168158Y-25908740D02*
X31187206Y-25899216D01*
X31187206Y-25899216D02*
X31225301Y-25899216D01*
X31225301Y-25899216D02*
X31244349Y-25908740D01*
X31244349Y-25908740D02*
X31253872Y-25927788D01*
X31253872Y-25927788D02*
X31253872Y-25946835D01*
X31253872Y-25946835D02*
X31158634Y-25965883D01*
X31425301Y-26032550D02*
X31425301Y-25832550D01*
X31425301Y-26023026D02*
X31406253Y-26032550D01*
X31406253Y-26032550D02*
X31368158Y-26032550D01*
X31368158Y-26032550D02*
X31349111Y-26023026D01*
X31349111Y-26023026D02*
X31339587Y-26013502D01*
X31339587Y-26013502D02*
X31330063Y-25994454D01*
X31330063Y-25994454D02*
X31330063Y-25937312D01*
X31330063Y-25937312D02*
X31339587Y-25918264D01*
X31339587Y-25918264D02*
X31349111Y-25908740D01*
X31349111Y-25908740D02*
X31368158Y-25899216D01*
X31368158Y-25899216D02*
X31406253Y-25899216D01*
X31406253Y-25899216D02*
X31425301Y-25908740D01*
X31501492Y-26108740D02*
X31511015Y-26099216D01*
X31511015Y-26099216D02*
X31530063Y-26070645D01*
X31530063Y-26070645D02*
X31539587Y-26051597D01*
X31539587Y-26051597D02*
X31549111Y-26023026D01*
X31549111Y-26023026D02*
X31558634Y-25975407D01*
X31558634Y-25975407D02*
X31558634Y-25937312D01*
X31558634Y-25937312D02*
X31549111Y-25889693D01*
X31549111Y-25889693D02*
X31539587Y-25861121D01*
X31539587Y-25861121D02*
X31530063Y-25842074D01*
X31530063Y-25842074D02*
X31511015Y-25813502D01*
X31511015Y-25813502D02*
X31501492Y-25803978D01*
X24455000Y-26161066D02*
X24455000Y-26361066D01*
X24355000Y-26261066D02*
X24555000Y-26261066D01*
X24796729Y-26152550D02*
X24920539Y-26152550D01*
X24920539Y-26152550D02*
X24853872Y-26228740D01*
X24853872Y-26228740D02*
X24882443Y-26228740D01*
X24882443Y-26228740D02*
X24901491Y-26238264D01*
X24901491Y-26238264D02*
X24911015Y-26247788D01*
X24911015Y-26247788D02*
X24920539Y-26266835D01*
X24920539Y-26266835D02*
X24920539Y-26314454D01*
X24920539Y-26314454D02*
X24911015Y-26333502D01*
X24911015Y-26333502D02*
X24901491Y-26343026D01*
X24901491Y-26343026D02*
X24882443Y-26352550D01*
X24882443Y-26352550D02*
X24825300Y-26352550D01*
X24825300Y-26352550D02*
X24806253Y-26343026D01*
X24806253Y-26343026D02*
X24796729Y-26333502D01*
X25006253Y-26333502D02*
X25015777Y-26343026D01*
X25015777Y-26343026D02*
X25006253Y-26352550D01*
X25006253Y-26352550D02*
X24996729Y-26343026D01*
X24996729Y-26343026D02*
X25006253Y-26333502D01*
X25006253Y-26333502D02*
X25006253Y-26352550D01*
X25139586Y-26152550D02*
X25158634Y-26152550D01*
X25158634Y-26152550D02*
X25177681Y-26162074D01*
X25177681Y-26162074D02*
X25187205Y-26171597D01*
X25187205Y-26171597D02*
X25196729Y-26190645D01*
X25196729Y-26190645D02*
X25206253Y-26228740D01*
X25206253Y-26228740D02*
X25206253Y-26276359D01*
X25206253Y-26276359D02*
X25196729Y-26314454D01*
X25196729Y-26314454D02*
X25187205Y-26333502D01*
X25187205Y-26333502D02*
X25177681Y-26343026D01*
X25177681Y-26343026D02*
X25158634Y-26352550D01*
X25158634Y-26352550D02*
X25139586Y-26352550D01*
X25139586Y-26352550D02*
X25120539Y-26343026D01*
X25120539Y-26343026D02*
X25111015Y-26333502D01*
X25111015Y-26333502D02*
X25101491Y-26314454D01*
X25101491Y-26314454D02*
X25091967Y-26276359D01*
X25091967Y-26276359D02*
X25091967Y-26228740D01*
X25091967Y-26228740D02*
X25101491Y-26190645D01*
X25101491Y-26190645D02*
X25111015Y-26171597D01*
X25111015Y-26171597D02*
X25120539Y-26162074D01*
X25120539Y-26162074D02*
X25139586Y-26152550D01*
X25377681Y-26219216D02*
X25377681Y-26352550D01*
X25330062Y-26143026D02*
X25282443Y-26285883D01*
X25282443Y-26285883D02*
X25406253Y-26285883D01*
X25511015Y-26238264D02*
X25491967Y-26228740D01*
X25491967Y-26228740D02*
X25482443Y-26219216D01*
X25482443Y-26219216D02*
X25472920Y-26200169D01*
X25472920Y-26200169D02*
X25472920Y-26190645D01*
X25472920Y-26190645D02*
X25482443Y-26171597D01*
X25482443Y-26171597D02*
X25491967Y-26162074D01*
X25491967Y-26162074D02*
X25511015Y-26152550D01*
X25511015Y-26152550D02*
X25549110Y-26152550D01*
X25549110Y-26152550D02*
X25568158Y-26162074D01*
X25568158Y-26162074D02*
X25577681Y-26171597D01*
X25577681Y-26171597D02*
X25587205Y-26190645D01*
X25587205Y-26190645D02*
X25587205Y-26200169D01*
X25587205Y-26200169D02*
X25577681Y-26219216D01*
X25577681Y-26219216D02*
X25568158Y-26228740D01*
X25568158Y-26228740D02*
X25549110Y-26238264D01*
X25549110Y-26238264D02*
X25511015Y-26238264D01*
X25511015Y-26238264D02*
X25491967Y-26247788D01*
X25491967Y-26247788D02*
X25482443Y-26257312D01*
X25482443Y-26257312D02*
X25472920Y-26276359D01*
X25472920Y-26276359D02*
X25472920Y-26314454D01*
X25472920Y-26314454D02*
X25482443Y-26333502D01*
X25482443Y-26333502D02*
X25491967Y-26343026D01*
X25491967Y-26343026D02*
X25511015Y-26352550D01*
X25511015Y-26352550D02*
X25549110Y-26352550D01*
X25549110Y-26352550D02*
X25568158Y-26343026D01*
X25568158Y-26343026D02*
X25577681Y-26333502D01*
X25577681Y-26333502D02*
X25587205Y-26314454D01*
X25587205Y-26314454D02*
X25587205Y-26276359D01*
X25587205Y-26276359D02*
X25577681Y-26257312D01*
X25577681Y-26257312D02*
X25568158Y-26247788D01*
X25568158Y-26247788D02*
X25549110Y-26238264D01*
X25672920Y-26352550D02*
X25672920Y-26219216D01*
X25672920Y-26238264D02*
X25682443Y-26228740D01*
X25682443Y-26228740D02*
X25701491Y-26219216D01*
X25701491Y-26219216D02*
X25730062Y-26219216D01*
X25730062Y-26219216D02*
X25749110Y-26228740D01*
X25749110Y-26228740D02*
X25758634Y-26247788D01*
X25758634Y-26247788D02*
X25758634Y-26352550D01*
X25758634Y-26247788D02*
X25768158Y-26228740D01*
X25768158Y-26228740D02*
X25787205Y-26219216D01*
X25787205Y-26219216D02*
X25815777Y-26219216D01*
X25815777Y-26219216D02*
X25834824Y-26228740D01*
X25834824Y-26228740D02*
X25844348Y-26247788D01*
X25844348Y-26247788D02*
X25844348Y-26352550D01*
X25939586Y-26352550D02*
X25939586Y-26219216D01*
X25939586Y-26238264D02*
X25949110Y-26228740D01*
X25949110Y-26228740D02*
X25968158Y-26219216D01*
X25968158Y-26219216D02*
X25996729Y-26219216D01*
X25996729Y-26219216D02*
X26015777Y-26228740D01*
X26015777Y-26228740D02*
X26025301Y-26247788D01*
X26025301Y-26247788D02*
X26025301Y-26352550D01*
X26025301Y-26247788D02*
X26034824Y-26228740D01*
X26034824Y-26228740D02*
X26053872Y-26219216D01*
X26053872Y-26219216D02*
X26082443Y-26219216D01*
X26082443Y-26219216D02*
X26101491Y-26228740D01*
X26101491Y-26228740D02*
X26111015Y-26247788D01*
X26111015Y-26247788D02*
X26111015Y-26352550D01*
X26501491Y-26143026D02*
X26330063Y-26400169D01*
X26758634Y-26152550D02*
X26777682Y-26152550D01*
X26777682Y-26152550D02*
X26796729Y-26162074D01*
X26796729Y-26162074D02*
X26806253Y-26171597D01*
X26806253Y-26171597D02*
X26815777Y-26190645D01*
X26815777Y-26190645D02*
X26825301Y-26228740D01*
X26825301Y-26228740D02*
X26825301Y-26276359D01*
X26825301Y-26276359D02*
X26815777Y-26314454D01*
X26815777Y-26314454D02*
X26806253Y-26333502D01*
X26806253Y-26333502D02*
X26796729Y-26343026D01*
X26796729Y-26343026D02*
X26777682Y-26352550D01*
X26777682Y-26352550D02*
X26758634Y-26352550D01*
X26758634Y-26352550D02*
X26739586Y-26343026D01*
X26739586Y-26343026D02*
X26730063Y-26333502D01*
X26730063Y-26333502D02*
X26720539Y-26314454D01*
X26720539Y-26314454D02*
X26711015Y-26276359D01*
X26711015Y-26276359D02*
X26711015Y-26228740D01*
X26711015Y-26228740D02*
X26720539Y-26190645D01*
X26720539Y-26190645D02*
X26730063Y-26171597D01*
X26730063Y-26171597D02*
X26739586Y-26162074D01*
X26739586Y-26162074D02*
X26758634Y-26152550D01*
X26911015Y-26333502D02*
X26920539Y-26343026D01*
X26920539Y-26343026D02*
X26911015Y-26352550D01*
X26911015Y-26352550D02*
X26901491Y-26343026D01*
X26901491Y-26343026D02*
X26911015Y-26333502D01*
X26911015Y-26333502D02*
X26911015Y-26352550D01*
X27111015Y-26352550D02*
X26996729Y-26352550D01*
X27053872Y-26352550D02*
X27053872Y-26152550D01*
X27053872Y-26152550D02*
X27034824Y-26181121D01*
X27034824Y-26181121D02*
X27015777Y-26200169D01*
X27015777Y-26200169D02*
X26996729Y-26209693D01*
X27187205Y-26171597D02*
X27196729Y-26162074D01*
X27196729Y-26162074D02*
X27215777Y-26152550D01*
X27215777Y-26152550D02*
X27263396Y-26152550D01*
X27263396Y-26152550D02*
X27282444Y-26162074D01*
X27282444Y-26162074D02*
X27291967Y-26171597D01*
X27291967Y-26171597D02*
X27301491Y-26190645D01*
X27301491Y-26190645D02*
X27301491Y-26209693D01*
X27301491Y-26209693D02*
X27291967Y-26238264D01*
X27291967Y-26238264D02*
X27177682Y-26352550D01*
X27177682Y-26352550D02*
X27301491Y-26352550D01*
X27425301Y-26152550D02*
X27444348Y-26152550D01*
X27444348Y-26152550D02*
X27463396Y-26162074D01*
X27463396Y-26162074D02*
X27472920Y-26171597D01*
X27472920Y-26171597D02*
X27482444Y-26190645D01*
X27482444Y-26190645D02*
X27491967Y-26228740D01*
X27491967Y-26228740D02*
X27491967Y-26276359D01*
X27491967Y-26276359D02*
X27482444Y-26314454D01*
X27482444Y-26314454D02*
X27472920Y-26333502D01*
X27472920Y-26333502D02*
X27463396Y-26343026D01*
X27463396Y-26343026D02*
X27444348Y-26352550D01*
X27444348Y-26352550D02*
X27425301Y-26352550D01*
X27425301Y-26352550D02*
X27406253Y-26343026D01*
X27406253Y-26343026D02*
X27396729Y-26333502D01*
X27396729Y-26333502D02*
X27387205Y-26314454D01*
X27387205Y-26314454D02*
X27377682Y-26276359D01*
X27377682Y-26276359D02*
X27377682Y-26228740D01*
X27377682Y-26228740D02*
X27387205Y-26190645D01*
X27387205Y-26190645D02*
X27396729Y-26171597D01*
X27396729Y-26171597D02*
X27406253Y-26162074D01*
X27406253Y-26162074D02*
X27425301Y-26152550D01*
X27615777Y-26152550D02*
X27634825Y-26152550D01*
X27634825Y-26152550D02*
X27653872Y-26162074D01*
X27653872Y-26162074D02*
X27663396Y-26171597D01*
X27663396Y-26171597D02*
X27672920Y-26190645D01*
X27672920Y-26190645D02*
X27682444Y-26228740D01*
X27682444Y-26228740D02*
X27682444Y-26276359D01*
X27682444Y-26276359D02*
X27672920Y-26314454D01*
X27672920Y-26314454D02*
X27663396Y-26333502D01*
X27663396Y-26333502D02*
X27653872Y-26343026D01*
X27653872Y-26343026D02*
X27634825Y-26352550D01*
X27634825Y-26352550D02*
X27615777Y-26352550D01*
X27615777Y-26352550D02*
X27596729Y-26343026D01*
X27596729Y-26343026D02*
X27587205Y-26333502D01*
X27587205Y-26333502D02*
X27577682Y-26314454D01*
X27577682Y-26314454D02*
X27568158Y-26276359D01*
X27568158Y-26276359D02*
X27568158Y-26228740D01*
X27568158Y-26228740D02*
X27577682Y-26190645D01*
X27577682Y-26190645D02*
X27587205Y-26171597D01*
X27587205Y-26171597D02*
X27596729Y-26162074D01*
X27596729Y-26162074D02*
X27615777Y-26152550D01*
X27758634Y-26152550D02*
X27758634Y-26190645D01*
X27834825Y-26152550D02*
X27834825Y-26190645D01*
X28130063Y-26428740D02*
X28120539Y-26419216D01*
X28120539Y-26419216D02*
X28101491Y-26390645D01*
X28101491Y-26390645D02*
X28091967Y-26371597D01*
X28091967Y-26371597D02*
X28082444Y-26343026D01*
X28082444Y-26343026D02*
X28072920Y-26295407D01*
X28072920Y-26295407D02*
X28072920Y-26257312D01*
X28072920Y-26257312D02*
X28082444Y-26209693D01*
X28082444Y-26209693D02*
X28091967Y-26181121D01*
X28091967Y-26181121D02*
X28101491Y-26162074D01*
X28101491Y-26162074D02*
X28120539Y-26133502D01*
X28120539Y-26133502D02*
X28130063Y-26123978D01*
X28291967Y-26152550D02*
X28253872Y-26152550D01*
X28253872Y-26152550D02*
X28234825Y-26162074D01*
X28234825Y-26162074D02*
X28225301Y-26171597D01*
X28225301Y-26171597D02*
X28206253Y-26200169D01*
X28206253Y-26200169D02*
X28196729Y-26238264D01*
X28196729Y-26238264D02*
X28196729Y-26314454D01*
X28196729Y-26314454D02*
X28206253Y-26333502D01*
X28206253Y-26333502D02*
X28215777Y-26343026D01*
X28215777Y-26343026D02*
X28234825Y-26352550D01*
X28234825Y-26352550D02*
X28272920Y-26352550D01*
X28272920Y-26352550D02*
X28291967Y-26343026D01*
X28291967Y-26343026D02*
X28301491Y-26333502D01*
X28301491Y-26333502D02*
X28311015Y-26314454D01*
X28311015Y-26314454D02*
X28311015Y-26266835D01*
X28311015Y-26266835D02*
X28301491Y-26247788D01*
X28301491Y-26247788D02*
X28291967Y-26238264D01*
X28291967Y-26238264D02*
X28272920Y-26228740D01*
X28272920Y-26228740D02*
X28234825Y-26228740D01*
X28234825Y-26228740D02*
X28215777Y-26238264D01*
X28215777Y-26238264D02*
X28206253Y-26247788D01*
X28206253Y-26247788D02*
X28196729Y-26266835D01*
X28549110Y-26352550D02*
X28549110Y-26152550D01*
X28634825Y-26352550D02*
X28634825Y-26247788D01*
X28634825Y-26247788D02*
X28625301Y-26228740D01*
X28625301Y-26228740D02*
X28606253Y-26219216D01*
X28606253Y-26219216D02*
X28577682Y-26219216D01*
X28577682Y-26219216D02*
X28558634Y-26228740D01*
X28558634Y-26228740D02*
X28549110Y-26238264D01*
X28758634Y-26352550D02*
X28739587Y-26343026D01*
X28739587Y-26343026D02*
X28730063Y-26333502D01*
X28730063Y-26333502D02*
X28720539Y-26314454D01*
X28720539Y-26314454D02*
X28720539Y-26257312D01*
X28720539Y-26257312D02*
X28730063Y-26238264D01*
X28730063Y-26238264D02*
X28739587Y-26228740D01*
X28739587Y-26228740D02*
X28758634Y-26219216D01*
X28758634Y-26219216D02*
X28787206Y-26219216D01*
X28787206Y-26219216D02*
X28806253Y-26228740D01*
X28806253Y-26228740D02*
X28815777Y-26238264D01*
X28815777Y-26238264D02*
X28825301Y-26257312D01*
X28825301Y-26257312D02*
X28825301Y-26314454D01*
X28825301Y-26314454D02*
X28815777Y-26333502D01*
X28815777Y-26333502D02*
X28806253Y-26343026D01*
X28806253Y-26343026D02*
X28787206Y-26352550D01*
X28787206Y-26352550D02*
X28758634Y-26352550D01*
X28939587Y-26352550D02*
X28920539Y-26343026D01*
X28920539Y-26343026D02*
X28911015Y-26323978D01*
X28911015Y-26323978D02*
X28911015Y-26152550D01*
X29091968Y-26343026D02*
X29072920Y-26352550D01*
X29072920Y-26352550D02*
X29034825Y-26352550D01*
X29034825Y-26352550D02*
X29015777Y-26343026D01*
X29015777Y-26343026D02*
X29006253Y-26323978D01*
X29006253Y-26323978D02*
X29006253Y-26247788D01*
X29006253Y-26247788D02*
X29015777Y-26228740D01*
X29015777Y-26228740D02*
X29034825Y-26219216D01*
X29034825Y-26219216D02*
X29072920Y-26219216D01*
X29072920Y-26219216D02*
X29091968Y-26228740D01*
X29091968Y-26228740D02*
X29101491Y-26247788D01*
X29101491Y-26247788D02*
X29101491Y-26266835D01*
X29101491Y-26266835D02*
X29006253Y-26285883D01*
X29177682Y-26343026D02*
X29196729Y-26352550D01*
X29196729Y-26352550D02*
X29234825Y-26352550D01*
X29234825Y-26352550D02*
X29253872Y-26343026D01*
X29253872Y-26343026D02*
X29263396Y-26323978D01*
X29263396Y-26323978D02*
X29263396Y-26314454D01*
X29263396Y-26314454D02*
X29253872Y-26295407D01*
X29253872Y-26295407D02*
X29234825Y-26285883D01*
X29234825Y-26285883D02*
X29206253Y-26285883D01*
X29206253Y-26285883D02*
X29187206Y-26276359D01*
X29187206Y-26276359D02*
X29177682Y-26257312D01*
X29177682Y-26257312D02*
X29177682Y-26247788D01*
X29177682Y-26247788D02*
X29187206Y-26228740D01*
X29187206Y-26228740D02*
X29206253Y-26219216D01*
X29206253Y-26219216D02*
X29234825Y-26219216D01*
X29234825Y-26219216D02*
X29253872Y-26228740D01*
X29330063Y-26428740D02*
X29339587Y-26419216D01*
X29339587Y-26419216D02*
X29358634Y-26390645D01*
X29358634Y-26390645D02*
X29368158Y-26371597D01*
X29368158Y-26371597D02*
X29377682Y-26343026D01*
X29377682Y-26343026D02*
X29387206Y-26295407D01*
X29387206Y-26295407D02*
X29387206Y-26257312D01*
X29387206Y-26257312D02*
X29377682Y-26209693D01*
X29377682Y-26209693D02*
X29368158Y-26181121D01*
X29368158Y-26181121D02*
X29358634Y-26162074D01*
X29358634Y-26162074D02*
X29339587Y-26133502D01*
X29339587Y-26133502D02*
X29330063Y-26123978D01*
X29691968Y-26428740D02*
X29682444Y-26419216D01*
X29682444Y-26419216D02*
X29663396Y-26390645D01*
X29663396Y-26390645D02*
X29653872Y-26371597D01*
X29653872Y-26371597D02*
X29644349Y-26343026D01*
X29644349Y-26343026D02*
X29634825Y-26295407D01*
X29634825Y-26295407D02*
X29634825Y-26257312D01*
X29634825Y-26257312D02*
X29644349Y-26209693D01*
X29644349Y-26209693D02*
X29653872Y-26181121D01*
X29653872Y-26181121D02*
X29663396Y-26162074D01*
X29663396Y-26162074D02*
X29682444Y-26133502D01*
X29682444Y-26133502D02*
X29691968Y-26123978D01*
X29768158Y-26219216D02*
X29768158Y-26352550D01*
X29768158Y-26238264D02*
X29777682Y-26228740D01*
X29777682Y-26228740D02*
X29796729Y-26219216D01*
X29796729Y-26219216D02*
X29825301Y-26219216D01*
X29825301Y-26219216D02*
X29844349Y-26228740D01*
X29844349Y-26228740D02*
X29853872Y-26247788D01*
X29853872Y-26247788D02*
X29853872Y-26352550D01*
X29977682Y-26352550D02*
X29958634Y-26343026D01*
X29958634Y-26343026D02*
X29949110Y-26333502D01*
X29949110Y-26333502D02*
X29939587Y-26314454D01*
X29939587Y-26314454D02*
X29939587Y-26257312D01*
X29939587Y-26257312D02*
X29949110Y-26238264D01*
X29949110Y-26238264D02*
X29958634Y-26228740D01*
X29958634Y-26228740D02*
X29977682Y-26219216D01*
X29977682Y-26219216D02*
X30006253Y-26219216D01*
X30006253Y-26219216D02*
X30025301Y-26228740D01*
X30025301Y-26228740D02*
X30034825Y-26238264D01*
X30034825Y-26238264D02*
X30044349Y-26257312D01*
X30044349Y-26257312D02*
X30044349Y-26314454D01*
X30044349Y-26314454D02*
X30034825Y-26333502D01*
X30034825Y-26333502D02*
X30025301Y-26343026D01*
X30025301Y-26343026D02*
X30006253Y-26352550D01*
X30006253Y-26352550D02*
X29977682Y-26352550D01*
X30101491Y-26219216D02*
X30177682Y-26219216D01*
X30130063Y-26152550D02*
X30130063Y-26323978D01*
X30130063Y-26323978D02*
X30139587Y-26343026D01*
X30139587Y-26343026D02*
X30158634Y-26352550D01*
X30158634Y-26352550D02*
X30177682Y-26352550D01*
X30396730Y-26219216D02*
X30396730Y-26419216D01*
X30396730Y-26228740D02*
X30415777Y-26219216D01*
X30415777Y-26219216D02*
X30453872Y-26219216D01*
X30453872Y-26219216D02*
X30472920Y-26228740D01*
X30472920Y-26228740D02*
X30482444Y-26238264D01*
X30482444Y-26238264D02*
X30491968Y-26257312D01*
X30491968Y-26257312D02*
X30491968Y-26314454D01*
X30491968Y-26314454D02*
X30482444Y-26333502D01*
X30482444Y-26333502D02*
X30472920Y-26343026D01*
X30472920Y-26343026D02*
X30453872Y-26352550D01*
X30453872Y-26352550D02*
X30415777Y-26352550D01*
X30415777Y-26352550D02*
X30396730Y-26343026D01*
X30606253Y-26352550D02*
X30587206Y-26343026D01*
X30587206Y-26343026D02*
X30577682Y-26323978D01*
X30577682Y-26323978D02*
X30577682Y-26152550D01*
X30768158Y-26352550D02*
X30768158Y-26247788D01*
X30768158Y-26247788D02*
X30758634Y-26228740D01*
X30758634Y-26228740D02*
X30739587Y-26219216D01*
X30739587Y-26219216D02*
X30701491Y-26219216D01*
X30701491Y-26219216D02*
X30682444Y-26228740D01*
X30768158Y-26343026D02*
X30749111Y-26352550D01*
X30749111Y-26352550D02*
X30701491Y-26352550D01*
X30701491Y-26352550D02*
X30682444Y-26343026D01*
X30682444Y-26343026D02*
X30672920Y-26323978D01*
X30672920Y-26323978D02*
X30672920Y-26304931D01*
X30672920Y-26304931D02*
X30682444Y-26285883D01*
X30682444Y-26285883D02*
X30701491Y-26276359D01*
X30701491Y-26276359D02*
X30749111Y-26276359D01*
X30749111Y-26276359D02*
X30768158Y-26266835D01*
X30834825Y-26219216D02*
X30911015Y-26219216D01*
X30863396Y-26152550D02*
X30863396Y-26323978D01*
X30863396Y-26323978D02*
X30872920Y-26343026D01*
X30872920Y-26343026D02*
X30891968Y-26352550D01*
X30891968Y-26352550D02*
X30911015Y-26352550D01*
X31053872Y-26343026D02*
X31034825Y-26352550D01*
X31034825Y-26352550D02*
X30996730Y-26352550D01*
X30996730Y-26352550D02*
X30977682Y-26343026D01*
X30977682Y-26343026D02*
X30968158Y-26323978D01*
X30968158Y-26323978D02*
X30968158Y-26247788D01*
X30968158Y-26247788D02*
X30977682Y-26228740D01*
X30977682Y-26228740D02*
X30996730Y-26219216D01*
X30996730Y-26219216D02*
X31034825Y-26219216D01*
X31034825Y-26219216D02*
X31053872Y-26228740D01*
X31053872Y-26228740D02*
X31063396Y-26247788D01*
X31063396Y-26247788D02*
X31063396Y-26266835D01*
X31063396Y-26266835D02*
X30968158Y-26285883D01*
X31234825Y-26352550D02*
X31234825Y-26152550D01*
X31234825Y-26343026D02*
X31215777Y-26352550D01*
X31215777Y-26352550D02*
X31177682Y-26352550D01*
X31177682Y-26352550D02*
X31158634Y-26343026D01*
X31158634Y-26343026D02*
X31149111Y-26333502D01*
X31149111Y-26333502D02*
X31139587Y-26314454D01*
X31139587Y-26314454D02*
X31139587Y-26257312D01*
X31139587Y-26257312D02*
X31149111Y-26238264D01*
X31149111Y-26238264D02*
X31158634Y-26228740D01*
X31158634Y-26228740D02*
X31177682Y-26219216D01*
X31177682Y-26219216D02*
X31215777Y-26219216D01*
X31215777Y-26219216D02*
X31234825Y-26228740D01*
X31311015Y-26428740D02*
X31320539Y-26419216D01*
X31320539Y-26419216D02*
X31339587Y-26390645D01*
X31339587Y-26390645D02*
X31349111Y-26371597D01*
X31349111Y-26371597D02*
X31358634Y-26343026D01*
X31358634Y-26343026D02*
X31368158Y-26295407D01*
X31368158Y-26295407D02*
X31368158Y-26257312D01*
X31368158Y-26257312D02*
X31358634Y-26209693D01*
X31358634Y-26209693D02*
X31349111Y-26181121D01*
X31349111Y-26181121D02*
X31339587Y-26162074D01*
X31339587Y-26162074D02*
X31320539Y-26133502D01*
X31320539Y-26133502D02*
X31311015Y-26123978D01*
X24525711Y-26651777D02*
X24525711Y-26510355D01*
X24384288Y-26510355D01*
X24384288Y-26651777D01*
X24525711Y-26651777D01*
X24796729Y-26472550D02*
X24920539Y-26472550D01*
X24920539Y-26472550D02*
X24853872Y-26548740D01*
X24853872Y-26548740D02*
X24882443Y-26548740D01*
X24882443Y-26548740D02*
X24901491Y-26558264D01*
X24901491Y-26558264D02*
X24911015Y-26567788D01*
X24911015Y-26567788D02*
X24920539Y-26586835D01*
X24920539Y-26586835D02*
X24920539Y-26634454D01*
X24920539Y-26634454D02*
X24911015Y-26653502D01*
X24911015Y-26653502D02*
X24901491Y-26663026D01*
X24901491Y-26663026D02*
X24882443Y-26672550D01*
X24882443Y-26672550D02*
X24825300Y-26672550D01*
X24825300Y-26672550D02*
X24806253Y-26663026D01*
X24806253Y-26663026D02*
X24796729Y-26653502D01*
X25006253Y-26653502D02*
X25015777Y-26663026D01*
X25015777Y-26663026D02*
X25006253Y-26672550D01*
X25006253Y-26672550D02*
X24996729Y-26663026D01*
X24996729Y-26663026D02*
X25006253Y-26653502D01*
X25006253Y-26653502D02*
X25006253Y-26672550D01*
X25111015Y-26672550D02*
X25149110Y-26672550D01*
X25149110Y-26672550D02*
X25168158Y-26663026D01*
X25168158Y-26663026D02*
X25177681Y-26653502D01*
X25177681Y-26653502D02*
X25196729Y-26624931D01*
X25196729Y-26624931D02*
X25206253Y-26586835D01*
X25206253Y-26586835D02*
X25206253Y-26510645D01*
X25206253Y-26510645D02*
X25196729Y-26491597D01*
X25196729Y-26491597D02*
X25187205Y-26482074D01*
X25187205Y-26482074D02*
X25168158Y-26472550D01*
X25168158Y-26472550D02*
X25130062Y-26472550D01*
X25130062Y-26472550D02*
X25111015Y-26482074D01*
X25111015Y-26482074D02*
X25101491Y-26491597D01*
X25101491Y-26491597D02*
X25091967Y-26510645D01*
X25091967Y-26510645D02*
X25091967Y-26558264D01*
X25091967Y-26558264D02*
X25101491Y-26577312D01*
X25101491Y-26577312D02*
X25111015Y-26586835D01*
X25111015Y-26586835D02*
X25130062Y-26596359D01*
X25130062Y-26596359D02*
X25168158Y-26596359D01*
X25168158Y-26596359D02*
X25187205Y-26586835D01*
X25187205Y-26586835D02*
X25196729Y-26577312D01*
X25196729Y-26577312D02*
X25206253Y-26558264D01*
X25320539Y-26558264D02*
X25301491Y-26548740D01*
X25301491Y-26548740D02*
X25291967Y-26539216D01*
X25291967Y-26539216D02*
X25282443Y-26520169D01*
X25282443Y-26520169D02*
X25282443Y-26510645D01*
X25282443Y-26510645D02*
X25291967Y-26491597D01*
X25291967Y-26491597D02*
X25301491Y-26482074D01*
X25301491Y-26482074D02*
X25320539Y-26472550D01*
X25320539Y-26472550D02*
X25358634Y-26472550D01*
X25358634Y-26472550D02*
X25377681Y-26482074D01*
X25377681Y-26482074D02*
X25387205Y-26491597D01*
X25387205Y-26491597D02*
X25396729Y-26510645D01*
X25396729Y-26510645D02*
X25396729Y-26520169D01*
X25396729Y-26520169D02*
X25387205Y-26539216D01*
X25387205Y-26539216D02*
X25377681Y-26548740D01*
X25377681Y-26548740D02*
X25358634Y-26558264D01*
X25358634Y-26558264D02*
X25320539Y-26558264D01*
X25320539Y-26558264D02*
X25301491Y-26567788D01*
X25301491Y-26567788D02*
X25291967Y-26577312D01*
X25291967Y-26577312D02*
X25282443Y-26596359D01*
X25282443Y-26596359D02*
X25282443Y-26634454D01*
X25282443Y-26634454D02*
X25291967Y-26653502D01*
X25291967Y-26653502D02*
X25301491Y-26663026D01*
X25301491Y-26663026D02*
X25320539Y-26672550D01*
X25320539Y-26672550D02*
X25358634Y-26672550D01*
X25358634Y-26672550D02*
X25377681Y-26663026D01*
X25377681Y-26663026D02*
X25387205Y-26653502D01*
X25387205Y-26653502D02*
X25396729Y-26634454D01*
X25396729Y-26634454D02*
X25396729Y-26596359D01*
X25396729Y-26596359D02*
X25387205Y-26577312D01*
X25387205Y-26577312D02*
X25377681Y-26567788D01*
X25377681Y-26567788D02*
X25358634Y-26558264D01*
X25511015Y-26558264D02*
X25491967Y-26548740D01*
X25491967Y-26548740D02*
X25482443Y-26539216D01*
X25482443Y-26539216D02*
X25472920Y-26520169D01*
X25472920Y-26520169D02*
X25472920Y-26510645D01*
X25472920Y-26510645D02*
X25482443Y-26491597D01*
X25482443Y-26491597D02*
X25491967Y-26482074D01*
X25491967Y-26482074D02*
X25511015Y-26472550D01*
X25511015Y-26472550D02*
X25549110Y-26472550D01*
X25549110Y-26472550D02*
X25568158Y-26482074D01*
X25568158Y-26482074D02*
X25577681Y-26491597D01*
X25577681Y-26491597D02*
X25587205Y-26510645D01*
X25587205Y-26510645D02*
X25587205Y-26520169D01*
X25587205Y-26520169D02*
X25577681Y-26539216D01*
X25577681Y-26539216D02*
X25568158Y-26548740D01*
X25568158Y-26548740D02*
X25549110Y-26558264D01*
X25549110Y-26558264D02*
X25511015Y-26558264D01*
X25511015Y-26558264D02*
X25491967Y-26567788D01*
X25491967Y-26567788D02*
X25482443Y-26577312D01*
X25482443Y-26577312D02*
X25472920Y-26596359D01*
X25472920Y-26596359D02*
X25472920Y-26634454D01*
X25472920Y-26634454D02*
X25482443Y-26653502D01*
X25482443Y-26653502D02*
X25491967Y-26663026D01*
X25491967Y-26663026D02*
X25511015Y-26672550D01*
X25511015Y-26672550D02*
X25549110Y-26672550D01*
X25549110Y-26672550D02*
X25568158Y-26663026D01*
X25568158Y-26663026D02*
X25577681Y-26653502D01*
X25577681Y-26653502D02*
X25587205Y-26634454D01*
X25587205Y-26634454D02*
X25587205Y-26596359D01*
X25587205Y-26596359D02*
X25577681Y-26577312D01*
X25577681Y-26577312D02*
X25568158Y-26567788D01*
X25568158Y-26567788D02*
X25549110Y-26558264D01*
X25672920Y-26672550D02*
X25672920Y-26539216D01*
X25672920Y-26558264D02*
X25682443Y-26548740D01*
X25682443Y-26548740D02*
X25701491Y-26539216D01*
X25701491Y-26539216D02*
X25730062Y-26539216D01*
X25730062Y-26539216D02*
X25749110Y-26548740D01*
X25749110Y-26548740D02*
X25758634Y-26567788D01*
X25758634Y-26567788D02*
X25758634Y-26672550D01*
X25758634Y-26567788D02*
X25768158Y-26548740D01*
X25768158Y-26548740D02*
X25787205Y-26539216D01*
X25787205Y-26539216D02*
X25815777Y-26539216D01*
X25815777Y-26539216D02*
X25834824Y-26548740D01*
X25834824Y-26548740D02*
X25844348Y-26567788D01*
X25844348Y-26567788D02*
X25844348Y-26672550D01*
X25939586Y-26672550D02*
X25939586Y-26539216D01*
X25939586Y-26558264D02*
X25949110Y-26548740D01*
X25949110Y-26548740D02*
X25968158Y-26539216D01*
X25968158Y-26539216D02*
X25996729Y-26539216D01*
X25996729Y-26539216D02*
X26015777Y-26548740D01*
X26015777Y-26548740D02*
X26025301Y-26567788D01*
X26025301Y-26567788D02*
X26025301Y-26672550D01*
X26025301Y-26567788D02*
X26034824Y-26548740D01*
X26034824Y-26548740D02*
X26053872Y-26539216D01*
X26053872Y-26539216D02*
X26082443Y-26539216D01*
X26082443Y-26539216D02*
X26101491Y-26548740D01*
X26101491Y-26548740D02*
X26111015Y-26567788D01*
X26111015Y-26567788D02*
X26111015Y-26672550D01*
X26501491Y-26463026D02*
X26330063Y-26720169D01*
X26758634Y-26472550D02*
X26777682Y-26472550D01*
X26777682Y-26472550D02*
X26796729Y-26482074D01*
X26796729Y-26482074D02*
X26806253Y-26491597D01*
X26806253Y-26491597D02*
X26815777Y-26510645D01*
X26815777Y-26510645D02*
X26825301Y-26548740D01*
X26825301Y-26548740D02*
X26825301Y-26596359D01*
X26825301Y-26596359D02*
X26815777Y-26634454D01*
X26815777Y-26634454D02*
X26806253Y-26653502D01*
X26806253Y-26653502D02*
X26796729Y-26663026D01*
X26796729Y-26663026D02*
X26777682Y-26672550D01*
X26777682Y-26672550D02*
X26758634Y-26672550D01*
X26758634Y-26672550D02*
X26739586Y-26663026D01*
X26739586Y-26663026D02*
X26730063Y-26653502D01*
X26730063Y-26653502D02*
X26720539Y-26634454D01*
X26720539Y-26634454D02*
X26711015Y-26596359D01*
X26711015Y-26596359D02*
X26711015Y-26548740D01*
X26711015Y-26548740D02*
X26720539Y-26510645D01*
X26720539Y-26510645D02*
X26730063Y-26491597D01*
X26730063Y-26491597D02*
X26739586Y-26482074D01*
X26739586Y-26482074D02*
X26758634Y-26472550D01*
X26911015Y-26653502D02*
X26920539Y-26663026D01*
X26920539Y-26663026D02*
X26911015Y-26672550D01*
X26911015Y-26672550D02*
X26901491Y-26663026D01*
X26901491Y-26663026D02*
X26911015Y-26653502D01*
X26911015Y-26653502D02*
X26911015Y-26672550D01*
X27111015Y-26672550D02*
X26996729Y-26672550D01*
X27053872Y-26672550D02*
X27053872Y-26472550D01*
X27053872Y-26472550D02*
X27034824Y-26501121D01*
X27034824Y-26501121D02*
X27015777Y-26520169D01*
X27015777Y-26520169D02*
X26996729Y-26529693D01*
X27291967Y-26472550D02*
X27196729Y-26472550D01*
X27196729Y-26472550D02*
X27187205Y-26567788D01*
X27187205Y-26567788D02*
X27196729Y-26558264D01*
X27196729Y-26558264D02*
X27215777Y-26548740D01*
X27215777Y-26548740D02*
X27263396Y-26548740D01*
X27263396Y-26548740D02*
X27282444Y-26558264D01*
X27282444Y-26558264D02*
X27291967Y-26567788D01*
X27291967Y-26567788D02*
X27301491Y-26586835D01*
X27301491Y-26586835D02*
X27301491Y-26634454D01*
X27301491Y-26634454D02*
X27291967Y-26653502D01*
X27291967Y-26653502D02*
X27282444Y-26663026D01*
X27282444Y-26663026D02*
X27263396Y-26672550D01*
X27263396Y-26672550D02*
X27215777Y-26672550D01*
X27215777Y-26672550D02*
X27196729Y-26663026D01*
X27196729Y-26663026D02*
X27187205Y-26653502D01*
X27368158Y-26472550D02*
X27501491Y-26472550D01*
X27501491Y-26472550D02*
X27415777Y-26672550D01*
X27615777Y-26472550D02*
X27634825Y-26472550D01*
X27634825Y-26472550D02*
X27653872Y-26482074D01*
X27653872Y-26482074D02*
X27663396Y-26491597D01*
X27663396Y-26491597D02*
X27672920Y-26510645D01*
X27672920Y-26510645D02*
X27682444Y-26548740D01*
X27682444Y-26548740D02*
X27682444Y-26596359D01*
X27682444Y-26596359D02*
X27672920Y-26634454D01*
X27672920Y-26634454D02*
X27663396Y-26653502D01*
X27663396Y-26653502D02*
X27653872Y-26663026D01*
X27653872Y-26663026D02*
X27634825Y-26672550D01*
X27634825Y-26672550D02*
X27615777Y-26672550D01*
X27615777Y-26672550D02*
X27596729Y-26663026D01*
X27596729Y-26663026D02*
X27587205Y-26653502D01*
X27587205Y-26653502D02*
X27577682Y-26634454D01*
X27577682Y-26634454D02*
X27568158Y-26596359D01*
X27568158Y-26596359D02*
X27568158Y-26548740D01*
X27568158Y-26548740D02*
X27577682Y-26510645D01*
X27577682Y-26510645D02*
X27587205Y-26491597D01*
X27587205Y-26491597D02*
X27596729Y-26482074D01*
X27596729Y-26482074D02*
X27615777Y-26472550D01*
X27758634Y-26472550D02*
X27758634Y-26510645D01*
X27834825Y-26472550D02*
X27834825Y-26510645D01*
X28130063Y-26748740D02*
X28120539Y-26739216D01*
X28120539Y-26739216D02*
X28101491Y-26710645D01*
X28101491Y-26710645D02*
X28091967Y-26691597D01*
X28091967Y-26691597D02*
X28082444Y-26663026D01*
X28082444Y-26663026D02*
X28072920Y-26615407D01*
X28072920Y-26615407D02*
X28072920Y-26577312D01*
X28072920Y-26577312D02*
X28082444Y-26529693D01*
X28082444Y-26529693D02*
X28091967Y-26501121D01*
X28091967Y-26501121D02*
X28101491Y-26482074D01*
X28101491Y-26482074D02*
X28120539Y-26453502D01*
X28120539Y-26453502D02*
X28130063Y-26443978D01*
X28196729Y-26491597D02*
X28206253Y-26482074D01*
X28206253Y-26482074D02*
X28225301Y-26472550D01*
X28225301Y-26472550D02*
X28272920Y-26472550D01*
X28272920Y-26472550D02*
X28291967Y-26482074D01*
X28291967Y-26482074D02*
X28301491Y-26491597D01*
X28301491Y-26491597D02*
X28311015Y-26510645D01*
X28311015Y-26510645D02*
X28311015Y-26529693D01*
X28311015Y-26529693D02*
X28301491Y-26558264D01*
X28301491Y-26558264D02*
X28187206Y-26672550D01*
X28187206Y-26672550D02*
X28311015Y-26672550D01*
X28377682Y-26472550D02*
X28501491Y-26472550D01*
X28501491Y-26472550D02*
X28434825Y-26548740D01*
X28434825Y-26548740D02*
X28463396Y-26548740D01*
X28463396Y-26548740D02*
X28482444Y-26558264D01*
X28482444Y-26558264D02*
X28491967Y-26567788D01*
X28491967Y-26567788D02*
X28501491Y-26586835D01*
X28501491Y-26586835D02*
X28501491Y-26634454D01*
X28501491Y-26634454D02*
X28491967Y-26653502D01*
X28491967Y-26653502D02*
X28482444Y-26663026D01*
X28482444Y-26663026D02*
X28463396Y-26672550D01*
X28463396Y-26672550D02*
X28406253Y-26672550D01*
X28406253Y-26672550D02*
X28387206Y-26663026D01*
X28387206Y-26663026D02*
X28377682Y-26653502D01*
X28739587Y-26672550D02*
X28739587Y-26472550D01*
X28825301Y-26672550D02*
X28825301Y-26567788D01*
X28825301Y-26567788D02*
X28815777Y-26548740D01*
X28815777Y-26548740D02*
X28796729Y-26539216D01*
X28796729Y-26539216D02*
X28768158Y-26539216D01*
X28768158Y-26539216D02*
X28749110Y-26548740D01*
X28749110Y-26548740D02*
X28739587Y-26558264D01*
X28949110Y-26672550D02*
X28930063Y-26663026D01*
X28930063Y-26663026D02*
X28920539Y-26653502D01*
X28920539Y-26653502D02*
X28911015Y-26634454D01*
X28911015Y-26634454D02*
X28911015Y-26577312D01*
X28911015Y-26577312D02*
X28920539Y-26558264D01*
X28920539Y-26558264D02*
X28930063Y-26548740D01*
X28930063Y-26548740D02*
X28949110Y-26539216D01*
X28949110Y-26539216D02*
X28977682Y-26539216D01*
X28977682Y-26539216D02*
X28996729Y-26548740D01*
X28996729Y-26548740D02*
X29006253Y-26558264D01*
X29006253Y-26558264D02*
X29015777Y-26577312D01*
X29015777Y-26577312D02*
X29015777Y-26634454D01*
X29015777Y-26634454D02*
X29006253Y-26653502D01*
X29006253Y-26653502D02*
X28996729Y-26663026D01*
X28996729Y-26663026D02*
X28977682Y-26672550D01*
X28977682Y-26672550D02*
X28949110Y-26672550D01*
X29130063Y-26672550D02*
X29111015Y-26663026D01*
X29111015Y-26663026D02*
X29101491Y-26643978D01*
X29101491Y-26643978D02*
X29101491Y-26472550D01*
X29282444Y-26663026D02*
X29263396Y-26672550D01*
X29263396Y-26672550D02*
X29225301Y-26672550D01*
X29225301Y-26672550D02*
X29206253Y-26663026D01*
X29206253Y-26663026D02*
X29196729Y-26643978D01*
X29196729Y-26643978D02*
X29196729Y-26567788D01*
X29196729Y-26567788D02*
X29206253Y-26548740D01*
X29206253Y-26548740D02*
X29225301Y-26539216D01*
X29225301Y-26539216D02*
X29263396Y-26539216D01*
X29263396Y-26539216D02*
X29282444Y-26548740D01*
X29282444Y-26548740D02*
X29291968Y-26567788D01*
X29291968Y-26567788D02*
X29291968Y-26586835D01*
X29291968Y-26586835D02*
X29196729Y-26605883D01*
X29368158Y-26663026D02*
X29387206Y-26672550D01*
X29387206Y-26672550D02*
X29425301Y-26672550D01*
X29425301Y-26672550D02*
X29444349Y-26663026D01*
X29444349Y-26663026D02*
X29453872Y-26643978D01*
X29453872Y-26643978D02*
X29453872Y-26634454D01*
X29453872Y-26634454D02*
X29444349Y-26615407D01*
X29444349Y-26615407D02*
X29425301Y-26605883D01*
X29425301Y-26605883D02*
X29396729Y-26605883D01*
X29396729Y-26605883D02*
X29377682Y-26596359D01*
X29377682Y-26596359D02*
X29368158Y-26577312D01*
X29368158Y-26577312D02*
X29368158Y-26567788D01*
X29368158Y-26567788D02*
X29377682Y-26548740D01*
X29377682Y-26548740D02*
X29396729Y-26539216D01*
X29396729Y-26539216D02*
X29425301Y-26539216D01*
X29425301Y-26539216D02*
X29444349Y-26548740D01*
X29520539Y-26748740D02*
X29530063Y-26739216D01*
X29530063Y-26739216D02*
X29549110Y-26710645D01*
X29549110Y-26710645D02*
X29558634Y-26691597D01*
X29558634Y-26691597D02*
X29568158Y-26663026D01*
X29568158Y-26663026D02*
X29577682Y-26615407D01*
X29577682Y-26615407D02*
X29577682Y-26577312D01*
X29577682Y-26577312D02*
X29568158Y-26529693D01*
X29568158Y-26529693D02*
X29558634Y-26501121D01*
X29558634Y-26501121D02*
X29549110Y-26482074D01*
X29549110Y-26482074D02*
X29530063Y-26453502D01*
X29530063Y-26453502D02*
X29520539Y-26443978D01*
X29882444Y-26748740D02*
X29872920Y-26739216D01*
X29872920Y-26739216D02*
X29853872Y-26710645D01*
X29853872Y-26710645D02*
X29844349Y-26691597D01*
X29844349Y-26691597D02*
X29834825Y-26663026D01*
X29834825Y-26663026D02*
X29825301Y-26615407D01*
X29825301Y-26615407D02*
X29825301Y-26577312D01*
X29825301Y-26577312D02*
X29834825Y-26529693D01*
X29834825Y-26529693D02*
X29844349Y-26501121D01*
X29844349Y-26501121D02*
X29853872Y-26482074D01*
X29853872Y-26482074D02*
X29872920Y-26453502D01*
X29872920Y-26453502D02*
X29882444Y-26443978D01*
X29958634Y-26539216D02*
X29958634Y-26672550D01*
X29958634Y-26558264D02*
X29968158Y-26548740D01*
X29968158Y-26548740D02*
X29987206Y-26539216D01*
X29987206Y-26539216D02*
X30015777Y-26539216D01*
X30015777Y-26539216D02*
X30034825Y-26548740D01*
X30034825Y-26548740D02*
X30044349Y-26567788D01*
X30044349Y-26567788D02*
X30044349Y-26672550D01*
X30168158Y-26672550D02*
X30149110Y-26663026D01*
X30149110Y-26663026D02*
X30139587Y-26653502D01*
X30139587Y-26653502D02*
X30130063Y-26634454D01*
X30130063Y-26634454D02*
X30130063Y-26577312D01*
X30130063Y-26577312D02*
X30139587Y-26558264D01*
X30139587Y-26558264D02*
X30149110Y-26548740D01*
X30149110Y-26548740D02*
X30168158Y-26539216D01*
X30168158Y-26539216D02*
X30196730Y-26539216D01*
X30196730Y-26539216D02*
X30215777Y-26548740D01*
X30215777Y-26548740D02*
X30225301Y-26558264D01*
X30225301Y-26558264D02*
X30234825Y-26577312D01*
X30234825Y-26577312D02*
X30234825Y-26634454D01*
X30234825Y-26634454D02*
X30225301Y-26653502D01*
X30225301Y-26653502D02*
X30215777Y-26663026D01*
X30215777Y-26663026D02*
X30196730Y-26672550D01*
X30196730Y-26672550D02*
X30168158Y-26672550D01*
X30291968Y-26539216D02*
X30368158Y-26539216D01*
X30320539Y-26472550D02*
X30320539Y-26643978D01*
X30320539Y-26643978D02*
X30330063Y-26663026D01*
X30330063Y-26663026D02*
X30349110Y-26672550D01*
X30349110Y-26672550D02*
X30368158Y-26672550D01*
X30587206Y-26539216D02*
X30587206Y-26739216D01*
X30587206Y-26548740D02*
X30606253Y-26539216D01*
X30606253Y-26539216D02*
X30644349Y-26539216D01*
X30644349Y-26539216D02*
X30663396Y-26548740D01*
X30663396Y-26548740D02*
X30672920Y-26558264D01*
X30672920Y-26558264D02*
X30682444Y-26577312D01*
X30682444Y-26577312D02*
X30682444Y-26634454D01*
X30682444Y-26634454D02*
X30672920Y-26653502D01*
X30672920Y-26653502D02*
X30663396Y-26663026D01*
X30663396Y-26663026D02*
X30644349Y-26672550D01*
X30644349Y-26672550D02*
X30606253Y-26672550D01*
X30606253Y-26672550D02*
X30587206Y-26663026D01*
X30796730Y-26672550D02*
X30777682Y-26663026D01*
X30777682Y-26663026D02*
X30768158Y-26643978D01*
X30768158Y-26643978D02*
X30768158Y-26472550D01*
X30958634Y-26672550D02*
X30958634Y-26567788D01*
X30958634Y-26567788D02*
X30949111Y-26548740D01*
X30949111Y-26548740D02*
X30930063Y-26539216D01*
X30930063Y-26539216D02*
X30891968Y-26539216D01*
X30891968Y-26539216D02*
X30872920Y-26548740D01*
X30958634Y-26663026D02*
X30939587Y-26672550D01*
X30939587Y-26672550D02*
X30891968Y-26672550D01*
X30891968Y-26672550D02*
X30872920Y-26663026D01*
X30872920Y-26663026D02*
X30863396Y-26643978D01*
X30863396Y-26643978D02*
X30863396Y-26624931D01*
X30863396Y-26624931D02*
X30872920Y-26605883D01*
X30872920Y-26605883D02*
X30891968Y-26596359D01*
X30891968Y-26596359D02*
X30939587Y-26596359D01*
X30939587Y-26596359D02*
X30958634Y-26586835D01*
X31025301Y-26539216D02*
X31101491Y-26539216D01*
X31053872Y-26472550D02*
X31053872Y-26643978D01*
X31053872Y-26643978D02*
X31063396Y-26663026D01*
X31063396Y-26663026D02*
X31082444Y-26672550D01*
X31082444Y-26672550D02*
X31101491Y-26672550D01*
X31244349Y-26663026D02*
X31225301Y-26672550D01*
X31225301Y-26672550D02*
X31187206Y-26672550D01*
X31187206Y-26672550D02*
X31168158Y-26663026D01*
X31168158Y-26663026D02*
X31158634Y-26643978D01*
X31158634Y-26643978D02*
X31158634Y-26567788D01*
X31158634Y-26567788D02*
X31168158Y-26548740D01*
X31168158Y-26548740D02*
X31187206Y-26539216D01*
X31187206Y-26539216D02*
X31225301Y-26539216D01*
X31225301Y-26539216D02*
X31244349Y-26548740D01*
X31244349Y-26548740D02*
X31253872Y-26567788D01*
X31253872Y-26567788D02*
X31253872Y-26586835D01*
X31253872Y-26586835D02*
X31158634Y-26605883D01*
X31425301Y-26672550D02*
X31425301Y-26472550D01*
X31425301Y-26663026D02*
X31406253Y-26672550D01*
X31406253Y-26672550D02*
X31368158Y-26672550D01*
X31368158Y-26672550D02*
X31349111Y-26663026D01*
X31349111Y-26663026D02*
X31339587Y-26653502D01*
X31339587Y-26653502D02*
X31330063Y-26634454D01*
X31330063Y-26634454D02*
X31330063Y-26577312D01*
X31330063Y-26577312D02*
X31339587Y-26558264D01*
X31339587Y-26558264D02*
X31349111Y-26548740D01*
X31349111Y-26548740D02*
X31368158Y-26539216D01*
X31368158Y-26539216D02*
X31406253Y-26539216D01*
X31406253Y-26539216D02*
X31425301Y-26548740D01*
X31501492Y-26748740D02*
X31511015Y-26739216D01*
X31511015Y-26739216D02*
X31530063Y-26710645D01*
X31530063Y-26710645D02*
X31539587Y-26691597D01*
X31539587Y-26691597D02*
X31549111Y-26663026D01*
X31549111Y-26663026D02*
X31558634Y-26615407D01*
X31558634Y-26615407D02*
X31558634Y-26577312D01*
X31558634Y-26577312D02*
X31549111Y-26529693D01*
X31549111Y-26529693D02*
X31539587Y-26501121D01*
X31539587Y-26501121D02*
X31530063Y-26482074D01*
X31530063Y-26482074D02*
X31511015Y-26453502D01*
X31511015Y-26453502D02*
X31501492Y-26443978D01*
M02*
