G04 #@! TF.GenerationSoftware,KiCad,Pcbnew,8.0.6*
G04 #@! TF.CreationDate,2024-12-21T00:19:53+08:00*
G04 #@! TF.ProjectId,keyboard,6b657962-6f61-4726-942e-6b696361645f,rev?*
G04 #@! TF.SameCoordinates,Original*
G04 #@! TF.FileFunction,Legend,Top*
G04 #@! TF.FilePolarity,Positive*
%FSLAX46Y46*%
G04 Gerber Fmt 4.6, Leading zero omitted, Abs format (unit mm)*
G04 Created by KiCad (PCBNEW 8.0.6) date 2024-12-21 00:19:53*
%MOMM*%
%LPD*%
G01*
G04 APERTURE LIST*
G04 Aperture macros list*
%AMRoundRect*
0 Rectangle with rounded corners*
0 $1 Rounding radius*
0 $2 $3 $4 $5 $6 $7 $8 $9 X,Y pos of 4 corners*
0 Add a 4 corners polygon primitive as box body*
4,1,4,$2,$3,$4,$5,$6,$7,$8,$9,$2,$3,0*
0 Add four circle primitives for the rounded corners*
1,1,$1+$1,$2,$3*
1,1,$1+$1,$4,$5*
1,1,$1+$1,$6,$7*
1,1,$1+$1,$8,$9*
0 Add four rect primitives between the rounded corners*
20,1,$1+$1,$2,$3,$4,$5,0*
20,1,$1+$1,$4,$5,$6,$7,0*
20,1,$1+$1,$6,$7,$8,$9,0*
20,1,$1+$1,$8,$9,$2,$3,0*%
G04 Aperture macros list end*
%ADD10C,0.300000*%
%ADD11C,0.150000*%
%ADD12C,0.120000*%
%ADD13C,1.750000*%
%ADD14C,3.000000*%
%ADD15C,3.987800*%
%ADD16R,1.600000X1.600000*%
%ADD17O,1.600000X1.600000*%
%ADD18C,3.048000*%
%ADD19C,3.500000*%
%ADD20C,2.600000*%
%ADD21C,1.800000*%
%ADD22RoundRect,0.450000X-0.450000X0.450000X-0.450000X-0.450000X0.450000X-0.450000X0.450000X0.450000X0*%
%ADD23C,1.780000*%
G04 APERTURE END LIST*
D10*
X326757114Y-147953489D02*
X326757114Y-148453489D01*
X327542828Y-148453489D02*
X326042828Y-148453489D01*
X326042828Y-148453489D02*
X326042828Y-147739203D01*
X326542828Y-146524918D02*
X327542828Y-146524918D01*
X326542828Y-147167775D02*
X327328542Y-147167775D01*
X327328542Y-147167775D02*
X327471400Y-147096346D01*
X327471400Y-147096346D02*
X327542828Y-146953489D01*
X327542828Y-146953489D02*
X327542828Y-146739203D01*
X327542828Y-146739203D02*
X327471400Y-146596346D01*
X327471400Y-146596346D02*
X327399971Y-146524918D01*
X326542828Y-145810632D02*
X327542828Y-145810632D01*
X326685685Y-145810632D02*
X326614257Y-145739203D01*
X326614257Y-145739203D02*
X326542828Y-145596346D01*
X326542828Y-145596346D02*
X326542828Y-145382060D01*
X326542828Y-145382060D02*
X326614257Y-145239203D01*
X326614257Y-145239203D02*
X326757114Y-145167775D01*
X326757114Y-145167775D02*
X327542828Y-145167775D01*
X326542828Y-144453489D02*
X327542828Y-144453489D01*
X326685685Y-144453489D02*
X326614257Y-144382060D01*
X326614257Y-144382060D02*
X326542828Y-144239203D01*
X326542828Y-144239203D02*
X326542828Y-144024917D01*
X326542828Y-144024917D02*
X326614257Y-143882060D01*
X326614257Y-143882060D02*
X326757114Y-143810632D01*
X326757114Y-143810632D02*
X327542828Y-143810632D01*
X326542828Y-143239203D02*
X327542828Y-142882060D01*
X326542828Y-142524917D02*
X327542828Y-142882060D01*
X327542828Y-142882060D02*
X327899971Y-143024917D01*
X327899971Y-143024917D02*
X327971400Y-143096346D01*
X327971400Y-143096346D02*
X328042828Y-143239203D01*
X327542828Y-141953489D02*
X326042828Y-141953489D01*
X326042828Y-141953489D02*
X326042828Y-141382060D01*
X326042828Y-141382060D02*
X326114257Y-141239203D01*
X326114257Y-141239203D02*
X326185685Y-141167774D01*
X326185685Y-141167774D02*
X326328542Y-141096346D01*
X326328542Y-141096346D02*
X326542828Y-141096346D01*
X326542828Y-141096346D02*
X326685685Y-141167774D01*
X326685685Y-141167774D02*
X326757114Y-141239203D01*
X326757114Y-141239203D02*
X326828542Y-141382060D01*
X326828542Y-141382060D02*
X326828542Y-141953489D01*
X327542828Y-139810632D02*
X326757114Y-139810632D01*
X326757114Y-139810632D02*
X326614257Y-139882060D01*
X326614257Y-139882060D02*
X326542828Y-140024917D01*
X326542828Y-140024917D02*
X326542828Y-140310632D01*
X326542828Y-140310632D02*
X326614257Y-140453489D01*
X327471400Y-139810632D02*
X327542828Y-139953489D01*
X327542828Y-139953489D02*
X327542828Y-140310632D01*
X327542828Y-140310632D02*
X327471400Y-140453489D01*
X327471400Y-140453489D02*
X327328542Y-140524917D01*
X327328542Y-140524917D02*
X327185685Y-140524917D01*
X327185685Y-140524917D02*
X327042828Y-140453489D01*
X327042828Y-140453489D02*
X326971400Y-140310632D01*
X326971400Y-140310632D02*
X326971400Y-139953489D01*
X326971400Y-139953489D02*
X326899971Y-139810632D01*
X327542828Y-138453489D02*
X326042828Y-138453489D01*
X327471400Y-138453489D02*
X327542828Y-138596346D01*
X327542828Y-138596346D02*
X327542828Y-138882060D01*
X327542828Y-138882060D02*
X327471400Y-139024917D01*
X327471400Y-139024917D02*
X327399971Y-139096346D01*
X327399971Y-139096346D02*
X327257114Y-139167774D01*
X327257114Y-139167774D02*
X326828542Y-139167774D01*
X326828542Y-139167774D02*
X326685685Y-139096346D01*
X326685685Y-139096346D02*
X326614257Y-139024917D01*
X326614257Y-139024917D02*
X326542828Y-138882060D01*
X326542828Y-138882060D02*
X326542828Y-138596346D01*
X326542828Y-138596346D02*
X326614257Y-138453489D01*
X327542828Y-135739203D02*
X326828542Y-136239203D01*
X327542828Y-136596346D02*
X326042828Y-136596346D01*
X326042828Y-136596346D02*
X326042828Y-136024917D01*
X326042828Y-136024917D02*
X326114257Y-135882060D01*
X326114257Y-135882060D02*
X326185685Y-135810631D01*
X326185685Y-135810631D02*
X326328542Y-135739203D01*
X326328542Y-135739203D02*
X326542828Y-135739203D01*
X326542828Y-135739203D02*
X326685685Y-135810631D01*
X326685685Y-135810631D02*
X326757114Y-135882060D01*
X326757114Y-135882060D02*
X326828542Y-136024917D01*
X326828542Y-136024917D02*
X326828542Y-136596346D01*
X327471400Y-134524917D02*
X327542828Y-134667774D01*
X327542828Y-134667774D02*
X327542828Y-134953489D01*
X327542828Y-134953489D02*
X327471400Y-135096346D01*
X327471400Y-135096346D02*
X327328542Y-135167774D01*
X327328542Y-135167774D02*
X326757114Y-135167774D01*
X326757114Y-135167774D02*
X326614257Y-135096346D01*
X326614257Y-135096346D02*
X326542828Y-134953489D01*
X326542828Y-134953489D02*
X326542828Y-134667774D01*
X326542828Y-134667774D02*
X326614257Y-134524917D01*
X326614257Y-134524917D02*
X326757114Y-134453489D01*
X326757114Y-134453489D02*
X326899971Y-134453489D01*
X326899971Y-134453489D02*
X327042828Y-135167774D01*
X326542828Y-133953489D02*
X327542828Y-133596346D01*
X327542828Y-133596346D02*
X326542828Y-133239203D01*
X327542828Y-130739203D02*
X327542828Y-131596346D01*
X327542828Y-131167775D02*
X326042828Y-131167775D01*
X326042828Y-131167775D02*
X326257114Y-131310632D01*
X326257114Y-131310632D02*
X326399971Y-131453489D01*
X326399971Y-131453489D02*
X326471400Y-131596346D01*
X327399971Y-130096347D02*
X327471400Y-130024918D01*
X327471400Y-130024918D02*
X327542828Y-130096347D01*
X327542828Y-130096347D02*
X327471400Y-130167775D01*
X327471400Y-130167775D02*
X327399971Y-130096347D01*
X327399971Y-130096347D02*
X327542828Y-130096347D01*
X326042828Y-129096346D02*
X326042828Y-128953489D01*
X326042828Y-128953489D02*
X326114257Y-128810632D01*
X326114257Y-128810632D02*
X326185685Y-128739204D01*
X326185685Y-128739204D02*
X326328542Y-128667775D01*
X326328542Y-128667775D02*
X326614257Y-128596346D01*
X326614257Y-128596346D02*
X326971400Y-128596346D01*
X326971400Y-128596346D02*
X327257114Y-128667775D01*
X327257114Y-128667775D02*
X327399971Y-128739204D01*
X327399971Y-128739204D02*
X327471400Y-128810632D01*
X327471400Y-128810632D02*
X327542828Y-128953489D01*
X327542828Y-128953489D02*
X327542828Y-129096346D01*
X327542828Y-129096346D02*
X327471400Y-129239204D01*
X327471400Y-129239204D02*
X327399971Y-129310632D01*
X327399971Y-129310632D02*
X327257114Y-129382061D01*
X327257114Y-129382061D02*
X326971400Y-129453489D01*
X326971400Y-129453489D02*
X326614257Y-129453489D01*
X326614257Y-129453489D02*
X326328542Y-129382061D01*
X326328542Y-129382061D02*
X326185685Y-129310632D01*
X326185685Y-129310632D02*
X326114257Y-129239204D01*
X326114257Y-129239204D02*
X326042828Y-129096346D01*
X277800828Y-144695489D02*
X278800828Y-144695489D01*
X277943685Y-144695489D02*
X277872257Y-144624060D01*
X277872257Y-144624060D02*
X277800828Y-144481203D01*
X277800828Y-144481203D02*
X277800828Y-144266917D01*
X277800828Y-144266917D02*
X277872257Y-144124060D01*
X277872257Y-144124060D02*
X278015114Y-144052632D01*
X278015114Y-144052632D02*
X278800828Y-144052632D01*
X278800828Y-143338346D02*
X277800828Y-143338346D01*
X277300828Y-143338346D02*
X277372257Y-143409774D01*
X277372257Y-143409774D02*
X277443685Y-143338346D01*
X277443685Y-143338346D02*
X277372257Y-143266917D01*
X277372257Y-143266917D02*
X277300828Y-143338346D01*
X277300828Y-143338346D02*
X277443685Y-143338346D01*
X278729400Y-141981203D02*
X278800828Y-142124060D01*
X278800828Y-142124060D02*
X278800828Y-142409774D01*
X278800828Y-142409774D02*
X278729400Y-142552631D01*
X278729400Y-142552631D02*
X278657971Y-142624060D01*
X278657971Y-142624060D02*
X278515114Y-142695488D01*
X278515114Y-142695488D02*
X278086542Y-142695488D01*
X278086542Y-142695488D02*
X277943685Y-142624060D01*
X277943685Y-142624060D02*
X277872257Y-142552631D01*
X277872257Y-142552631D02*
X277800828Y-142409774D01*
X277800828Y-142409774D02*
X277800828Y-142124060D01*
X277800828Y-142124060D02*
X277872257Y-141981203D01*
X278729400Y-140766917D02*
X278800828Y-140909774D01*
X278800828Y-140909774D02*
X278800828Y-141195489D01*
X278800828Y-141195489D02*
X278729400Y-141338346D01*
X278729400Y-141338346D02*
X278586542Y-141409774D01*
X278586542Y-141409774D02*
X278015114Y-141409774D01*
X278015114Y-141409774D02*
X277872257Y-141338346D01*
X277872257Y-141338346D02*
X277800828Y-141195489D01*
X277800828Y-141195489D02*
X277800828Y-140909774D01*
X277800828Y-140909774D02*
X277872257Y-140766917D01*
X277872257Y-140766917D02*
X278015114Y-140695489D01*
X278015114Y-140695489D02*
X278157971Y-140695489D01*
X278157971Y-140695489D02*
X278300828Y-141409774D01*
X277800828Y-140052632D02*
X278800828Y-140052632D01*
X277943685Y-140052632D02*
X277872257Y-139981203D01*
X277872257Y-139981203D02*
X277800828Y-139838346D01*
X277800828Y-139838346D02*
X277800828Y-139624060D01*
X277800828Y-139624060D02*
X277872257Y-139481203D01*
X277872257Y-139481203D02*
X278015114Y-139409775D01*
X278015114Y-139409775D02*
X278800828Y-139409775D01*
X278800828Y-138052632D02*
X278015114Y-138052632D01*
X278015114Y-138052632D02*
X277872257Y-138124060D01*
X277872257Y-138124060D02*
X277800828Y-138266917D01*
X277800828Y-138266917D02*
X277800828Y-138552632D01*
X277800828Y-138552632D02*
X277872257Y-138695489D01*
X278729400Y-138052632D02*
X278800828Y-138195489D01*
X278800828Y-138195489D02*
X278800828Y-138552632D01*
X278800828Y-138552632D02*
X278729400Y-138695489D01*
X278729400Y-138695489D02*
X278586542Y-138766917D01*
X278586542Y-138766917D02*
X278443685Y-138766917D01*
X278443685Y-138766917D02*
X278300828Y-138695489D01*
X278300828Y-138695489D02*
X278229400Y-138552632D01*
X278229400Y-138552632D02*
X278229400Y-138195489D01*
X278229400Y-138195489D02*
X278157971Y-138052632D01*
X277800828Y-137338346D02*
X278800828Y-137338346D01*
X277943685Y-137338346D02*
X277872257Y-137266917D01*
X277872257Y-137266917D02*
X277800828Y-137124060D01*
X277800828Y-137124060D02*
X277800828Y-136909774D01*
X277800828Y-136909774D02*
X277872257Y-136766917D01*
X277872257Y-136766917D02*
X278015114Y-136695489D01*
X278015114Y-136695489D02*
X278800828Y-136695489D01*
X278800828Y-135766917D02*
X278729400Y-135909774D01*
X278729400Y-135909774D02*
X278657971Y-135981203D01*
X278657971Y-135981203D02*
X278515114Y-136052631D01*
X278515114Y-136052631D02*
X278086542Y-136052631D01*
X278086542Y-136052631D02*
X277943685Y-135981203D01*
X277943685Y-135981203D02*
X277872257Y-135909774D01*
X277872257Y-135909774D02*
X277800828Y-135766917D01*
X277800828Y-135766917D02*
X277800828Y-135552631D01*
X277800828Y-135552631D02*
X277872257Y-135409774D01*
X277872257Y-135409774D02*
X277943685Y-135338346D01*
X277943685Y-135338346D02*
X278086542Y-135266917D01*
X278086542Y-135266917D02*
X278515114Y-135266917D01*
X278515114Y-135266917D02*
X278657971Y-135338346D01*
X278657971Y-135338346D02*
X278729400Y-135409774D01*
X278729400Y-135409774D02*
X278800828Y-135552631D01*
X278800828Y-135552631D02*
X278800828Y-135766917D01*
D11*
X303954819Y-128595237D02*
X302954819Y-128595237D01*
X302954819Y-128595237D02*
X302954819Y-128357142D01*
X302954819Y-128357142D02*
X303002438Y-128214285D01*
X303002438Y-128214285D02*
X303097676Y-128119047D01*
X303097676Y-128119047D02*
X303192914Y-128071428D01*
X303192914Y-128071428D02*
X303383390Y-128023809D01*
X303383390Y-128023809D02*
X303526247Y-128023809D01*
X303526247Y-128023809D02*
X303716723Y-128071428D01*
X303716723Y-128071428D02*
X303811961Y-128119047D01*
X303811961Y-128119047D02*
X303907200Y-128214285D01*
X303907200Y-128214285D02*
X303954819Y-128357142D01*
X303954819Y-128357142D02*
X303954819Y-128595237D01*
X304050057Y-127833333D02*
X304050057Y-127071428D01*
X303954819Y-126309523D02*
X303954819Y-126880951D01*
X303954819Y-126595237D02*
X302954819Y-126595237D01*
X302954819Y-126595237D02*
X303097676Y-126690475D01*
X303097676Y-126690475D02*
X303192914Y-126785713D01*
X303192914Y-126785713D02*
X303240533Y-126880951D01*
X302954819Y-125404761D02*
X302954819Y-125880951D01*
X302954819Y-125880951D02*
X303431009Y-125928570D01*
X303431009Y-125928570D02*
X303383390Y-125880951D01*
X303383390Y-125880951D02*
X303335771Y-125785713D01*
X303335771Y-125785713D02*
X303335771Y-125547618D01*
X303335771Y-125547618D02*
X303383390Y-125452380D01*
X303383390Y-125452380D02*
X303431009Y-125404761D01*
X303431009Y-125404761D02*
X303526247Y-125357142D01*
X303526247Y-125357142D02*
X303764342Y-125357142D01*
X303764342Y-125357142D02*
X303859580Y-125404761D01*
X303859580Y-125404761D02*
X303907200Y-125452380D01*
X303907200Y-125452380D02*
X303954819Y-125547618D01*
X303954819Y-125547618D02*
X303954819Y-125785713D01*
X303954819Y-125785713D02*
X303907200Y-125880951D01*
X303907200Y-125880951D02*
X303859580Y-125928570D01*
X300204819Y-128595237D02*
X299204819Y-128595237D01*
X299204819Y-128595237D02*
X299204819Y-128357142D01*
X299204819Y-128357142D02*
X299252438Y-128214285D01*
X299252438Y-128214285D02*
X299347676Y-128119047D01*
X299347676Y-128119047D02*
X299442914Y-128071428D01*
X299442914Y-128071428D02*
X299633390Y-128023809D01*
X299633390Y-128023809D02*
X299776247Y-128023809D01*
X299776247Y-128023809D02*
X299966723Y-128071428D01*
X299966723Y-128071428D02*
X300061961Y-128119047D01*
X300061961Y-128119047D02*
X300157200Y-128214285D01*
X300157200Y-128214285D02*
X300204819Y-128357142D01*
X300204819Y-128357142D02*
X300204819Y-128595237D01*
X300300057Y-127833333D02*
X300300057Y-127071428D01*
X300204819Y-126309523D02*
X300204819Y-126880951D01*
X300204819Y-126595237D02*
X299204819Y-126595237D01*
X299204819Y-126595237D02*
X299347676Y-126690475D01*
X299347676Y-126690475D02*
X299442914Y-126785713D01*
X299442914Y-126785713D02*
X299490533Y-126880951D01*
X300204819Y-125357142D02*
X300204819Y-125928570D01*
X300204819Y-125642856D02*
X299204819Y-125642856D01*
X299204819Y-125642856D02*
X299347676Y-125738094D01*
X299347676Y-125738094D02*
X299442914Y-125833332D01*
X299442914Y-125833332D02*
X299490533Y-125928570D01*
X318954819Y-128619047D02*
X317954819Y-128619047D01*
X317954819Y-128619047D02*
X317954819Y-128380952D01*
X317954819Y-128380952D02*
X318002438Y-128238095D01*
X318002438Y-128238095D02*
X318097676Y-128142857D01*
X318097676Y-128142857D02*
X318192914Y-128095238D01*
X318192914Y-128095238D02*
X318383390Y-128047619D01*
X318383390Y-128047619D02*
X318526247Y-128047619D01*
X318526247Y-128047619D02*
X318716723Y-128095238D01*
X318716723Y-128095238D02*
X318811961Y-128142857D01*
X318811961Y-128142857D02*
X318907200Y-128238095D01*
X318907200Y-128238095D02*
X318954819Y-128380952D01*
X318954819Y-128380952D02*
X318954819Y-128619047D01*
X319050057Y-127857143D02*
X319050057Y-127095238D01*
X318954819Y-126333333D02*
X318954819Y-126904761D01*
X318954819Y-126619047D02*
X317954819Y-126619047D01*
X317954819Y-126619047D02*
X318097676Y-126714285D01*
X318097676Y-126714285D02*
X318192914Y-126809523D01*
X318192914Y-126809523D02*
X318240533Y-126904761D01*
X292704819Y-142119047D02*
X291704819Y-142119047D01*
X291704819Y-142119047D02*
X291704819Y-141880952D01*
X291704819Y-141880952D02*
X291752438Y-141738095D01*
X291752438Y-141738095D02*
X291847676Y-141642857D01*
X291847676Y-141642857D02*
X291942914Y-141595238D01*
X291942914Y-141595238D02*
X292133390Y-141547619D01*
X292133390Y-141547619D02*
X292276247Y-141547619D01*
X292276247Y-141547619D02*
X292466723Y-141595238D01*
X292466723Y-141595238D02*
X292561961Y-141642857D01*
X292561961Y-141642857D02*
X292657200Y-141738095D01*
X292657200Y-141738095D02*
X292704819Y-141880952D01*
X292704819Y-141880952D02*
X292704819Y-142119047D01*
X292800057Y-141357143D02*
X292800057Y-140595238D01*
X291800057Y-140404761D02*
X291752438Y-140357142D01*
X291752438Y-140357142D02*
X291704819Y-140261904D01*
X291704819Y-140261904D02*
X291704819Y-140023809D01*
X291704819Y-140023809D02*
X291752438Y-139928571D01*
X291752438Y-139928571D02*
X291800057Y-139880952D01*
X291800057Y-139880952D02*
X291895295Y-139833333D01*
X291895295Y-139833333D02*
X291990533Y-139833333D01*
X291990533Y-139833333D02*
X292133390Y-139880952D01*
X292133390Y-139880952D02*
X292704819Y-140452380D01*
X292704819Y-140452380D02*
X292704819Y-139833333D01*
X300204819Y-142095237D02*
X299204819Y-142095237D01*
X299204819Y-142095237D02*
X299204819Y-141857142D01*
X299204819Y-141857142D02*
X299252438Y-141714285D01*
X299252438Y-141714285D02*
X299347676Y-141619047D01*
X299347676Y-141619047D02*
X299442914Y-141571428D01*
X299442914Y-141571428D02*
X299633390Y-141523809D01*
X299633390Y-141523809D02*
X299776247Y-141523809D01*
X299776247Y-141523809D02*
X299966723Y-141571428D01*
X299966723Y-141571428D02*
X300061961Y-141619047D01*
X300061961Y-141619047D02*
X300157200Y-141714285D01*
X300157200Y-141714285D02*
X300204819Y-141857142D01*
X300204819Y-141857142D02*
X300204819Y-142095237D01*
X300300057Y-141333333D02*
X300300057Y-140571428D01*
X300204819Y-139809523D02*
X300204819Y-140380951D01*
X300204819Y-140095237D02*
X299204819Y-140095237D01*
X299204819Y-140095237D02*
X299347676Y-140190475D01*
X299347676Y-140190475D02*
X299442914Y-140285713D01*
X299442914Y-140285713D02*
X299490533Y-140380951D01*
X299204819Y-139190475D02*
X299204819Y-139095237D01*
X299204819Y-139095237D02*
X299252438Y-138999999D01*
X299252438Y-138999999D02*
X299300057Y-138952380D01*
X299300057Y-138952380D02*
X299395295Y-138904761D01*
X299395295Y-138904761D02*
X299585771Y-138857142D01*
X299585771Y-138857142D02*
X299823866Y-138857142D01*
X299823866Y-138857142D02*
X300014342Y-138904761D01*
X300014342Y-138904761D02*
X300109580Y-138952380D01*
X300109580Y-138952380D02*
X300157200Y-138999999D01*
X300157200Y-138999999D02*
X300204819Y-139095237D01*
X300204819Y-139095237D02*
X300204819Y-139190475D01*
X300204819Y-139190475D02*
X300157200Y-139285713D01*
X300157200Y-139285713D02*
X300109580Y-139333332D01*
X300109580Y-139333332D02*
X300014342Y-139380951D01*
X300014342Y-139380951D02*
X299823866Y-139428570D01*
X299823866Y-139428570D02*
X299585771Y-139428570D01*
X299585771Y-139428570D02*
X299395295Y-139380951D01*
X299395295Y-139380951D02*
X299300057Y-139333332D01*
X299300057Y-139333332D02*
X299252438Y-139285713D01*
X299252438Y-139285713D02*
X299204819Y-139190475D01*
X307704819Y-142095237D02*
X306704819Y-142095237D01*
X306704819Y-142095237D02*
X306704819Y-141857142D01*
X306704819Y-141857142D02*
X306752438Y-141714285D01*
X306752438Y-141714285D02*
X306847676Y-141619047D01*
X306847676Y-141619047D02*
X306942914Y-141571428D01*
X306942914Y-141571428D02*
X307133390Y-141523809D01*
X307133390Y-141523809D02*
X307276247Y-141523809D01*
X307276247Y-141523809D02*
X307466723Y-141571428D01*
X307466723Y-141571428D02*
X307561961Y-141619047D01*
X307561961Y-141619047D02*
X307657200Y-141714285D01*
X307657200Y-141714285D02*
X307704819Y-141857142D01*
X307704819Y-141857142D02*
X307704819Y-142095237D01*
X307800057Y-141333333D02*
X307800057Y-140571428D01*
X307704819Y-139809523D02*
X307704819Y-140380951D01*
X307704819Y-140095237D02*
X306704819Y-140095237D01*
X306704819Y-140095237D02*
X306847676Y-140190475D01*
X306847676Y-140190475D02*
X306942914Y-140285713D01*
X306942914Y-140285713D02*
X306990533Y-140380951D01*
X306704819Y-138952380D02*
X306704819Y-139142856D01*
X306704819Y-139142856D02*
X306752438Y-139238094D01*
X306752438Y-139238094D02*
X306800057Y-139285713D01*
X306800057Y-139285713D02*
X306942914Y-139380951D01*
X306942914Y-139380951D02*
X307133390Y-139428570D01*
X307133390Y-139428570D02*
X307514342Y-139428570D01*
X307514342Y-139428570D02*
X307609580Y-139380951D01*
X307609580Y-139380951D02*
X307657200Y-139333332D01*
X307657200Y-139333332D02*
X307704819Y-139238094D01*
X307704819Y-139238094D02*
X307704819Y-139047618D01*
X307704819Y-139047618D02*
X307657200Y-138952380D01*
X307657200Y-138952380D02*
X307609580Y-138904761D01*
X307609580Y-138904761D02*
X307514342Y-138857142D01*
X307514342Y-138857142D02*
X307276247Y-138857142D01*
X307276247Y-138857142D02*
X307181009Y-138904761D01*
X307181009Y-138904761D02*
X307133390Y-138952380D01*
X307133390Y-138952380D02*
X307085771Y-139047618D01*
X307085771Y-139047618D02*
X307085771Y-139238094D01*
X307085771Y-139238094D02*
X307133390Y-139333332D01*
X307133390Y-139333332D02*
X307181009Y-139380951D01*
X307181009Y-139380951D02*
X307276247Y-139428570D01*
X311454819Y-128619047D02*
X310454819Y-128619047D01*
X310454819Y-128619047D02*
X310454819Y-128380952D01*
X310454819Y-128380952D02*
X310502438Y-128238095D01*
X310502438Y-128238095D02*
X310597676Y-128142857D01*
X310597676Y-128142857D02*
X310692914Y-128095238D01*
X310692914Y-128095238D02*
X310883390Y-128047619D01*
X310883390Y-128047619D02*
X311026247Y-128047619D01*
X311026247Y-128047619D02*
X311216723Y-128095238D01*
X311216723Y-128095238D02*
X311311961Y-128142857D01*
X311311961Y-128142857D02*
X311407200Y-128238095D01*
X311407200Y-128238095D02*
X311454819Y-128380952D01*
X311454819Y-128380952D02*
X311454819Y-128619047D01*
X311550057Y-127857143D02*
X311550057Y-127095238D01*
X311454819Y-126809523D02*
X311454819Y-126619047D01*
X311454819Y-126619047D02*
X311407200Y-126523809D01*
X311407200Y-126523809D02*
X311359580Y-126476190D01*
X311359580Y-126476190D02*
X311216723Y-126380952D01*
X311216723Y-126380952D02*
X311026247Y-126333333D01*
X311026247Y-126333333D02*
X310645295Y-126333333D01*
X310645295Y-126333333D02*
X310550057Y-126380952D01*
X310550057Y-126380952D02*
X310502438Y-126428571D01*
X310502438Y-126428571D02*
X310454819Y-126523809D01*
X310454819Y-126523809D02*
X310454819Y-126714285D01*
X310454819Y-126714285D02*
X310502438Y-126809523D01*
X310502438Y-126809523D02*
X310550057Y-126857142D01*
X310550057Y-126857142D02*
X310645295Y-126904761D01*
X310645295Y-126904761D02*
X310883390Y-126904761D01*
X310883390Y-126904761D02*
X310978628Y-126857142D01*
X310978628Y-126857142D02*
X311026247Y-126809523D01*
X311026247Y-126809523D02*
X311073866Y-126714285D01*
X311073866Y-126714285D02*
X311073866Y-126523809D01*
X311073866Y-126523809D02*
X311026247Y-126428571D01*
X311026247Y-126428571D02*
X310978628Y-126380952D01*
X310978628Y-126380952D02*
X310883390Y-126333333D01*
X296454819Y-142119047D02*
X295454819Y-142119047D01*
X295454819Y-142119047D02*
X295454819Y-141880952D01*
X295454819Y-141880952D02*
X295502438Y-141738095D01*
X295502438Y-141738095D02*
X295597676Y-141642857D01*
X295597676Y-141642857D02*
X295692914Y-141595238D01*
X295692914Y-141595238D02*
X295883390Y-141547619D01*
X295883390Y-141547619D02*
X296026247Y-141547619D01*
X296026247Y-141547619D02*
X296216723Y-141595238D01*
X296216723Y-141595238D02*
X296311961Y-141642857D01*
X296311961Y-141642857D02*
X296407200Y-141738095D01*
X296407200Y-141738095D02*
X296454819Y-141880952D01*
X296454819Y-141880952D02*
X296454819Y-142119047D01*
X296550057Y-141357143D02*
X296550057Y-140595238D01*
X295454819Y-139928571D02*
X295454819Y-140119047D01*
X295454819Y-140119047D02*
X295502438Y-140214285D01*
X295502438Y-140214285D02*
X295550057Y-140261904D01*
X295550057Y-140261904D02*
X295692914Y-140357142D01*
X295692914Y-140357142D02*
X295883390Y-140404761D01*
X295883390Y-140404761D02*
X296264342Y-140404761D01*
X296264342Y-140404761D02*
X296359580Y-140357142D01*
X296359580Y-140357142D02*
X296407200Y-140309523D01*
X296407200Y-140309523D02*
X296454819Y-140214285D01*
X296454819Y-140214285D02*
X296454819Y-140023809D01*
X296454819Y-140023809D02*
X296407200Y-139928571D01*
X296407200Y-139928571D02*
X296359580Y-139880952D01*
X296359580Y-139880952D02*
X296264342Y-139833333D01*
X296264342Y-139833333D02*
X296026247Y-139833333D01*
X296026247Y-139833333D02*
X295931009Y-139880952D01*
X295931009Y-139880952D02*
X295883390Y-139928571D01*
X295883390Y-139928571D02*
X295835771Y-140023809D01*
X295835771Y-140023809D02*
X295835771Y-140214285D01*
X295835771Y-140214285D02*
X295883390Y-140309523D01*
X295883390Y-140309523D02*
X295931009Y-140357142D01*
X295931009Y-140357142D02*
X296026247Y-140404761D01*
X315204819Y-142119047D02*
X314204819Y-142119047D01*
X314204819Y-142119047D02*
X314204819Y-141880952D01*
X314204819Y-141880952D02*
X314252438Y-141738095D01*
X314252438Y-141738095D02*
X314347676Y-141642857D01*
X314347676Y-141642857D02*
X314442914Y-141595238D01*
X314442914Y-141595238D02*
X314633390Y-141547619D01*
X314633390Y-141547619D02*
X314776247Y-141547619D01*
X314776247Y-141547619D02*
X314966723Y-141595238D01*
X314966723Y-141595238D02*
X315061961Y-141642857D01*
X315061961Y-141642857D02*
X315157200Y-141738095D01*
X315157200Y-141738095D02*
X315204819Y-141880952D01*
X315204819Y-141880952D02*
X315204819Y-142119047D01*
X315300057Y-141357143D02*
X315300057Y-140595238D01*
X314204819Y-140452380D02*
X314204819Y-139785714D01*
X314204819Y-139785714D02*
X315204819Y-140214285D01*
X292704819Y-128619047D02*
X291704819Y-128619047D01*
X291704819Y-128619047D02*
X291704819Y-128380952D01*
X291704819Y-128380952D02*
X291752438Y-128238095D01*
X291752438Y-128238095D02*
X291847676Y-128142857D01*
X291847676Y-128142857D02*
X291942914Y-128095238D01*
X291942914Y-128095238D02*
X292133390Y-128047619D01*
X292133390Y-128047619D02*
X292276247Y-128047619D01*
X292276247Y-128047619D02*
X292466723Y-128095238D01*
X292466723Y-128095238D02*
X292561961Y-128142857D01*
X292561961Y-128142857D02*
X292657200Y-128238095D01*
X292657200Y-128238095D02*
X292704819Y-128380952D01*
X292704819Y-128380952D02*
X292704819Y-128619047D01*
X292800057Y-127857143D02*
X292800057Y-127095238D01*
X292038152Y-126428571D02*
X292704819Y-126428571D01*
X291657200Y-126666666D02*
X292371485Y-126904761D01*
X292371485Y-126904761D02*
X292371485Y-126285714D01*
X315204819Y-128619047D02*
X314204819Y-128619047D01*
X314204819Y-128619047D02*
X314204819Y-128380952D01*
X314204819Y-128380952D02*
X314252438Y-128238095D01*
X314252438Y-128238095D02*
X314347676Y-128142857D01*
X314347676Y-128142857D02*
X314442914Y-128095238D01*
X314442914Y-128095238D02*
X314633390Y-128047619D01*
X314633390Y-128047619D02*
X314776247Y-128047619D01*
X314776247Y-128047619D02*
X314966723Y-128095238D01*
X314966723Y-128095238D02*
X315061961Y-128142857D01*
X315061961Y-128142857D02*
X315157200Y-128238095D01*
X315157200Y-128238095D02*
X315204819Y-128380952D01*
X315204819Y-128380952D02*
X315204819Y-128619047D01*
X315300057Y-127857143D02*
X315300057Y-127095238D01*
X314204819Y-126380952D02*
X314204819Y-126857142D01*
X314204819Y-126857142D02*
X314681009Y-126904761D01*
X314681009Y-126904761D02*
X314633390Y-126857142D01*
X314633390Y-126857142D02*
X314585771Y-126761904D01*
X314585771Y-126761904D02*
X314585771Y-126523809D01*
X314585771Y-126523809D02*
X314633390Y-126428571D01*
X314633390Y-126428571D02*
X314681009Y-126380952D01*
X314681009Y-126380952D02*
X314776247Y-126333333D01*
X314776247Y-126333333D02*
X315014342Y-126333333D01*
X315014342Y-126333333D02*
X315109580Y-126380952D01*
X315109580Y-126380952D02*
X315157200Y-126428571D01*
X315157200Y-126428571D02*
X315204819Y-126523809D01*
X315204819Y-126523809D02*
X315204819Y-126761904D01*
X315204819Y-126761904D02*
X315157200Y-126857142D01*
X315157200Y-126857142D02*
X315109580Y-126904761D01*
X318954819Y-142119047D02*
X317954819Y-142119047D01*
X317954819Y-142119047D02*
X317954819Y-141880952D01*
X317954819Y-141880952D02*
X318002438Y-141738095D01*
X318002438Y-141738095D02*
X318097676Y-141642857D01*
X318097676Y-141642857D02*
X318192914Y-141595238D01*
X318192914Y-141595238D02*
X318383390Y-141547619D01*
X318383390Y-141547619D02*
X318526247Y-141547619D01*
X318526247Y-141547619D02*
X318716723Y-141595238D01*
X318716723Y-141595238D02*
X318811961Y-141642857D01*
X318811961Y-141642857D02*
X318907200Y-141738095D01*
X318907200Y-141738095D02*
X318954819Y-141880952D01*
X318954819Y-141880952D02*
X318954819Y-142119047D01*
X319050057Y-141357143D02*
X319050057Y-140595238D01*
X317954819Y-140452380D02*
X317954819Y-139833333D01*
X317954819Y-139833333D02*
X318335771Y-140166666D01*
X318335771Y-140166666D02*
X318335771Y-140023809D01*
X318335771Y-140023809D02*
X318383390Y-139928571D01*
X318383390Y-139928571D02*
X318431009Y-139880952D01*
X318431009Y-139880952D02*
X318526247Y-139833333D01*
X318526247Y-139833333D02*
X318764342Y-139833333D01*
X318764342Y-139833333D02*
X318859580Y-139880952D01*
X318859580Y-139880952D02*
X318907200Y-139928571D01*
X318907200Y-139928571D02*
X318954819Y-140023809D01*
X318954819Y-140023809D02*
X318954819Y-140309523D01*
X318954819Y-140309523D02*
X318907200Y-140404761D01*
X318907200Y-140404761D02*
X318859580Y-140452380D01*
X311454819Y-142095237D02*
X310454819Y-142095237D01*
X310454819Y-142095237D02*
X310454819Y-141857142D01*
X310454819Y-141857142D02*
X310502438Y-141714285D01*
X310502438Y-141714285D02*
X310597676Y-141619047D01*
X310597676Y-141619047D02*
X310692914Y-141571428D01*
X310692914Y-141571428D02*
X310883390Y-141523809D01*
X310883390Y-141523809D02*
X311026247Y-141523809D01*
X311026247Y-141523809D02*
X311216723Y-141571428D01*
X311216723Y-141571428D02*
X311311961Y-141619047D01*
X311311961Y-141619047D02*
X311407200Y-141714285D01*
X311407200Y-141714285D02*
X311454819Y-141857142D01*
X311454819Y-141857142D02*
X311454819Y-142095237D01*
X311550057Y-141333333D02*
X311550057Y-140571428D01*
X311454819Y-139809523D02*
X311454819Y-140380951D01*
X311454819Y-140095237D02*
X310454819Y-140095237D01*
X310454819Y-140095237D02*
X310597676Y-140190475D01*
X310597676Y-140190475D02*
X310692914Y-140285713D01*
X310692914Y-140285713D02*
X310740533Y-140380951D01*
X310788152Y-138952380D02*
X311454819Y-138952380D01*
X310407200Y-139190475D02*
X311121485Y-139428570D01*
X311121485Y-139428570D02*
X311121485Y-138809523D01*
X289204819Y-128619047D02*
X288204819Y-128619047D01*
X288204819Y-128619047D02*
X288204819Y-128380952D01*
X288204819Y-128380952D02*
X288252438Y-128238095D01*
X288252438Y-128238095D02*
X288347676Y-128142857D01*
X288347676Y-128142857D02*
X288442914Y-128095238D01*
X288442914Y-128095238D02*
X288633390Y-128047619D01*
X288633390Y-128047619D02*
X288776247Y-128047619D01*
X288776247Y-128047619D02*
X288966723Y-128095238D01*
X288966723Y-128095238D02*
X289061961Y-128142857D01*
X289061961Y-128142857D02*
X289157200Y-128238095D01*
X289157200Y-128238095D02*
X289204819Y-128380952D01*
X289204819Y-128380952D02*
X289204819Y-128619047D01*
X289300057Y-127857143D02*
X289300057Y-127095238D01*
X288204819Y-126666666D02*
X288204819Y-126571428D01*
X288204819Y-126571428D02*
X288252438Y-126476190D01*
X288252438Y-126476190D02*
X288300057Y-126428571D01*
X288300057Y-126428571D02*
X288395295Y-126380952D01*
X288395295Y-126380952D02*
X288585771Y-126333333D01*
X288585771Y-126333333D02*
X288823866Y-126333333D01*
X288823866Y-126333333D02*
X289014342Y-126380952D01*
X289014342Y-126380952D02*
X289109580Y-126428571D01*
X289109580Y-126428571D02*
X289157200Y-126476190D01*
X289157200Y-126476190D02*
X289204819Y-126571428D01*
X289204819Y-126571428D02*
X289204819Y-126666666D01*
X289204819Y-126666666D02*
X289157200Y-126761904D01*
X289157200Y-126761904D02*
X289109580Y-126809523D01*
X289109580Y-126809523D02*
X289014342Y-126857142D01*
X289014342Y-126857142D02*
X288823866Y-126904761D01*
X288823866Y-126904761D02*
X288585771Y-126904761D01*
X288585771Y-126904761D02*
X288395295Y-126857142D01*
X288395295Y-126857142D02*
X288300057Y-126809523D01*
X288300057Y-126809523D02*
X288252438Y-126761904D01*
X288252438Y-126761904D02*
X288204819Y-126666666D01*
X303954819Y-142095237D02*
X302954819Y-142095237D01*
X302954819Y-142095237D02*
X302954819Y-141857142D01*
X302954819Y-141857142D02*
X303002438Y-141714285D01*
X303002438Y-141714285D02*
X303097676Y-141619047D01*
X303097676Y-141619047D02*
X303192914Y-141571428D01*
X303192914Y-141571428D02*
X303383390Y-141523809D01*
X303383390Y-141523809D02*
X303526247Y-141523809D01*
X303526247Y-141523809D02*
X303716723Y-141571428D01*
X303716723Y-141571428D02*
X303811961Y-141619047D01*
X303811961Y-141619047D02*
X303907200Y-141714285D01*
X303907200Y-141714285D02*
X303954819Y-141857142D01*
X303954819Y-141857142D02*
X303954819Y-142095237D01*
X304050057Y-141333333D02*
X304050057Y-140571428D01*
X303954819Y-139809523D02*
X303954819Y-140380951D01*
X303954819Y-140095237D02*
X302954819Y-140095237D01*
X302954819Y-140095237D02*
X303097676Y-140190475D01*
X303097676Y-140190475D02*
X303192914Y-140285713D01*
X303192914Y-140285713D02*
X303240533Y-140380951D01*
X302954819Y-139476189D02*
X302954819Y-138857142D01*
X302954819Y-138857142D02*
X303335771Y-139190475D01*
X303335771Y-139190475D02*
X303335771Y-139047618D01*
X303335771Y-139047618D02*
X303383390Y-138952380D01*
X303383390Y-138952380D02*
X303431009Y-138904761D01*
X303431009Y-138904761D02*
X303526247Y-138857142D01*
X303526247Y-138857142D02*
X303764342Y-138857142D01*
X303764342Y-138857142D02*
X303859580Y-138904761D01*
X303859580Y-138904761D02*
X303907200Y-138952380D01*
X303907200Y-138952380D02*
X303954819Y-139047618D01*
X303954819Y-139047618D02*
X303954819Y-139333332D01*
X303954819Y-139333332D02*
X303907200Y-139428570D01*
X303907200Y-139428570D02*
X303859580Y-139476189D01*
X307704819Y-128595237D02*
X306704819Y-128595237D01*
X306704819Y-128595237D02*
X306704819Y-128357142D01*
X306704819Y-128357142D02*
X306752438Y-128214285D01*
X306752438Y-128214285D02*
X306847676Y-128119047D01*
X306847676Y-128119047D02*
X306942914Y-128071428D01*
X306942914Y-128071428D02*
X307133390Y-128023809D01*
X307133390Y-128023809D02*
X307276247Y-128023809D01*
X307276247Y-128023809D02*
X307466723Y-128071428D01*
X307466723Y-128071428D02*
X307561961Y-128119047D01*
X307561961Y-128119047D02*
X307657200Y-128214285D01*
X307657200Y-128214285D02*
X307704819Y-128357142D01*
X307704819Y-128357142D02*
X307704819Y-128595237D01*
X307800057Y-127833333D02*
X307800057Y-127071428D01*
X307704819Y-126309523D02*
X307704819Y-126880951D01*
X307704819Y-126595237D02*
X306704819Y-126595237D01*
X306704819Y-126595237D02*
X306847676Y-126690475D01*
X306847676Y-126690475D02*
X306942914Y-126785713D01*
X306942914Y-126785713D02*
X306990533Y-126880951D01*
X306800057Y-125928570D02*
X306752438Y-125880951D01*
X306752438Y-125880951D02*
X306704819Y-125785713D01*
X306704819Y-125785713D02*
X306704819Y-125547618D01*
X306704819Y-125547618D02*
X306752438Y-125452380D01*
X306752438Y-125452380D02*
X306800057Y-125404761D01*
X306800057Y-125404761D02*
X306895295Y-125357142D01*
X306895295Y-125357142D02*
X306990533Y-125357142D01*
X306990533Y-125357142D02*
X307133390Y-125404761D01*
X307133390Y-125404761D02*
X307704819Y-125976189D01*
X307704819Y-125976189D02*
X307704819Y-125357142D01*
X296454819Y-128619047D02*
X295454819Y-128619047D01*
X295454819Y-128619047D02*
X295454819Y-128380952D01*
X295454819Y-128380952D02*
X295502438Y-128238095D01*
X295502438Y-128238095D02*
X295597676Y-128142857D01*
X295597676Y-128142857D02*
X295692914Y-128095238D01*
X295692914Y-128095238D02*
X295883390Y-128047619D01*
X295883390Y-128047619D02*
X296026247Y-128047619D01*
X296026247Y-128047619D02*
X296216723Y-128095238D01*
X296216723Y-128095238D02*
X296311961Y-128142857D01*
X296311961Y-128142857D02*
X296407200Y-128238095D01*
X296407200Y-128238095D02*
X296454819Y-128380952D01*
X296454819Y-128380952D02*
X296454819Y-128619047D01*
X296550057Y-127857143D02*
X296550057Y-127095238D01*
X295883390Y-126714285D02*
X295835771Y-126809523D01*
X295835771Y-126809523D02*
X295788152Y-126857142D01*
X295788152Y-126857142D02*
X295692914Y-126904761D01*
X295692914Y-126904761D02*
X295645295Y-126904761D01*
X295645295Y-126904761D02*
X295550057Y-126857142D01*
X295550057Y-126857142D02*
X295502438Y-126809523D01*
X295502438Y-126809523D02*
X295454819Y-126714285D01*
X295454819Y-126714285D02*
X295454819Y-126523809D01*
X295454819Y-126523809D02*
X295502438Y-126428571D01*
X295502438Y-126428571D02*
X295550057Y-126380952D01*
X295550057Y-126380952D02*
X295645295Y-126333333D01*
X295645295Y-126333333D02*
X295692914Y-126333333D01*
X295692914Y-126333333D02*
X295788152Y-126380952D01*
X295788152Y-126380952D02*
X295835771Y-126428571D01*
X295835771Y-126428571D02*
X295883390Y-126523809D01*
X295883390Y-126523809D02*
X295883390Y-126714285D01*
X295883390Y-126714285D02*
X295931009Y-126809523D01*
X295931009Y-126809523D02*
X295978628Y-126857142D01*
X295978628Y-126857142D02*
X296073866Y-126904761D01*
X296073866Y-126904761D02*
X296264342Y-126904761D01*
X296264342Y-126904761D02*
X296359580Y-126857142D01*
X296359580Y-126857142D02*
X296407200Y-126809523D01*
X296407200Y-126809523D02*
X296454819Y-126714285D01*
X296454819Y-126714285D02*
X296454819Y-126523809D01*
X296454819Y-126523809D02*
X296407200Y-126428571D01*
X296407200Y-126428571D02*
X296359580Y-126380952D01*
X296359580Y-126380952D02*
X296264342Y-126333333D01*
X296264342Y-126333333D02*
X296073866Y-126333333D01*
X296073866Y-126333333D02*
X295978628Y-126380952D01*
X295978628Y-126380952D02*
X295931009Y-126428571D01*
X295931009Y-126428571D02*
X295883390Y-126523809D01*
D12*
X302372000Y-131388000D02*
X302372000Y-135628000D01*
X302372000Y-135628000D02*
X304612000Y-135628000D01*
X303492000Y-130738000D02*
X303492000Y-131388000D01*
X303492000Y-136278000D02*
X303492000Y-135628000D01*
X304612000Y-131388000D02*
X302372000Y-131388000D01*
X304612000Y-131988000D02*
X302372000Y-131988000D01*
X304612000Y-132108000D02*
X302372000Y-132108000D01*
X304612000Y-132228000D02*
X302372000Y-132228000D01*
X304612000Y-135628000D02*
X304612000Y-131388000D01*
X298622000Y-131388000D02*
X298622000Y-135628000D01*
X298622000Y-135628000D02*
X300862000Y-135628000D01*
X299742000Y-130738000D02*
X299742000Y-131388000D01*
X299742000Y-136278000D02*
X299742000Y-135628000D01*
X300862000Y-131388000D02*
X298622000Y-131388000D01*
X300862000Y-131988000D02*
X298622000Y-131988000D01*
X300862000Y-132108000D02*
X298622000Y-132108000D01*
X300862000Y-132228000D02*
X298622000Y-132228000D01*
X300862000Y-135628000D02*
X300862000Y-131388000D01*
X317372000Y-131388000D02*
X317372000Y-135628000D01*
X317372000Y-135628000D02*
X319612000Y-135628000D01*
X318492000Y-130738000D02*
X318492000Y-131388000D01*
X318492000Y-136278000D02*
X318492000Y-135628000D01*
X319612000Y-131388000D02*
X317372000Y-131388000D01*
X319612000Y-131988000D02*
X317372000Y-131988000D01*
X319612000Y-132108000D02*
X317372000Y-132108000D01*
X319612000Y-132228000D02*
X317372000Y-132228000D01*
X319612000Y-135628000D02*
X319612000Y-131388000D01*
X291122000Y-145198000D02*
X291122000Y-149438000D01*
X291122000Y-149438000D02*
X293362000Y-149438000D01*
X292242000Y-144548000D02*
X292242000Y-145198000D01*
X292242000Y-150088000D02*
X292242000Y-149438000D01*
X293362000Y-145198000D02*
X291122000Y-145198000D01*
X293362000Y-145798000D02*
X291122000Y-145798000D01*
X293362000Y-145918000D02*
X291122000Y-145918000D01*
X293362000Y-146038000D02*
X291122000Y-146038000D01*
X293362000Y-149438000D02*
X293362000Y-145198000D01*
X298622000Y-145198000D02*
X298622000Y-149438000D01*
X298622000Y-149438000D02*
X300862000Y-149438000D01*
X299742000Y-144548000D02*
X299742000Y-145198000D01*
X299742000Y-150088000D02*
X299742000Y-149438000D01*
X300862000Y-145198000D02*
X298622000Y-145198000D01*
X300862000Y-145798000D02*
X298622000Y-145798000D01*
X300862000Y-145918000D02*
X298622000Y-145918000D01*
X300862000Y-146038000D02*
X298622000Y-146038000D01*
X300862000Y-149438000D02*
X300862000Y-145198000D01*
X306122000Y-145198000D02*
X306122000Y-149438000D01*
X306122000Y-149438000D02*
X308362000Y-149438000D01*
X307242000Y-144548000D02*
X307242000Y-145198000D01*
X307242000Y-150088000D02*
X307242000Y-149438000D01*
X308362000Y-145198000D02*
X306122000Y-145198000D01*
X308362000Y-145798000D02*
X306122000Y-145798000D01*
X308362000Y-145918000D02*
X306122000Y-145918000D01*
X308362000Y-146038000D02*
X306122000Y-146038000D01*
X308362000Y-149438000D02*
X308362000Y-145198000D01*
X309872000Y-131388000D02*
X309872000Y-135628000D01*
X309872000Y-135628000D02*
X312112000Y-135628000D01*
X310992000Y-130738000D02*
X310992000Y-131388000D01*
X310992000Y-136278000D02*
X310992000Y-135628000D01*
X312112000Y-131388000D02*
X309872000Y-131388000D01*
X312112000Y-131988000D02*
X309872000Y-131988000D01*
X312112000Y-132108000D02*
X309872000Y-132108000D01*
X312112000Y-132228000D02*
X309872000Y-132228000D01*
X312112000Y-135628000D02*
X312112000Y-131388000D01*
X294872000Y-145198000D02*
X294872000Y-149438000D01*
X294872000Y-149438000D02*
X297112000Y-149438000D01*
X295992000Y-144548000D02*
X295992000Y-145198000D01*
X295992000Y-150088000D02*
X295992000Y-149438000D01*
X297112000Y-145198000D02*
X294872000Y-145198000D01*
X297112000Y-145798000D02*
X294872000Y-145798000D01*
X297112000Y-145918000D02*
X294872000Y-145918000D01*
X297112000Y-146038000D02*
X294872000Y-146038000D01*
X297112000Y-149438000D02*
X297112000Y-145198000D01*
X313622000Y-145198000D02*
X313622000Y-149438000D01*
X313622000Y-149438000D02*
X315862000Y-149438000D01*
X314742000Y-144548000D02*
X314742000Y-145198000D01*
X314742000Y-150088000D02*
X314742000Y-149438000D01*
X315862000Y-145198000D02*
X313622000Y-145198000D01*
X315862000Y-145798000D02*
X313622000Y-145798000D01*
X315862000Y-145918000D02*
X313622000Y-145918000D01*
X315862000Y-146038000D02*
X313622000Y-146038000D01*
X315862000Y-149438000D02*
X315862000Y-145198000D01*
X291122000Y-131388000D02*
X291122000Y-135628000D01*
X291122000Y-135628000D02*
X293362000Y-135628000D01*
X292242000Y-130738000D02*
X292242000Y-131388000D01*
X292242000Y-136278000D02*
X292242000Y-135628000D01*
X293362000Y-131388000D02*
X291122000Y-131388000D01*
X293362000Y-131988000D02*
X291122000Y-131988000D01*
X293362000Y-132108000D02*
X291122000Y-132108000D01*
X293362000Y-132228000D02*
X291122000Y-132228000D01*
X293362000Y-135628000D02*
X293362000Y-131388000D01*
X313622000Y-131388000D02*
X313622000Y-135628000D01*
X313622000Y-135628000D02*
X315862000Y-135628000D01*
X314742000Y-130738000D02*
X314742000Y-131388000D01*
X314742000Y-136278000D02*
X314742000Y-135628000D01*
X315862000Y-131388000D02*
X313622000Y-131388000D01*
X315862000Y-131988000D02*
X313622000Y-131988000D01*
X315862000Y-132108000D02*
X313622000Y-132108000D01*
X315862000Y-132228000D02*
X313622000Y-132228000D01*
X315862000Y-135628000D02*
X315862000Y-131388000D01*
X317372000Y-145258000D02*
X317372000Y-149498000D01*
X317372000Y-149498000D02*
X319612000Y-149498000D01*
X318492000Y-144608000D02*
X318492000Y-145258000D01*
X318492000Y-150148000D02*
X318492000Y-149498000D01*
X319612000Y-145258000D02*
X317372000Y-145258000D01*
X319612000Y-145858000D02*
X317372000Y-145858000D01*
X319612000Y-145978000D02*
X317372000Y-145978000D01*
X319612000Y-146098000D02*
X317372000Y-146098000D01*
X319612000Y-149498000D02*
X319612000Y-145258000D01*
X309872000Y-145198000D02*
X309872000Y-149438000D01*
X309872000Y-149438000D02*
X312112000Y-149438000D01*
X310992000Y-144548000D02*
X310992000Y-145198000D01*
X310992000Y-150088000D02*
X310992000Y-149438000D01*
X312112000Y-145198000D02*
X309872000Y-145198000D01*
X312112000Y-145798000D02*
X309872000Y-145798000D01*
X312112000Y-145918000D02*
X309872000Y-145918000D01*
X312112000Y-146038000D02*
X309872000Y-146038000D01*
X312112000Y-149438000D02*
X312112000Y-145198000D01*
X287622000Y-131388000D02*
X287622000Y-135628000D01*
X287622000Y-135628000D02*
X289862000Y-135628000D01*
X288742000Y-130738000D02*
X288742000Y-131388000D01*
X288742000Y-136278000D02*
X288742000Y-135628000D01*
X289862000Y-131388000D02*
X287622000Y-131388000D01*
X289862000Y-131988000D02*
X287622000Y-131988000D01*
X289862000Y-132108000D02*
X287622000Y-132108000D01*
X289862000Y-132228000D02*
X287622000Y-132228000D01*
X289862000Y-135628000D02*
X289862000Y-131388000D01*
X302372000Y-145198000D02*
X302372000Y-149438000D01*
X302372000Y-149438000D02*
X304612000Y-149438000D01*
X303492000Y-144548000D02*
X303492000Y-145198000D01*
X303492000Y-150088000D02*
X303492000Y-149438000D01*
X304612000Y-145198000D02*
X302372000Y-145198000D01*
X304612000Y-145798000D02*
X302372000Y-145798000D01*
X304612000Y-145918000D02*
X302372000Y-145918000D01*
X304612000Y-146038000D02*
X302372000Y-146038000D01*
X304612000Y-149438000D02*
X304612000Y-145198000D01*
X306122000Y-131388000D02*
X306122000Y-135628000D01*
X306122000Y-135628000D02*
X308362000Y-135628000D01*
X307242000Y-130738000D02*
X307242000Y-131388000D01*
X307242000Y-136278000D02*
X307242000Y-135628000D01*
X308362000Y-131388000D02*
X306122000Y-131388000D01*
X308362000Y-131988000D02*
X306122000Y-131988000D01*
X308362000Y-132108000D02*
X306122000Y-132108000D01*
X308362000Y-132228000D02*
X306122000Y-132228000D01*
X308362000Y-135628000D02*
X308362000Y-131388000D01*
X294872000Y-131388000D02*
X294872000Y-135628000D01*
X294872000Y-135628000D02*
X297112000Y-135628000D01*
X295992000Y-130738000D02*
X295992000Y-131388000D01*
X295992000Y-136278000D02*
X295992000Y-135628000D01*
X297112000Y-131388000D02*
X294872000Y-131388000D01*
X297112000Y-131988000D02*
X294872000Y-131988000D01*
X297112000Y-132108000D02*
X294872000Y-132108000D01*
X297112000Y-132228000D02*
X294872000Y-132228000D01*
X297112000Y-135628000D02*
X297112000Y-131388000D01*
%LPC*%
D13*
X273995000Y-201875000D03*
D14*
X275265000Y-199335000D03*
D15*
X279075000Y-201875000D03*
D14*
X281615000Y-196795000D03*
D13*
X284155000Y-201875000D03*
D16*
X303492000Y-129698000D03*
D17*
X303492000Y-137318000D03*
D16*
X299742000Y-129698000D03*
D17*
X299742000Y-137318000D03*
D15*
X308920000Y-242388000D03*
D18*
X324160000Y-242388000D03*
D13*
X317175000Y-235530000D03*
D14*
X314635000Y-234260000D03*
D15*
X317175000Y-230450000D03*
D14*
X312095000Y-227910000D03*
D13*
X317175000Y-225370000D03*
D15*
X308920000Y-218512000D03*
D18*
X324160000Y-218512000D03*
D19*
X249500000Y-237000000D03*
D20*
X249500000Y-237000000D03*
D16*
X318492000Y-129698000D03*
D17*
X318492000Y-137318000D03*
D16*
X292242000Y-143508000D03*
D17*
X292242000Y-151128000D03*
D16*
X299742000Y-143508000D03*
D17*
X299742000Y-151128000D03*
D16*
X307242000Y-143508000D03*
D17*
X307242000Y-151128000D03*
D13*
X254945000Y-182825000D03*
D14*
X256215000Y-180285000D03*
D15*
X260025000Y-182825000D03*
D14*
X262565000Y-177745000D03*
D13*
X265105000Y-182825000D03*
X254945000Y-201875000D03*
D14*
X256215000Y-199335000D03*
D15*
X260025000Y-201875000D03*
D14*
X262565000Y-196795000D03*
D13*
X265105000Y-201875000D03*
X254945000Y-163775000D03*
D14*
X256215000Y-161235000D03*
D15*
X260025000Y-163775000D03*
D14*
X262565000Y-158695000D03*
D13*
X265105000Y-163775000D03*
X293045000Y-239975000D03*
D14*
X294315000Y-237435000D03*
D15*
X298125000Y-239975000D03*
D14*
X300665000Y-234895000D03*
D13*
X303205000Y-239975000D03*
D16*
X310992000Y-129698000D03*
D17*
X310992000Y-137318000D03*
D16*
X295992000Y-143508000D03*
D17*
X295992000Y-151128000D03*
D20*
X327500000Y-154000000D03*
D19*
X327500000Y-154000000D03*
D13*
X273995000Y-220925000D03*
D14*
X275265000Y-218385000D03*
D15*
X279075000Y-220925000D03*
D14*
X281615000Y-215845000D03*
D13*
X284155000Y-220925000D03*
D16*
X314742000Y-143508000D03*
D17*
X314742000Y-151128000D03*
D16*
X292242000Y-129698000D03*
D17*
X292242000Y-137318000D03*
D15*
X308920000Y-204258000D03*
D18*
X324160000Y-204258000D03*
D13*
X317175000Y-197400000D03*
D14*
X314635000Y-196130000D03*
D15*
X317175000Y-192320000D03*
D14*
X312095000Y-189780000D03*
D13*
X317175000Y-187240000D03*
D15*
X308920000Y-180382000D03*
D18*
X324160000Y-180382000D03*
D13*
X254945000Y-220925000D03*
D14*
X256215000Y-218385000D03*
D15*
X260025000Y-220925000D03*
D14*
X262565000Y-215845000D03*
D13*
X265105000Y-220925000D03*
X293045000Y-220925000D03*
D14*
X294315000Y-218385000D03*
D15*
X298125000Y-220925000D03*
D14*
X300665000Y-215845000D03*
D13*
X303205000Y-220925000D03*
X293045000Y-182825000D03*
D14*
X294315000Y-180285000D03*
D15*
X298125000Y-182825000D03*
D14*
X300665000Y-177745000D03*
D13*
X303205000Y-182825000D03*
D16*
X314742000Y-129698000D03*
D17*
X314742000Y-137318000D03*
D16*
X318492000Y-143568000D03*
D17*
X318492000Y-151188000D03*
D20*
X249500000Y-154000000D03*
D19*
X249500000Y-154000000D03*
D20*
X327500000Y-237000000D03*
D19*
X327500000Y-237000000D03*
D13*
X293045000Y-201875000D03*
D14*
X294315000Y-199335000D03*
D15*
X298125000Y-201875000D03*
D14*
X300665000Y-196795000D03*
D13*
X303205000Y-201875000D03*
X273995000Y-182825000D03*
D14*
X275265000Y-180285000D03*
D15*
X279075000Y-182825000D03*
D14*
X281615000Y-177745000D03*
D13*
X284155000Y-182825000D03*
X312095000Y-163775000D03*
D14*
X313365000Y-161235000D03*
D15*
X317175000Y-163775000D03*
D14*
X319715000Y-158695000D03*
D13*
X322255000Y-163775000D03*
D16*
X310992000Y-143508000D03*
D17*
X310992000Y-151128000D03*
D15*
X257612000Y-231720000D03*
D18*
X257612000Y-246960000D03*
D13*
X264470000Y-239975000D03*
D14*
X265740000Y-237435000D03*
D15*
X269550000Y-239975000D03*
D14*
X272090000Y-234895000D03*
D13*
X274630000Y-239975000D03*
D15*
X281488000Y-231720000D03*
D18*
X281488000Y-246960000D03*
D13*
X293045000Y-163775000D03*
D14*
X294315000Y-161235000D03*
D15*
X298125000Y-163775000D03*
D14*
X300665000Y-158695000D03*
D13*
X303205000Y-163775000D03*
X273995000Y-163775000D03*
D14*
X275265000Y-161235000D03*
D15*
X279075000Y-163775000D03*
D14*
X281615000Y-158695000D03*
D13*
X284155000Y-163775000D03*
D16*
X288742000Y-129698000D03*
D17*
X288742000Y-137318000D03*
D16*
X303492000Y-143508000D03*
D17*
X303492000Y-151128000D03*
D16*
X307242000Y-129698000D03*
D17*
X307242000Y-137318000D03*
D19*
X288500000Y-192000000D03*
D20*
X288500000Y-192000000D03*
D16*
X295992000Y-129698000D03*
D17*
X295992000Y-137318000D03*
D21*
X251829500Y-132388000D03*
X254369500Y-132388000D03*
D22*
X256909500Y-132388000D03*
X259449500Y-132388000D03*
D21*
X261989500Y-132388000D03*
X264529500Y-132388000D03*
X267069500Y-132388000D03*
X269609500Y-132388000D03*
X272149500Y-132388000D03*
X274689500Y-132388000D03*
X277229500Y-132388000D03*
X279769500Y-132388000D03*
D23*
X251829500Y-147628000D03*
D22*
X254369500Y-147628000D03*
D21*
X256909500Y-147628000D03*
X259449500Y-147628000D03*
X261989500Y-147628000D03*
X264529500Y-147628000D03*
X267069500Y-147628000D03*
X269609500Y-147628000D03*
X272149500Y-147628000D03*
X274689500Y-147628000D03*
X277229500Y-147628000D03*
X279769500Y-147628000D03*
X274689500Y-134928000D03*
X274689500Y-137468000D03*
X274689500Y-140008000D03*
D22*
X249289500Y-132388000D03*
D21*
X249289500Y-147628000D03*
%LPD*%
M02*
