M48
; DRILL file {KiCad 8.0.6} date 2024-12-20T23:32:23+0800
; FORMAT={-:-/ absolute / metric / decimal}
; #@! TF.CreationDate,2024-12-20T23:32:23+08:00
; #@! TF.GenerationSoftware,Kicad,Pcbnew,8.0.6
; #@! TF.FileFunction,NonPlated,1,2,NPTH
FMAT,2
METRIC
; #@! TA.AperFunction,NonPlated,NPTH,ComponentDrill
T1C1.750
; #@! TA.AperFunction,NonPlated,NPTH,ComponentDrill
T2C3.000
; #@! TA.AperFunction,NonPlated,NPTH,ComponentDrill
T3C3.048
; #@! TA.AperFunction,NonPlated,NPTH,ComponentDrill
T4C3.988
%
G90
G05
T1
X254.945Y-163.775
X254.945Y-182.825
X254.945Y-201.875
X254.945Y-220.925
X264.47Y-239.975
X265.105Y-163.775
X265.105Y-182.825
X265.105Y-201.875
X265.105Y-220.925
X273.995Y-163.775
X273.995Y-182.825
X273.995Y-201.875
X273.995Y-220.925
X274.63Y-239.975
X284.155Y-163.775
X284.155Y-182.825
X284.155Y-201.875
X284.155Y-220.925
X293.045Y-163.775
X293.045Y-182.825
X293.045Y-201.875
X293.045Y-220.925
X293.045Y-239.975
X303.205Y-163.775
X303.205Y-182.825
X303.205Y-201.875
X303.205Y-220.925
X303.205Y-239.975
X312.095Y-163.775
X317.175Y-187.24
X317.175Y-197.4
X317.175Y-225.37
X317.175Y-235.53
X322.255Y-163.775
T2
X256.215Y-161.235
X256.215Y-180.285
X256.215Y-199.335
X256.215Y-218.385
X262.565Y-158.695
X262.565Y-177.745
X262.565Y-196.795
X262.565Y-215.845
X265.74Y-237.435
X272.09Y-234.895
X275.265Y-161.235
X275.265Y-180.285
X275.265Y-199.335
X275.265Y-218.385
X281.615Y-158.695
X281.615Y-177.745
X281.615Y-196.795
X281.615Y-215.845
X294.315Y-161.235
X294.315Y-180.285
X294.315Y-199.335
X294.315Y-218.385
X294.315Y-237.435
X300.665Y-158.695
X300.665Y-177.745
X300.665Y-196.795
X300.665Y-215.845
X300.665Y-234.895
X312.095Y-189.78
X312.095Y-227.91
X313.365Y-161.235
X314.635Y-196.13
X314.635Y-234.26
X319.715Y-158.695
T3
X257.612Y-246.96
X281.488Y-246.96
X324.16Y-180.382
X324.16Y-204.258
X324.16Y-218.512
X324.16Y-242.388
T4
X257.612Y-231.72
X260.025Y-163.775
X260.025Y-182.825
X260.025Y-201.875
X260.025Y-220.925
X269.55Y-239.975
X279.075Y-163.775
X279.075Y-182.825
X279.075Y-201.875
X279.075Y-220.925
X281.488Y-231.72
X298.125Y-163.775
X298.125Y-182.825
X298.125Y-201.875
X298.125Y-220.925
X298.125Y-239.975
X308.92Y-180.382
X308.92Y-204.258
X308.92Y-218.512
X308.92Y-242.388
X317.175Y-163.775
X317.175Y-192.32
X317.175Y-230.45
M30
