G04 #@! TF.GenerationSoftware,KiCad,Pcbnew,8.0.6*
G04 #@! TF.CreationDate,2024-12-20T23:31:47+08:00*
G04 #@! TF.ProjectId,keyboard,6b657962-6f61-4726-942e-6b696361645f,rev?*
G04 #@! TF.SameCoordinates,Original*
G04 #@! TF.FileFunction,Legend,Bot*
G04 #@! TF.FilePolarity,Positive*
%FSLAX46Y46*%
G04 Gerber Fmt 4.6, Leading zero omitted, Abs format (unit mm)*
G04 Created by KiCad (PCBNEW 8.0.6) date 2024-12-20 23:31:47*
%MOMM*%
%LPD*%
G01*
G04 APERTURE LIST*
%ADD10C,0.150000*%
%ADD11C,1.750000*%
%ADD12C,3.000000*%
%ADD13C,3.987800*%
%ADD14R,2.550000X2.500000*%
%ADD15R,1.600000X1.600000*%
%ADD16O,1.600000X1.600000*%
%ADD17C,3.048000*%
%ADD18R,2.500000X2.550000*%
%ADD19C,3.500000*%
%ADD20C,2.600000*%
G04 APERTURE END LIST*
D10*
X268204819Y-141360588D02*
X269014342Y-141360588D01*
X269014342Y-141360588D02*
X269109580Y-141312969D01*
X269109580Y-141312969D02*
X269157200Y-141265350D01*
X269157200Y-141265350D02*
X269204819Y-141170112D01*
X269204819Y-141170112D02*
X269204819Y-140979636D01*
X269204819Y-140979636D02*
X269157200Y-140884398D01*
X269157200Y-140884398D02*
X269109580Y-140836779D01*
X269109580Y-140836779D02*
X269014342Y-140789160D01*
X269014342Y-140789160D02*
X268204819Y-140789160D01*
X269204819Y-139789160D02*
X269204819Y-140360588D01*
X269204819Y-140074874D02*
X268204819Y-140074874D01*
X268204819Y-140074874D02*
X268347676Y-140170112D01*
X268347676Y-140170112D02*
X268442914Y-140265350D01*
X268442914Y-140265350D02*
X268490533Y-140360588D01*
X248469319Y-138746095D02*
X249278842Y-138746095D01*
X249278842Y-138746095D02*
X249374080Y-138793714D01*
X249374080Y-138793714D02*
X249421700Y-138841333D01*
X249421700Y-138841333D02*
X249469319Y-138936571D01*
X249469319Y-138936571D02*
X249469319Y-139127047D01*
X249469319Y-139127047D02*
X249421700Y-139222285D01*
X249421700Y-139222285D02*
X249374080Y-139269904D01*
X249374080Y-139269904D02*
X249278842Y-139317523D01*
X249278842Y-139317523D02*
X248469319Y-139317523D01*
X249421700Y-139746095D02*
X249469319Y-139888952D01*
X249469319Y-139888952D02*
X249469319Y-140127047D01*
X249469319Y-140127047D02*
X249421700Y-140222285D01*
X249421700Y-140222285D02*
X249374080Y-140269904D01*
X249374080Y-140269904D02*
X249278842Y-140317523D01*
X249278842Y-140317523D02*
X249183604Y-140317523D01*
X249183604Y-140317523D02*
X249088366Y-140269904D01*
X249088366Y-140269904D02*
X249040747Y-140222285D01*
X249040747Y-140222285D02*
X248993128Y-140127047D01*
X248993128Y-140127047D02*
X248945509Y-139936571D01*
X248945509Y-139936571D02*
X248897890Y-139841333D01*
X248897890Y-139841333D02*
X248850271Y-139793714D01*
X248850271Y-139793714D02*
X248755033Y-139746095D01*
X248755033Y-139746095D02*
X248659795Y-139746095D01*
X248659795Y-139746095D02*
X248564557Y-139793714D01*
X248564557Y-139793714D02*
X248516938Y-139841333D01*
X248516938Y-139841333D02*
X248469319Y-139936571D01*
X248469319Y-139936571D02*
X248469319Y-140174666D01*
X248469319Y-140174666D02*
X248516938Y-140317523D01*
X248945509Y-141079428D02*
X248993128Y-141222285D01*
X248993128Y-141222285D02*
X249040747Y-141269904D01*
X249040747Y-141269904D02*
X249135985Y-141317523D01*
X249135985Y-141317523D02*
X249278842Y-141317523D01*
X249278842Y-141317523D02*
X249374080Y-141269904D01*
X249374080Y-141269904D02*
X249421700Y-141222285D01*
X249421700Y-141222285D02*
X249469319Y-141127047D01*
X249469319Y-141127047D02*
X249469319Y-140746095D01*
X249469319Y-140746095D02*
X248469319Y-140746095D01*
X248469319Y-140746095D02*
X248469319Y-141079428D01*
X248469319Y-141079428D02*
X248516938Y-141174666D01*
X248516938Y-141174666D02*
X248564557Y-141222285D01*
X248564557Y-141222285D02*
X248659795Y-141269904D01*
X248659795Y-141269904D02*
X248755033Y-141269904D01*
X248755033Y-141269904D02*
X248850271Y-141222285D01*
X248850271Y-141222285D02*
X248897890Y-141174666D01*
X248897890Y-141174666D02*
X248945509Y-141079428D01*
X248945509Y-141079428D02*
X248945509Y-140746095D01*
X248019500Y-136458000D02*
X251599500Y-136458000D01*
X248019500Y-143558000D02*
X251599500Y-143558000D01*
X251599500Y-136458000D02*
X251599500Y-143558000D01*
X248019500Y-131118000D02*
X281039500Y-131118000D01*
X281039500Y-148898000D01*
X248019500Y-148898000D01*
X248019500Y-131118000D01*
%LPC*%
D11*
X273995000Y-201875000D03*
D12*
X275265000Y-199335000D03*
D13*
X279075000Y-201875000D03*
D12*
X281615000Y-196795000D03*
D11*
X284155000Y-201875000D03*
D14*
X271990000Y-199335000D03*
X284917000Y-196795000D03*
D15*
X303492000Y-129698000D03*
D16*
X303492000Y-137318000D03*
D15*
X299742000Y-129698000D03*
D16*
X299742000Y-137318000D03*
D13*
X308920000Y-242388000D03*
D17*
X324160000Y-242388000D03*
D11*
X317175000Y-235530000D03*
D12*
X314635000Y-234260000D03*
D13*
X317175000Y-230450000D03*
D12*
X312095000Y-227910000D03*
D11*
X317175000Y-225370000D03*
D13*
X308920000Y-218512000D03*
D17*
X324160000Y-218512000D03*
D18*
X314635000Y-237535000D03*
X312095000Y-224608000D03*
D19*
X248750000Y-245000000D03*
D20*
X248750000Y-245000000D03*
D15*
X318492000Y-129698000D03*
D16*
X318492000Y-137318000D03*
D15*
X292242000Y-143508000D03*
D16*
X292242000Y-151128000D03*
D15*
X299742000Y-143508000D03*
D16*
X299742000Y-151128000D03*
D15*
X307242000Y-143508000D03*
D16*
X307242000Y-151128000D03*
D11*
X254945000Y-182825000D03*
D12*
X256215000Y-180285000D03*
D13*
X260025000Y-182825000D03*
D12*
X262565000Y-177745000D03*
D11*
X265105000Y-182825000D03*
D14*
X252940000Y-180285000D03*
X265867000Y-177745000D03*
D11*
X254945000Y-201875000D03*
D12*
X256215000Y-199335000D03*
D13*
X260025000Y-201875000D03*
D12*
X262565000Y-196795000D03*
D11*
X265105000Y-201875000D03*
D14*
X252940000Y-199335000D03*
X265867000Y-196795000D03*
D11*
X254945000Y-163775000D03*
D12*
X256215000Y-161235000D03*
D13*
X260025000Y-163775000D03*
D12*
X262565000Y-158695000D03*
D11*
X265105000Y-163775000D03*
D14*
X252940000Y-161235000D03*
X265867000Y-158695000D03*
D11*
X293045000Y-239975000D03*
D12*
X294315000Y-237435000D03*
D13*
X298125000Y-239975000D03*
D12*
X300665000Y-234895000D03*
D11*
X303205000Y-239975000D03*
D14*
X291040000Y-237435000D03*
X303967000Y-234895000D03*
D15*
X310992000Y-129698000D03*
D16*
X310992000Y-137318000D03*
D15*
X295992000Y-143508000D03*
D16*
X295992000Y-151128000D03*
D20*
X328500000Y-154000000D03*
D19*
X328500000Y-154000000D03*
D11*
X273995000Y-220925000D03*
D12*
X275265000Y-218385000D03*
D13*
X279075000Y-220925000D03*
D12*
X281615000Y-215845000D03*
D11*
X284155000Y-220925000D03*
D14*
X271990000Y-218385000D03*
X284917000Y-215845000D03*
D15*
X314742000Y-143508000D03*
D16*
X314742000Y-151128000D03*
D15*
X292242000Y-129698000D03*
D16*
X292242000Y-137318000D03*
D13*
X308920000Y-204258000D03*
D17*
X324160000Y-204258000D03*
D11*
X317175000Y-197400000D03*
D12*
X314635000Y-196130000D03*
D13*
X317175000Y-192320000D03*
D12*
X312095000Y-189780000D03*
D11*
X317175000Y-187240000D03*
D13*
X308920000Y-180382000D03*
D17*
X324160000Y-180382000D03*
D18*
X314635000Y-199405000D03*
X312095000Y-186478000D03*
D11*
X254945000Y-220925000D03*
D12*
X256215000Y-218385000D03*
D13*
X260025000Y-220925000D03*
D12*
X262565000Y-215845000D03*
D11*
X265105000Y-220925000D03*
D14*
X252940000Y-218385000D03*
X265867000Y-215845000D03*
D11*
X293045000Y-220925000D03*
D12*
X294315000Y-218385000D03*
D13*
X298125000Y-220925000D03*
D12*
X300665000Y-215845000D03*
D11*
X303205000Y-220925000D03*
D14*
X291040000Y-218385000D03*
X303967000Y-215845000D03*
D11*
X293045000Y-182825000D03*
D12*
X294315000Y-180285000D03*
D13*
X298125000Y-182825000D03*
D12*
X300665000Y-177745000D03*
D11*
X303205000Y-182825000D03*
D14*
X291040000Y-180285000D03*
X303967000Y-177745000D03*
D15*
X314742000Y-129698000D03*
D16*
X314742000Y-137318000D03*
D15*
X318492000Y-143568000D03*
D16*
X318492000Y-151188000D03*
D20*
X248750000Y-154000000D03*
D19*
X248750000Y-154000000D03*
D20*
X328500000Y-245000000D03*
D19*
X328500000Y-245000000D03*
D11*
X293045000Y-201875000D03*
D12*
X294315000Y-199335000D03*
D13*
X298125000Y-201875000D03*
D12*
X300665000Y-196795000D03*
D11*
X303205000Y-201875000D03*
D14*
X291040000Y-199335000D03*
X303967000Y-196795000D03*
D11*
X273995000Y-182825000D03*
D12*
X275265000Y-180285000D03*
D13*
X279075000Y-182825000D03*
D12*
X281615000Y-177745000D03*
D11*
X284155000Y-182825000D03*
D14*
X271990000Y-180285000D03*
X284917000Y-177745000D03*
D11*
X312095000Y-163775000D03*
D12*
X313365000Y-161235000D03*
D13*
X317175000Y-163775000D03*
D12*
X319715000Y-158695000D03*
D11*
X322255000Y-163775000D03*
D14*
X310090000Y-161235000D03*
X323017000Y-158695000D03*
D15*
X310992000Y-143508000D03*
D16*
X310992000Y-151128000D03*
D13*
X257612000Y-231720000D03*
D17*
X257612000Y-246960000D03*
D11*
X264470000Y-239975000D03*
D12*
X265740000Y-237435000D03*
D13*
X269550000Y-239975000D03*
D12*
X272090000Y-234895000D03*
D11*
X274630000Y-239975000D03*
D13*
X281488000Y-231720000D03*
D17*
X281488000Y-246960000D03*
D14*
X262465000Y-237435000D03*
X275392000Y-234895000D03*
D11*
X293045000Y-163775000D03*
D12*
X294315000Y-161235000D03*
D13*
X298125000Y-163775000D03*
D12*
X300665000Y-158695000D03*
D11*
X303205000Y-163775000D03*
D14*
X291040000Y-161235000D03*
X303967000Y-158695000D03*
D11*
X273995000Y-163775000D03*
D12*
X275265000Y-161235000D03*
D13*
X279075000Y-163775000D03*
D12*
X281615000Y-158695000D03*
D11*
X284155000Y-163775000D03*
D14*
X271990000Y-161235000D03*
X284917000Y-158695000D03*
D15*
X288742000Y-129698000D03*
D16*
X288742000Y-137318000D03*
D15*
X303492000Y-143508000D03*
D16*
X303492000Y-151128000D03*
D15*
X307242000Y-129698000D03*
D16*
X307242000Y-137318000D03*
D19*
X288625000Y-192250000D03*
D20*
X288625000Y-192250000D03*
D15*
X295992000Y-129698000D03*
D16*
X295992000Y-137318000D03*
%LPD*%
M02*
