%TF.GenerationSoftware,KiCad,Pcbnew,8.0.6*%
%TF.CreationDate,2024-12-19T22:26:00+08:00*%
%TF.ProjectId,keyboard,6b657962-6f61-4726-942e-6b696361645f,rev?*%
%TF.SameCoordinates,Original*%
%TF.FileFunction,Drillmap*%
%TF.FilePolarity,Positive*%
%FSLAX45Y45*%
G04 Gerber Fmt 4.5, Leading zero omitted, Abs format (unit mm)*
G04 Created by KiCad (PCBNEW 8.0.6) date 2024-12-19 22:26:00*
%MOMM*%
%LPD*%
G01*
G04 APERTURE LIST*
%ADD10C,0.100000*%
%ADD11C,0.200000*%
%ADD12C,0.220000*%
G04 APERTURE END LIST*
D10*
X33160000Y-24701066D02*
G75*
G02*
X32860000Y-25001070I-300000J-4D01*
G01*
X24860000Y-25000000D02*
X32860000Y-25001066D01*
X24860000Y-25000000D02*
G75*
G02*
X24560000Y-24700000I0J300000D01*
G01*
X24560000Y-12800000D02*
G75*
G02*
X24860000Y-12500000I300000J0D01*
G01*
X32860000Y-12500000D02*
G75*
G02*
X33160000Y-12800000I0J-300000D01*
G01*
X33160000Y-12800000D02*
X33160000Y-24701066D01*
X24860000Y-12500000D02*
X32860000Y-12500000D01*
X24560000Y-12800000D02*
X24560000Y-24700000D01*
D11*
D10*
X27179200Y-15330800D02*
X27219200Y-15370800D01*
X27219200Y-15330800D02*
X27179200Y-15370800D01*
X29054200Y-15330800D02*
X29094200Y-15370800D01*
X29094200Y-15330800D02*
X29054200Y-15370800D01*
X30979200Y-15355800D02*
X31019200Y-15395800D01*
X31019200Y-15355800D02*
X30979200Y-15395800D01*
X31279200Y-14480800D02*
X31319200Y-14520800D01*
X31319200Y-14480800D02*
X31279200Y-14520800D01*
X31629200Y-14663300D02*
X31669200Y-14703300D01*
X31669200Y-14663300D02*
X31629200Y-14703300D01*
X31829200Y-14480800D02*
X31869200Y-14520800D01*
X31869200Y-14480800D02*
X31829200Y-14520800D01*
X28914200Y-12969800D02*
G75*
G02*
X28834200Y-12969800I-40000J0D01*
G01*
X28834200Y-12969800D02*
G75*
G02*
X28914200Y-12969800I40000J0D01*
G01*
X28914200Y-13731800D02*
G75*
G02*
X28834200Y-13731800I-40000J0D01*
G01*
X28834200Y-13731800D02*
G75*
G02*
X28914200Y-13731800I40000J0D01*
G01*
X29264200Y-12969800D02*
G75*
G02*
X29184200Y-12969800I-40000J0D01*
G01*
X29184200Y-12969800D02*
G75*
G02*
X29264200Y-12969800I40000J0D01*
G01*
X29264200Y-13731800D02*
G75*
G02*
X29184200Y-13731800I-40000J0D01*
G01*
X29184200Y-13731800D02*
G75*
G02*
X29264200Y-13731800I40000J0D01*
G01*
X29264200Y-14350800D02*
G75*
G02*
X29184200Y-14350800I-40000J0D01*
G01*
X29184200Y-14350800D02*
G75*
G02*
X29264200Y-14350800I40000J0D01*
G01*
X29264200Y-15112800D02*
G75*
G02*
X29184200Y-15112800I-40000J0D01*
G01*
X29184200Y-15112800D02*
G75*
G02*
X29264200Y-15112800I40000J0D01*
G01*
X29639200Y-12969800D02*
G75*
G02*
X29559200Y-12969800I-40000J0D01*
G01*
X29559200Y-12969800D02*
G75*
G02*
X29639200Y-12969800I40000J0D01*
G01*
X29639200Y-13731800D02*
G75*
G02*
X29559200Y-13731800I-40000J0D01*
G01*
X29559200Y-13731800D02*
G75*
G02*
X29639200Y-13731800I40000J0D01*
G01*
X29639200Y-14350800D02*
G75*
G02*
X29559200Y-14350800I-40000J0D01*
G01*
X29559200Y-14350800D02*
G75*
G02*
X29639200Y-14350800I40000J0D01*
G01*
X29639200Y-15112800D02*
G75*
G02*
X29559200Y-15112800I-40000J0D01*
G01*
X29559200Y-15112800D02*
G75*
G02*
X29639200Y-15112800I40000J0D01*
G01*
X30014200Y-12969800D02*
G75*
G02*
X29934200Y-12969800I-40000J0D01*
G01*
X29934200Y-12969800D02*
G75*
G02*
X30014200Y-12969800I40000J0D01*
G01*
X30014200Y-13731800D02*
G75*
G02*
X29934200Y-13731800I-40000J0D01*
G01*
X29934200Y-13731800D02*
G75*
G02*
X30014200Y-13731800I40000J0D01*
G01*
X30014200Y-14350800D02*
G75*
G02*
X29934200Y-14350800I-40000J0D01*
G01*
X29934200Y-14350800D02*
G75*
G02*
X30014200Y-14350800I40000J0D01*
G01*
X30014200Y-15112800D02*
G75*
G02*
X29934200Y-15112800I-40000J0D01*
G01*
X29934200Y-15112800D02*
G75*
G02*
X30014200Y-15112800I40000J0D01*
G01*
X30389200Y-12969800D02*
G75*
G02*
X30309200Y-12969800I-40000J0D01*
G01*
X30309200Y-12969800D02*
G75*
G02*
X30389200Y-12969800I40000J0D01*
G01*
X30389200Y-13731800D02*
G75*
G02*
X30309200Y-13731800I-40000J0D01*
G01*
X30309200Y-13731800D02*
G75*
G02*
X30389200Y-13731800I40000J0D01*
G01*
X30389200Y-14350800D02*
G75*
G02*
X30309200Y-14350800I-40000J0D01*
G01*
X30309200Y-14350800D02*
G75*
G02*
X30389200Y-14350800I40000J0D01*
G01*
X30389200Y-15112800D02*
G75*
G02*
X30309200Y-15112800I-40000J0D01*
G01*
X30309200Y-15112800D02*
G75*
G02*
X30389200Y-15112800I40000J0D01*
G01*
X30764200Y-12969800D02*
G75*
G02*
X30684200Y-12969800I-40000J0D01*
G01*
X30684200Y-12969800D02*
G75*
G02*
X30764200Y-12969800I40000J0D01*
G01*
X30764200Y-13731800D02*
G75*
G02*
X30684200Y-13731800I-40000J0D01*
G01*
X30684200Y-13731800D02*
G75*
G02*
X30764200Y-13731800I40000J0D01*
G01*
X30764200Y-14350800D02*
G75*
G02*
X30684200Y-14350800I-40000J0D01*
G01*
X30684200Y-14350800D02*
G75*
G02*
X30764200Y-14350800I40000J0D01*
G01*
X30764200Y-15112800D02*
G75*
G02*
X30684200Y-15112800I-40000J0D01*
G01*
X30684200Y-15112800D02*
G75*
G02*
X30764200Y-15112800I40000J0D01*
G01*
X31139200Y-12969800D02*
G75*
G02*
X31059200Y-12969800I-40000J0D01*
G01*
X31059200Y-12969800D02*
G75*
G02*
X31139200Y-12969800I40000J0D01*
G01*
X31139200Y-13731800D02*
G75*
G02*
X31059200Y-13731800I-40000J0D01*
G01*
X31059200Y-13731800D02*
G75*
G02*
X31139200Y-13731800I40000J0D01*
G01*
X31139200Y-14350800D02*
G75*
G02*
X31059200Y-14350800I-40000J0D01*
G01*
X31059200Y-14350800D02*
G75*
G02*
X31139200Y-14350800I40000J0D01*
G01*
X31139200Y-15112800D02*
G75*
G02*
X31059200Y-15112800I-40000J0D01*
G01*
X31059200Y-15112800D02*
G75*
G02*
X31139200Y-15112800I40000J0D01*
G01*
X31514200Y-12969800D02*
G75*
G02*
X31434200Y-12969800I-40000J0D01*
G01*
X31434200Y-12969800D02*
G75*
G02*
X31514200Y-12969800I40000J0D01*
G01*
X31514200Y-13731800D02*
G75*
G02*
X31434200Y-13731800I-40000J0D01*
G01*
X31434200Y-13731800D02*
G75*
G02*
X31514200Y-13731800I40000J0D01*
G01*
X31514200Y-14350800D02*
G75*
G02*
X31434200Y-14350800I-40000J0D01*
G01*
X31434200Y-14350800D02*
G75*
G02*
X31514200Y-14350800I40000J0D01*
G01*
X31514200Y-15112800D02*
G75*
G02*
X31434200Y-15112800I-40000J0D01*
G01*
X31434200Y-15112800D02*
G75*
G02*
X31514200Y-15112800I40000J0D01*
G01*
X31889200Y-12969800D02*
G75*
G02*
X31809200Y-12969800I-40000J0D01*
G01*
X31809200Y-12969800D02*
G75*
G02*
X31889200Y-12969800I40000J0D01*
G01*
X31889200Y-13731800D02*
G75*
G02*
X31809200Y-13731800I-40000J0D01*
G01*
X31809200Y-13731800D02*
G75*
G02*
X31889200Y-13731800I40000J0D01*
G01*
X31889200Y-14356800D02*
G75*
G02*
X31809200Y-14356800I-40000J0D01*
G01*
X31809200Y-14356800D02*
G75*
G02*
X31889200Y-14356800I40000J0D01*
G01*
X31889200Y-15118800D02*
G75*
G02*
X31809200Y-15118800I-40000J0D01*
G01*
X31809200Y-15118800D02*
G75*
G02*
X31889200Y-15118800I40000J0D01*
G01*
X24928950Y-13188800D02*
X24928950Y-13288800D01*
X24878950Y-13238800D02*
X24978950Y-13238800D01*
X24928950Y-14712800D02*
X24928950Y-14812800D01*
X24878950Y-14762800D02*
X24978950Y-14762800D01*
X25182950Y-13188800D02*
X25182950Y-13288800D01*
X25132950Y-13238800D02*
X25232950Y-13238800D01*
X25182950Y-14712800D02*
X25182950Y-14812800D01*
X25132950Y-14762800D02*
X25232950Y-14762800D01*
X25436950Y-13188800D02*
X25436950Y-13288800D01*
X25386950Y-13238800D02*
X25486950Y-13238800D01*
X25436950Y-14712800D02*
X25436950Y-14812800D01*
X25386950Y-14762800D02*
X25486950Y-14762800D01*
X25690950Y-13188800D02*
X25690950Y-13288800D01*
X25640950Y-13238800D02*
X25740950Y-13238800D01*
X25690950Y-14712800D02*
X25690950Y-14812800D01*
X25640950Y-14762800D02*
X25740950Y-14762800D01*
X25944950Y-13188800D02*
X25944950Y-13288800D01*
X25894950Y-13238800D02*
X25994950Y-13238800D01*
X25944950Y-14712800D02*
X25944950Y-14812800D01*
X25894950Y-14762800D02*
X25994950Y-14762800D01*
X26198950Y-13188800D02*
X26198950Y-13288800D01*
X26148950Y-13238800D02*
X26248950Y-13238800D01*
X26198950Y-14712800D02*
X26198950Y-14812800D01*
X26148950Y-14762800D02*
X26248950Y-14762800D01*
X26452950Y-13188800D02*
X26452950Y-13288800D01*
X26402950Y-13238800D02*
X26502950Y-13238800D01*
X26452950Y-14712800D02*
X26452950Y-14812800D01*
X26402950Y-14762800D02*
X26502950Y-14762800D01*
X26706950Y-13188800D02*
X26706950Y-13288800D01*
X26656950Y-13238800D02*
X26756950Y-13238800D01*
X26706950Y-14712800D02*
X26706950Y-14812800D01*
X26656950Y-14762800D02*
X26756950Y-14762800D01*
X26960950Y-13188800D02*
X26960950Y-13288800D01*
X26910950Y-13238800D02*
X27010950Y-13238800D01*
X26960950Y-14712800D02*
X26960950Y-14812800D01*
X26910950Y-14762800D02*
X27010950Y-14762800D01*
X27214950Y-13188800D02*
X27214950Y-13288800D01*
X27164950Y-13238800D02*
X27264950Y-13238800D01*
X27214950Y-14712800D02*
X27214950Y-14812800D01*
X27164950Y-14762800D02*
X27264950Y-14762800D01*
X27468950Y-13188800D02*
X27468950Y-13288800D01*
X27418950Y-13238800D02*
X27518950Y-13238800D01*
X27468950Y-13442800D02*
X27468950Y-13542800D01*
X27418950Y-13492800D02*
X27518950Y-13492800D01*
X27468950Y-13696800D02*
X27468950Y-13796800D01*
X27418950Y-13746800D02*
X27518950Y-13746800D01*
X27468950Y-13950800D02*
X27468950Y-14050800D01*
X27418950Y-14000800D02*
X27518950Y-14000800D01*
X27468950Y-14712800D02*
X27468950Y-14812800D01*
X27418950Y-14762800D02*
X27518950Y-14762800D01*
X27722950Y-13188800D02*
X27722950Y-13288800D01*
X27672950Y-13238800D02*
X27772950Y-13238800D01*
X27722950Y-14712800D02*
X27722950Y-14812800D01*
X27672950Y-14762800D02*
X27772950Y-14762800D01*
X27976950Y-13188800D02*
X27976950Y-13288800D01*
X27926950Y-13238800D02*
X28026950Y-13238800D01*
X27976950Y-14712800D02*
X27976950Y-14812800D01*
X27926950Y-14762800D02*
X28026950Y-14762800D01*
D12*
X24977782Y-15477782D02*
X24977782Y-15322217D01*
X24822217Y-15322217D01*
X24822217Y-15477782D01*
X24977782Y-15477782D01*
X24977782Y-24577782D02*
X24977782Y-24422217D01*
X24822217Y-24422217D01*
X24822217Y-24577782D01*
X24977782Y-24577782D01*
X28927782Y-19302783D02*
X28927782Y-19147218D01*
X28772217Y-19147218D01*
X28772217Y-19302783D01*
X28927782Y-19302783D01*
X32927782Y-15477782D02*
X32927782Y-15322217D01*
X32772217Y-15322217D01*
X32772217Y-15477782D01*
X32927782Y-15477782D01*
X32927782Y-24577782D02*
X32927782Y-24422217D01*
X32772217Y-24422217D01*
X32772217Y-24577782D01*
X32927782Y-24577782D01*
D11*
X24815777Y-25317550D02*
X24815777Y-25117550D01*
X24815777Y-25117550D02*
X24863396Y-25117550D01*
X24863396Y-25117550D02*
X24891967Y-25127074D01*
X24891967Y-25127074D02*
X24911015Y-25146121D01*
X24911015Y-25146121D02*
X24920539Y-25165169D01*
X24920539Y-25165169D02*
X24930062Y-25203264D01*
X24930062Y-25203264D02*
X24930062Y-25231835D01*
X24930062Y-25231835D02*
X24920539Y-25269931D01*
X24920539Y-25269931D02*
X24911015Y-25288978D01*
X24911015Y-25288978D02*
X24891967Y-25308026D01*
X24891967Y-25308026D02*
X24863396Y-25317550D01*
X24863396Y-25317550D02*
X24815777Y-25317550D01*
X25015777Y-25317550D02*
X25015777Y-25184216D01*
X25015777Y-25222312D02*
X25025300Y-25203264D01*
X25025300Y-25203264D02*
X25034824Y-25193740D01*
X25034824Y-25193740D02*
X25053872Y-25184216D01*
X25053872Y-25184216D02*
X25072920Y-25184216D01*
X25139586Y-25317550D02*
X25139586Y-25184216D01*
X25139586Y-25117550D02*
X25130062Y-25127074D01*
X25130062Y-25127074D02*
X25139586Y-25136597D01*
X25139586Y-25136597D02*
X25149110Y-25127074D01*
X25149110Y-25127074D02*
X25139586Y-25117550D01*
X25139586Y-25117550D02*
X25139586Y-25136597D01*
X25263396Y-25317550D02*
X25244348Y-25308026D01*
X25244348Y-25308026D02*
X25234824Y-25288978D01*
X25234824Y-25288978D02*
X25234824Y-25117550D01*
X25368158Y-25317550D02*
X25349110Y-25308026D01*
X25349110Y-25308026D02*
X25339586Y-25288978D01*
X25339586Y-25288978D02*
X25339586Y-25117550D01*
X25596729Y-25317550D02*
X25596729Y-25117550D01*
X25596729Y-25117550D02*
X25663396Y-25260407D01*
X25663396Y-25260407D02*
X25730062Y-25117550D01*
X25730062Y-25117550D02*
X25730062Y-25317550D01*
X25911015Y-25317550D02*
X25911015Y-25212788D01*
X25911015Y-25212788D02*
X25901491Y-25193740D01*
X25901491Y-25193740D02*
X25882443Y-25184216D01*
X25882443Y-25184216D02*
X25844348Y-25184216D01*
X25844348Y-25184216D02*
X25825300Y-25193740D01*
X25911015Y-25308026D02*
X25891967Y-25317550D01*
X25891967Y-25317550D02*
X25844348Y-25317550D01*
X25844348Y-25317550D02*
X25825300Y-25308026D01*
X25825300Y-25308026D02*
X25815777Y-25288978D01*
X25815777Y-25288978D02*
X25815777Y-25269931D01*
X25815777Y-25269931D02*
X25825300Y-25250883D01*
X25825300Y-25250883D02*
X25844348Y-25241359D01*
X25844348Y-25241359D02*
X25891967Y-25241359D01*
X25891967Y-25241359D02*
X25911015Y-25231835D01*
X26006253Y-25184216D02*
X26006253Y-25384216D01*
X26006253Y-25193740D02*
X26025300Y-25184216D01*
X26025300Y-25184216D02*
X26063396Y-25184216D01*
X26063396Y-25184216D02*
X26082443Y-25193740D01*
X26082443Y-25193740D02*
X26091967Y-25203264D01*
X26091967Y-25203264D02*
X26101491Y-25222312D01*
X26101491Y-25222312D02*
X26101491Y-25279454D01*
X26101491Y-25279454D02*
X26091967Y-25298502D01*
X26091967Y-25298502D02*
X26082443Y-25308026D01*
X26082443Y-25308026D02*
X26063396Y-25317550D01*
X26063396Y-25317550D02*
X26025300Y-25317550D01*
X26025300Y-25317550D02*
X26006253Y-25308026D01*
X26187205Y-25298502D02*
X26196729Y-25308026D01*
X26196729Y-25308026D02*
X26187205Y-25317550D01*
X26187205Y-25317550D02*
X26177681Y-25308026D01*
X26177681Y-25308026D02*
X26187205Y-25298502D01*
X26187205Y-25298502D02*
X26187205Y-25317550D01*
X26187205Y-25193740D02*
X26196729Y-25203264D01*
X26196729Y-25203264D02*
X26187205Y-25212788D01*
X26187205Y-25212788D02*
X26177681Y-25203264D01*
X26177681Y-25203264D02*
X26187205Y-25193740D01*
X26187205Y-25193740D02*
X26187205Y-25212788D01*
D10*
X24515000Y-25626066D02*
X24555000Y-25666066D01*
X24555000Y-25626066D02*
X24515000Y-25666066D01*
D11*
X24853872Y-25537550D02*
X24872920Y-25537550D01*
X24872920Y-25537550D02*
X24891967Y-25547074D01*
X24891967Y-25547074D02*
X24901491Y-25556597D01*
X24901491Y-25556597D02*
X24911015Y-25575645D01*
X24911015Y-25575645D02*
X24920539Y-25613740D01*
X24920539Y-25613740D02*
X24920539Y-25661359D01*
X24920539Y-25661359D02*
X24911015Y-25699454D01*
X24911015Y-25699454D02*
X24901491Y-25718502D01*
X24901491Y-25718502D02*
X24891967Y-25728026D01*
X24891967Y-25728026D02*
X24872920Y-25737550D01*
X24872920Y-25737550D02*
X24853872Y-25737550D01*
X24853872Y-25737550D02*
X24834824Y-25728026D01*
X24834824Y-25728026D02*
X24825300Y-25718502D01*
X24825300Y-25718502D02*
X24815777Y-25699454D01*
X24815777Y-25699454D02*
X24806253Y-25661359D01*
X24806253Y-25661359D02*
X24806253Y-25613740D01*
X24806253Y-25613740D02*
X24815777Y-25575645D01*
X24815777Y-25575645D02*
X24825300Y-25556597D01*
X24825300Y-25556597D02*
X24834824Y-25547074D01*
X24834824Y-25547074D02*
X24853872Y-25537550D01*
X25006253Y-25718502D02*
X25015777Y-25728026D01*
X25015777Y-25728026D02*
X25006253Y-25737550D01*
X25006253Y-25737550D02*
X24996729Y-25728026D01*
X24996729Y-25728026D02*
X25006253Y-25718502D01*
X25006253Y-25718502D02*
X25006253Y-25737550D01*
X25187205Y-25604216D02*
X25187205Y-25737550D01*
X25139586Y-25528026D02*
X25091967Y-25670883D01*
X25091967Y-25670883D02*
X25215777Y-25670883D01*
X25330062Y-25537550D02*
X25349110Y-25537550D01*
X25349110Y-25537550D02*
X25368158Y-25547074D01*
X25368158Y-25547074D02*
X25377681Y-25556597D01*
X25377681Y-25556597D02*
X25387205Y-25575645D01*
X25387205Y-25575645D02*
X25396729Y-25613740D01*
X25396729Y-25613740D02*
X25396729Y-25661359D01*
X25396729Y-25661359D02*
X25387205Y-25699454D01*
X25387205Y-25699454D02*
X25377681Y-25718502D01*
X25377681Y-25718502D02*
X25368158Y-25728026D01*
X25368158Y-25728026D02*
X25349110Y-25737550D01*
X25349110Y-25737550D02*
X25330062Y-25737550D01*
X25330062Y-25737550D02*
X25311015Y-25728026D01*
X25311015Y-25728026D02*
X25301491Y-25718502D01*
X25301491Y-25718502D02*
X25291967Y-25699454D01*
X25291967Y-25699454D02*
X25282443Y-25661359D01*
X25282443Y-25661359D02*
X25282443Y-25613740D01*
X25282443Y-25613740D02*
X25291967Y-25575645D01*
X25291967Y-25575645D02*
X25301491Y-25556597D01*
X25301491Y-25556597D02*
X25311015Y-25547074D01*
X25311015Y-25547074D02*
X25330062Y-25537550D01*
X25520539Y-25537550D02*
X25539586Y-25537550D01*
X25539586Y-25537550D02*
X25558634Y-25547074D01*
X25558634Y-25547074D02*
X25568158Y-25556597D01*
X25568158Y-25556597D02*
X25577681Y-25575645D01*
X25577681Y-25575645D02*
X25587205Y-25613740D01*
X25587205Y-25613740D02*
X25587205Y-25661359D01*
X25587205Y-25661359D02*
X25577681Y-25699454D01*
X25577681Y-25699454D02*
X25568158Y-25718502D01*
X25568158Y-25718502D02*
X25558634Y-25728026D01*
X25558634Y-25728026D02*
X25539586Y-25737550D01*
X25539586Y-25737550D02*
X25520539Y-25737550D01*
X25520539Y-25737550D02*
X25501491Y-25728026D01*
X25501491Y-25728026D02*
X25491967Y-25718502D01*
X25491967Y-25718502D02*
X25482443Y-25699454D01*
X25482443Y-25699454D02*
X25472920Y-25661359D01*
X25472920Y-25661359D02*
X25472920Y-25613740D01*
X25472920Y-25613740D02*
X25482443Y-25575645D01*
X25482443Y-25575645D02*
X25491967Y-25556597D01*
X25491967Y-25556597D02*
X25501491Y-25547074D01*
X25501491Y-25547074D02*
X25520539Y-25537550D01*
X25672920Y-25737550D02*
X25672920Y-25604216D01*
X25672920Y-25623264D02*
X25682443Y-25613740D01*
X25682443Y-25613740D02*
X25701491Y-25604216D01*
X25701491Y-25604216D02*
X25730062Y-25604216D01*
X25730062Y-25604216D02*
X25749110Y-25613740D01*
X25749110Y-25613740D02*
X25758634Y-25632788D01*
X25758634Y-25632788D02*
X25758634Y-25737550D01*
X25758634Y-25632788D02*
X25768158Y-25613740D01*
X25768158Y-25613740D02*
X25787205Y-25604216D01*
X25787205Y-25604216D02*
X25815777Y-25604216D01*
X25815777Y-25604216D02*
X25834824Y-25613740D01*
X25834824Y-25613740D02*
X25844348Y-25632788D01*
X25844348Y-25632788D02*
X25844348Y-25737550D01*
X25939586Y-25737550D02*
X25939586Y-25604216D01*
X25939586Y-25623264D02*
X25949110Y-25613740D01*
X25949110Y-25613740D02*
X25968158Y-25604216D01*
X25968158Y-25604216D02*
X25996729Y-25604216D01*
X25996729Y-25604216D02*
X26015777Y-25613740D01*
X26015777Y-25613740D02*
X26025301Y-25632788D01*
X26025301Y-25632788D02*
X26025301Y-25737550D01*
X26025301Y-25632788D02*
X26034824Y-25613740D01*
X26034824Y-25613740D02*
X26053872Y-25604216D01*
X26053872Y-25604216D02*
X26082443Y-25604216D01*
X26082443Y-25604216D02*
X26101491Y-25613740D01*
X26101491Y-25613740D02*
X26111015Y-25632788D01*
X26111015Y-25632788D02*
X26111015Y-25737550D01*
X26501491Y-25528026D02*
X26330063Y-25785169D01*
X26758634Y-25537550D02*
X26777682Y-25537550D01*
X26777682Y-25537550D02*
X26796729Y-25547074D01*
X26796729Y-25547074D02*
X26806253Y-25556597D01*
X26806253Y-25556597D02*
X26815777Y-25575645D01*
X26815777Y-25575645D02*
X26825301Y-25613740D01*
X26825301Y-25613740D02*
X26825301Y-25661359D01*
X26825301Y-25661359D02*
X26815777Y-25699454D01*
X26815777Y-25699454D02*
X26806253Y-25718502D01*
X26806253Y-25718502D02*
X26796729Y-25728026D01*
X26796729Y-25728026D02*
X26777682Y-25737550D01*
X26777682Y-25737550D02*
X26758634Y-25737550D01*
X26758634Y-25737550D02*
X26739586Y-25728026D01*
X26739586Y-25728026D02*
X26730063Y-25718502D01*
X26730063Y-25718502D02*
X26720539Y-25699454D01*
X26720539Y-25699454D02*
X26711015Y-25661359D01*
X26711015Y-25661359D02*
X26711015Y-25613740D01*
X26711015Y-25613740D02*
X26720539Y-25575645D01*
X26720539Y-25575645D02*
X26730063Y-25556597D01*
X26730063Y-25556597D02*
X26739586Y-25547074D01*
X26739586Y-25547074D02*
X26758634Y-25537550D01*
X26911015Y-25718502D02*
X26920539Y-25728026D01*
X26920539Y-25728026D02*
X26911015Y-25737550D01*
X26911015Y-25737550D02*
X26901491Y-25728026D01*
X26901491Y-25728026D02*
X26911015Y-25718502D01*
X26911015Y-25718502D02*
X26911015Y-25737550D01*
X27044348Y-25537550D02*
X27063396Y-25537550D01*
X27063396Y-25537550D02*
X27082444Y-25547074D01*
X27082444Y-25547074D02*
X27091967Y-25556597D01*
X27091967Y-25556597D02*
X27101491Y-25575645D01*
X27101491Y-25575645D02*
X27111015Y-25613740D01*
X27111015Y-25613740D02*
X27111015Y-25661359D01*
X27111015Y-25661359D02*
X27101491Y-25699454D01*
X27101491Y-25699454D02*
X27091967Y-25718502D01*
X27091967Y-25718502D02*
X27082444Y-25728026D01*
X27082444Y-25728026D02*
X27063396Y-25737550D01*
X27063396Y-25737550D02*
X27044348Y-25737550D01*
X27044348Y-25737550D02*
X27025301Y-25728026D01*
X27025301Y-25728026D02*
X27015777Y-25718502D01*
X27015777Y-25718502D02*
X27006253Y-25699454D01*
X27006253Y-25699454D02*
X26996729Y-25661359D01*
X26996729Y-25661359D02*
X26996729Y-25613740D01*
X26996729Y-25613740D02*
X27006253Y-25575645D01*
X27006253Y-25575645D02*
X27015777Y-25556597D01*
X27015777Y-25556597D02*
X27025301Y-25547074D01*
X27025301Y-25547074D02*
X27044348Y-25537550D01*
X27301491Y-25737550D02*
X27187205Y-25737550D01*
X27244348Y-25737550D02*
X27244348Y-25537550D01*
X27244348Y-25537550D02*
X27225301Y-25566121D01*
X27225301Y-25566121D02*
X27206253Y-25585169D01*
X27206253Y-25585169D02*
X27187205Y-25594693D01*
X27482444Y-25537550D02*
X27387205Y-25537550D01*
X27387205Y-25537550D02*
X27377682Y-25632788D01*
X27377682Y-25632788D02*
X27387205Y-25623264D01*
X27387205Y-25623264D02*
X27406253Y-25613740D01*
X27406253Y-25613740D02*
X27453872Y-25613740D01*
X27453872Y-25613740D02*
X27472920Y-25623264D01*
X27472920Y-25623264D02*
X27482444Y-25632788D01*
X27482444Y-25632788D02*
X27491967Y-25651835D01*
X27491967Y-25651835D02*
X27491967Y-25699454D01*
X27491967Y-25699454D02*
X27482444Y-25718502D01*
X27482444Y-25718502D02*
X27472920Y-25728026D01*
X27472920Y-25728026D02*
X27453872Y-25737550D01*
X27453872Y-25737550D02*
X27406253Y-25737550D01*
X27406253Y-25737550D02*
X27387205Y-25728026D01*
X27387205Y-25728026D02*
X27377682Y-25718502D01*
X27558634Y-25537550D02*
X27691967Y-25537550D01*
X27691967Y-25537550D02*
X27606253Y-25737550D01*
X27758634Y-25537550D02*
X27758634Y-25575645D01*
X27834825Y-25537550D02*
X27834825Y-25575645D01*
X28130063Y-25813740D02*
X28120539Y-25804216D01*
X28120539Y-25804216D02*
X28101491Y-25775645D01*
X28101491Y-25775645D02*
X28091967Y-25756597D01*
X28091967Y-25756597D02*
X28082444Y-25728026D01*
X28082444Y-25728026D02*
X28072920Y-25680407D01*
X28072920Y-25680407D02*
X28072920Y-25642312D01*
X28072920Y-25642312D02*
X28082444Y-25594693D01*
X28082444Y-25594693D02*
X28091967Y-25566121D01*
X28091967Y-25566121D02*
X28101491Y-25547074D01*
X28101491Y-25547074D02*
X28120539Y-25518502D01*
X28120539Y-25518502D02*
X28130063Y-25508978D01*
X28291967Y-25537550D02*
X28253872Y-25537550D01*
X28253872Y-25537550D02*
X28234825Y-25547074D01*
X28234825Y-25547074D02*
X28225301Y-25556597D01*
X28225301Y-25556597D02*
X28206253Y-25585169D01*
X28206253Y-25585169D02*
X28196729Y-25623264D01*
X28196729Y-25623264D02*
X28196729Y-25699454D01*
X28196729Y-25699454D02*
X28206253Y-25718502D01*
X28206253Y-25718502D02*
X28215777Y-25728026D01*
X28215777Y-25728026D02*
X28234825Y-25737550D01*
X28234825Y-25737550D02*
X28272920Y-25737550D01*
X28272920Y-25737550D02*
X28291967Y-25728026D01*
X28291967Y-25728026D02*
X28301491Y-25718502D01*
X28301491Y-25718502D02*
X28311015Y-25699454D01*
X28311015Y-25699454D02*
X28311015Y-25651835D01*
X28311015Y-25651835D02*
X28301491Y-25632788D01*
X28301491Y-25632788D02*
X28291967Y-25623264D01*
X28291967Y-25623264D02*
X28272920Y-25613740D01*
X28272920Y-25613740D02*
X28234825Y-25613740D01*
X28234825Y-25613740D02*
X28215777Y-25623264D01*
X28215777Y-25623264D02*
X28206253Y-25632788D01*
X28206253Y-25632788D02*
X28196729Y-25651835D01*
X28549110Y-25737550D02*
X28549110Y-25537550D01*
X28634825Y-25737550D02*
X28634825Y-25632788D01*
X28634825Y-25632788D02*
X28625301Y-25613740D01*
X28625301Y-25613740D02*
X28606253Y-25604216D01*
X28606253Y-25604216D02*
X28577682Y-25604216D01*
X28577682Y-25604216D02*
X28558634Y-25613740D01*
X28558634Y-25613740D02*
X28549110Y-25623264D01*
X28758634Y-25737550D02*
X28739587Y-25728026D01*
X28739587Y-25728026D02*
X28730063Y-25718502D01*
X28730063Y-25718502D02*
X28720539Y-25699454D01*
X28720539Y-25699454D02*
X28720539Y-25642312D01*
X28720539Y-25642312D02*
X28730063Y-25623264D01*
X28730063Y-25623264D02*
X28739587Y-25613740D01*
X28739587Y-25613740D02*
X28758634Y-25604216D01*
X28758634Y-25604216D02*
X28787206Y-25604216D01*
X28787206Y-25604216D02*
X28806253Y-25613740D01*
X28806253Y-25613740D02*
X28815777Y-25623264D01*
X28815777Y-25623264D02*
X28825301Y-25642312D01*
X28825301Y-25642312D02*
X28825301Y-25699454D01*
X28825301Y-25699454D02*
X28815777Y-25718502D01*
X28815777Y-25718502D02*
X28806253Y-25728026D01*
X28806253Y-25728026D02*
X28787206Y-25737550D01*
X28787206Y-25737550D02*
X28758634Y-25737550D01*
X28939587Y-25737550D02*
X28920539Y-25728026D01*
X28920539Y-25728026D02*
X28911015Y-25708978D01*
X28911015Y-25708978D02*
X28911015Y-25537550D01*
X29091968Y-25728026D02*
X29072920Y-25737550D01*
X29072920Y-25737550D02*
X29034825Y-25737550D01*
X29034825Y-25737550D02*
X29015777Y-25728026D01*
X29015777Y-25728026D02*
X29006253Y-25708978D01*
X29006253Y-25708978D02*
X29006253Y-25632788D01*
X29006253Y-25632788D02*
X29015777Y-25613740D01*
X29015777Y-25613740D02*
X29034825Y-25604216D01*
X29034825Y-25604216D02*
X29072920Y-25604216D01*
X29072920Y-25604216D02*
X29091968Y-25613740D01*
X29091968Y-25613740D02*
X29101491Y-25632788D01*
X29101491Y-25632788D02*
X29101491Y-25651835D01*
X29101491Y-25651835D02*
X29006253Y-25670883D01*
X29177682Y-25728026D02*
X29196729Y-25737550D01*
X29196729Y-25737550D02*
X29234825Y-25737550D01*
X29234825Y-25737550D02*
X29253872Y-25728026D01*
X29253872Y-25728026D02*
X29263396Y-25708978D01*
X29263396Y-25708978D02*
X29263396Y-25699454D01*
X29263396Y-25699454D02*
X29253872Y-25680407D01*
X29253872Y-25680407D02*
X29234825Y-25670883D01*
X29234825Y-25670883D02*
X29206253Y-25670883D01*
X29206253Y-25670883D02*
X29187206Y-25661359D01*
X29187206Y-25661359D02*
X29177682Y-25642312D01*
X29177682Y-25642312D02*
X29177682Y-25632788D01*
X29177682Y-25632788D02*
X29187206Y-25613740D01*
X29187206Y-25613740D02*
X29206253Y-25604216D01*
X29206253Y-25604216D02*
X29234825Y-25604216D01*
X29234825Y-25604216D02*
X29253872Y-25613740D01*
X29330063Y-25813740D02*
X29339587Y-25804216D01*
X29339587Y-25804216D02*
X29358634Y-25775645D01*
X29358634Y-25775645D02*
X29368158Y-25756597D01*
X29368158Y-25756597D02*
X29377682Y-25728026D01*
X29377682Y-25728026D02*
X29387206Y-25680407D01*
X29387206Y-25680407D02*
X29387206Y-25642312D01*
X29387206Y-25642312D02*
X29377682Y-25594693D01*
X29377682Y-25594693D02*
X29368158Y-25566121D01*
X29368158Y-25566121D02*
X29358634Y-25547074D01*
X29358634Y-25547074D02*
X29339587Y-25518502D01*
X29339587Y-25518502D02*
X29330063Y-25508978D01*
D10*
X24555000Y-25910066D02*
G75*
G02*
X24475000Y-25910066I-40000J0D01*
G01*
X24475000Y-25910066D02*
G75*
G02*
X24555000Y-25910066I40000J0D01*
G01*
D11*
X24853872Y-25801550D02*
X24872920Y-25801550D01*
X24872920Y-25801550D02*
X24891967Y-25811074D01*
X24891967Y-25811074D02*
X24901491Y-25820597D01*
X24901491Y-25820597D02*
X24911015Y-25839645D01*
X24911015Y-25839645D02*
X24920539Y-25877740D01*
X24920539Y-25877740D02*
X24920539Y-25925359D01*
X24920539Y-25925359D02*
X24911015Y-25963454D01*
X24911015Y-25963454D02*
X24901491Y-25982502D01*
X24901491Y-25982502D02*
X24891967Y-25992026D01*
X24891967Y-25992026D02*
X24872920Y-26001550D01*
X24872920Y-26001550D02*
X24853872Y-26001550D01*
X24853872Y-26001550D02*
X24834824Y-25992026D01*
X24834824Y-25992026D02*
X24825300Y-25982502D01*
X24825300Y-25982502D02*
X24815777Y-25963454D01*
X24815777Y-25963454D02*
X24806253Y-25925359D01*
X24806253Y-25925359D02*
X24806253Y-25877740D01*
X24806253Y-25877740D02*
X24815777Y-25839645D01*
X24815777Y-25839645D02*
X24825300Y-25820597D01*
X24825300Y-25820597D02*
X24834824Y-25811074D01*
X24834824Y-25811074D02*
X24853872Y-25801550D01*
X25006253Y-25982502D02*
X25015777Y-25992026D01*
X25015777Y-25992026D02*
X25006253Y-26001550D01*
X25006253Y-26001550D02*
X24996729Y-25992026D01*
X24996729Y-25992026D02*
X25006253Y-25982502D01*
X25006253Y-25982502D02*
X25006253Y-26001550D01*
X25130062Y-25887264D02*
X25111015Y-25877740D01*
X25111015Y-25877740D02*
X25101491Y-25868216D01*
X25101491Y-25868216D02*
X25091967Y-25849169D01*
X25091967Y-25849169D02*
X25091967Y-25839645D01*
X25091967Y-25839645D02*
X25101491Y-25820597D01*
X25101491Y-25820597D02*
X25111015Y-25811074D01*
X25111015Y-25811074D02*
X25130062Y-25801550D01*
X25130062Y-25801550D02*
X25168158Y-25801550D01*
X25168158Y-25801550D02*
X25187205Y-25811074D01*
X25187205Y-25811074D02*
X25196729Y-25820597D01*
X25196729Y-25820597D02*
X25206253Y-25839645D01*
X25206253Y-25839645D02*
X25206253Y-25849169D01*
X25206253Y-25849169D02*
X25196729Y-25868216D01*
X25196729Y-25868216D02*
X25187205Y-25877740D01*
X25187205Y-25877740D02*
X25168158Y-25887264D01*
X25168158Y-25887264D02*
X25130062Y-25887264D01*
X25130062Y-25887264D02*
X25111015Y-25896788D01*
X25111015Y-25896788D02*
X25101491Y-25906312D01*
X25101491Y-25906312D02*
X25091967Y-25925359D01*
X25091967Y-25925359D02*
X25091967Y-25963454D01*
X25091967Y-25963454D02*
X25101491Y-25982502D01*
X25101491Y-25982502D02*
X25111015Y-25992026D01*
X25111015Y-25992026D02*
X25130062Y-26001550D01*
X25130062Y-26001550D02*
X25168158Y-26001550D01*
X25168158Y-26001550D02*
X25187205Y-25992026D01*
X25187205Y-25992026D02*
X25196729Y-25982502D01*
X25196729Y-25982502D02*
X25206253Y-25963454D01*
X25206253Y-25963454D02*
X25206253Y-25925359D01*
X25206253Y-25925359D02*
X25196729Y-25906312D01*
X25196729Y-25906312D02*
X25187205Y-25896788D01*
X25187205Y-25896788D02*
X25168158Y-25887264D01*
X25330062Y-25801550D02*
X25349110Y-25801550D01*
X25349110Y-25801550D02*
X25368158Y-25811074D01*
X25368158Y-25811074D02*
X25377681Y-25820597D01*
X25377681Y-25820597D02*
X25387205Y-25839645D01*
X25387205Y-25839645D02*
X25396729Y-25877740D01*
X25396729Y-25877740D02*
X25396729Y-25925359D01*
X25396729Y-25925359D02*
X25387205Y-25963454D01*
X25387205Y-25963454D02*
X25377681Y-25982502D01*
X25377681Y-25982502D02*
X25368158Y-25992026D01*
X25368158Y-25992026D02*
X25349110Y-26001550D01*
X25349110Y-26001550D02*
X25330062Y-26001550D01*
X25330062Y-26001550D02*
X25311015Y-25992026D01*
X25311015Y-25992026D02*
X25301491Y-25982502D01*
X25301491Y-25982502D02*
X25291967Y-25963454D01*
X25291967Y-25963454D02*
X25282443Y-25925359D01*
X25282443Y-25925359D02*
X25282443Y-25877740D01*
X25282443Y-25877740D02*
X25291967Y-25839645D01*
X25291967Y-25839645D02*
X25301491Y-25820597D01*
X25301491Y-25820597D02*
X25311015Y-25811074D01*
X25311015Y-25811074D02*
X25330062Y-25801550D01*
X25520539Y-25801550D02*
X25539586Y-25801550D01*
X25539586Y-25801550D02*
X25558634Y-25811074D01*
X25558634Y-25811074D02*
X25568158Y-25820597D01*
X25568158Y-25820597D02*
X25577681Y-25839645D01*
X25577681Y-25839645D02*
X25587205Y-25877740D01*
X25587205Y-25877740D02*
X25587205Y-25925359D01*
X25587205Y-25925359D02*
X25577681Y-25963454D01*
X25577681Y-25963454D02*
X25568158Y-25982502D01*
X25568158Y-25982502D02*
X25558634Y-25992026D01*
X25558634Y-25992026D02*
X25539586Y-26001550D01*
X25539586Y-26001550D02*
X25520539Y-26001550D01*
X25520539Y-26001550D02*
X25501491Y-25992026D01*
X25501491Y-25992026D02*
X25491967Y-25982502D01*
X25491967Y-25982502D02*
X25482443Y-25963454D01*
X25482443Y-25963454D02*
X25472920Y-25925359D01*
X25472920Y-25925359D02*
X25472920Y-25877740D01*
X25472920Y-25877740D02*
X25482443Y-25839645D01*
X25482443Y-25839645D02*
X25491967Y-25820597D01*
X25491967Y-25820597D02*
X25501491Y-25811074D01*
X25501491Y-25811074D02*
X25520539Y-25801550D01*
X25672920Y-26001550D02*
X25672920Y-25868216D01*
X25672920Y-25887264D02*
X25682443Y-25877740D01*
X25682443Y-25877740D02*
X25701491Y-25868216D01*
X25701491Y-25868216D02*
X25730062Y-25868216D01*
X25730062Y-25868216D02*
X25749110Y-25877740D01*
X25749110Y-25877740D02*
X25758634Y-25896788D01*
X25758634Y-25896788D02*
X25758634Y-26001550D01*
X25758634Y-25896788D02*
X25768158Y-25877740D01*
X25768158Y-25877740D02*
X25787205Y-25868216D01*
X25787205Y-25868216D02*
X25815777Y-25868216D01*
X25815777Y-25868216D02*
X25834824Y-25877740D01*
X25834824Y-25877740D02*
X25844348Y-25896788D01*
X25844348Y-25896788D02*
X25844348Y-26001550D01*
X25939586Y-26001550D02*
X25939586Y-25868216D01*
X25939586Y-25887264D02*
X25949110Y-25877740D01*
X25949110Y-25877740D02*
X25968158Y-25868216D01*
X25968158Y-25868216D02*
X25996729Y-25868216D01*
X25996729Y-25868216D02*
X26015777Y-25877740D01*
X26015777Y-25877740D02*
X26025301Y-25896788D01*
X26025301Y-25896788D02*
X26025301Y-26001550D01*
X26025301Y-25896788D02*
X26034824Y-25877740D01*
X26034824Y-25877740D02*
X26053872Y-25868216D01*
X26053872Y-25868216D02*
X26082443Y-25868216D01*
X26082443Y-25868216D02*
X26101491Y-25877740D01*
X26101491Y-25877740D02*
X26111015Y-25896788D01*
X26111015Y-25896788D02*
X26111015Y-26001550D01*
X26501491Y-25792026D02*
X26330063Y-26049169D01*
X26758634Y-25801550D02*
X26777682Y-25801550D01*
X26777682Y-25801550D02*
X26796729Y-25811074D01*
X26796729Y-25811074D02*
X26806253Y-25820597D01*
X26806253Y-25820597D02*
X26815777Y-25839645D01*
X26815777Y-25839645D02*
X26825301Y-25877740D01*
X26825301Y-25877740D02*
X26825301Y-25925359D01*
X26825301Y-25925359D02*
X26815777Y-25963454D01*
X26815777Y-25963454D02*
X26806253Y-25982502D01*
X26806253Y-25982502D02*
X26796729Y-25992026D01*
X26796729Y-25992026D02*
X26777682Y-26001550D01*
X26777682Y-26001550D02*
X26758634Y-26001550D01*
X26758634Y-26001550D02*
X26739586Y-25992026D01*
X26739586Y-25992026D02*
X26730063Y-25982502D01*
X26730063Y-25982502D02*
X26720539Y-25963454D01*
X26720539Y-25963454D02*
X26711015Y-25925359D01*
X26711015Y-25925359D02*
X26711015Y-25877740D01*
X26711015Y-25877740D02*
X26720539Y-25839645D01*
X26720539Y-25839645D02*
X26730063Y-25820597D01*
X26730063Y-25820597D02*
X26739586Y-25811074D01*
X26739586Y-25811074D02*
X26758634Y-25801550D01*
X26911015Y-25982502D02*
X26920539Y-25992026D01*
X26920539Y-25992026D02*
X26911015Y-26001550D01*
X26911015Y-26001550D02*
X26901491Y-25992026D01*
X26901491Y-25992026D02*
X26911015Y-25982502D01*
X26911015Y-25982502D02*
X26911015Y-26001550D01*
X27044348Y-25801550D02*
X27063396Y-25801550D01*
X27063396Y-25801550D02*
X27082444Y-25811074D01*
X27082444Y-25811074D02*
X27091967Y-25820597D01*
X27091967Y-25820597D02*
X27101491Y-25839645D01*
X27101491Y-25839645D02*
X27111015Y-25877740D01*
X27111015Y-25877740D02*
X27111015Y-25925359D01*
X27111015Y-25925359D02*
X27101491Y-25963454D01*
X27101491Y-25963454D02*
X27091967Y-25982502D01*
X27091967Y-25982502D02*
X27082444Y-25992026D01*
X27082444Y-25992026D02*
X27063396Y-26001550D01*
X27063396Y-26001550D02*
X27044348Y-26001550D01*
X27044348Y-26001550D02*
X27025301Y-25992026D01*
X27025301Y-25992026D02*
X27015777Y-25982502D01*
X27015777Y-25982502D02*
X27006253Y-25963454D01*
X27006253Y-25963454D02*
X26996729Y-25925359D01*
X26996729Y-25925359D02*
X26996729Y-25877740D01*
X26996729Y-25877740D02*
X27006253Y-25839645D01*
X27006253Y-25839645D02*
X27015777Y-25820597D01*
X27015777Y-25820597D02*
X27025301Y-25811074D01*
X27025301Y-25811074D02*
X27044348Y-25801550D01*
X27177682Y-25801550D02*
X27301491Y-25801550D01*
X27301491Y-25801550D02*
X27234824Y-25877740D01*
X27234824Y-25877740D02*
X27263396Y-25877740D01*
X27263396Y-25877740D02*
X27282444Y-25887264D01*
X27282444Y-25887264D02*
X27291967Y-25896788D01*
X27291967Y-25896788D02*
X27301491Y-25915835D01*
X27301491Y-25915835D02*
X27301491Y-25963454D01*
X27301491Y-25963454D02*
X27291967Y-25982502D01*
X27291967Y-25982502D02*
X27282444Y-25992026D01*
X27282444Y-25992026D02*
X27263396Y-26001550D01*
X27263396Y-26001550D02*
X27206253Y-26001550D01*
X27206253Y-26001550D02*
X27187205Y-25992026D01*
X27187205Y-25992026D02*
X27177682Y-25982502D01*
X27491967Y-26001550D02*
X27377682Y-26001550D01*
X27434824Y-26001550D02*
X27434824Y-25801550D01*
X27434824Y-25801550D02*
X27415777Y-25830121D01*
X27415777Y-25830121D02*
X27396729Y-25849169D01*
X27396729Y-25849169D02*
X27377682Y-25858693D01*
X27672920Y-25801550D02*
X27577682Y-25801550D01*
X27577682Y-25801550D02*
X27568158Y-25896788D01*
X27568158Y-25896788D02*
X27577682Y-25887264D01*
X27577682Y-25887264D02*
X27596729Y-25877740D01*
X27596729Y-25877740D02*
X27644348Y-25877740D01*
X27644348Y-25877740D02*
X27663396Y-25887264D01*
X27663396Y-25887264D02*
X27672920Y-25896788D01*
X27672920Y-25896788D02*
X27682444Y-25915835D01*
X27682444Y-25915835D02*
X27682444Y-25963454D01*
X27682444Y-25963454D02*
X27672920Y-25982502D01*
X27672920Y-25982502D02*
X27663396Y-25992026D01*
X27663396Y-25992026D02*
X27644348Y-26001550D01*
X27644348Y-26001550D02*
X27596729Y-26001550D01*
X27596729Y-26001550D02*
X27577682Y-25992026D01*
X27577682Y-25992026D02*
X27568158Y-25982502D01*
X27758634Y-25801550D02*
X27758634Y-25839645D01*
X27834825Y-25801550D02*
X27834825Y-25839645D01*
X28130063Y-26077740D02*
X28120539Y-26068216D01*
X28120539Y-26068216D02*
X28101491Y-26039645D01*
X28101491Y-26039645D02*
X28091967Y-26020597D01*
X28091967Y-26020597D02*
X28082444Y-25992026D01*
X28082444Y-25992026D02*
X28072920Y-25944407D01*
X28072920Y-25944407D02*
X28072920Y-25906312D01*
X28072920Y-25906312D02*
X28082444Y-25858693D01*
X28082444Y-25858693D02*
X28091967Y-25830121D01*
X28091967Y-25830121D02*
X28101491Y-25811074D01*
X28101491Y-25811074D02*
X28120539Y-25782502D01*
X28120539Y-25782502D02*
X28130063Y-25772978D01*
X28187206Y-25801550D02*
X28311015Y-25801550D01*
X28311015Y-25801550D02*
X28244348Y-25877740D01*
X28244348Y-25877740D02*
X28272920Y-25877740D01*
X28272920Y-25877740D02*
X28291967Y-25887264D01*
X28291967Y-25887264D02*
X28301491Y-25896788D01*
X28301491Y-25896788D02*
X28311015Y-25915835D01*
X28311015Y-25915835D02*
X28311015Y-25963454D01*
X28311015Y-25963454D02*
X28301491Y-25982502D01*
X28301491Y-25982502D02*
X28291967Y-25992026D01*
X28291967Y-25992026D02*
X28272920Y-26001550D01*
X28272920Y-26001550D02*
X28215777Y-26001550D01*
X28215777Y-26001550D02*
X28196729Y-25992026D01*
X28196729Y-25992026D02*
X28187206Y-25982502D01*
X28482444Y-25868216D02*
X28482444Y-26001550D01*
X28434825Y-25792026D02*
X28387206Y-25934883D01*
X28387206Y-25934883D02*
X28511015Y-25934883D01*
X28739587Y-26001550D02*
X28739587Y-25801550D01*
X28825301Y-26001550D02*
X28825301Y-25896788D01*
X28825301Y-25896788D02*
X28815777Y-25877740D01*
X28815777Y-25877740D02*
X28796729Y-25868216D01*
X28796729Y-25868216D02*
X28768158Y-25868216D01*
X28768158Y-25868216D02*
X28749110Y-25877740D01*
X28749110Y-25877740D02*
X28739587Y-25887264D01*
X28949110Y-26001550D02*
X28930063Y-25992026D01*
X28930063Y-25992026D02*
X28920539Y-25982502D01*
X28920539Y-25982502D02*
X28911015Y-25963454D01*
X28911015Y-25963454D02*
X28911015Y-25906312D01*
X28911015Y-25906312D02*
X28920539Y-25887264D01*
X28920539Y-25887264D02*
X28930063Y-25877740D01*
X28930063Y-25877740D02*
X28949110Y-25868216D01*
X28949110Y-25868216D02*
X28977682Y-25868216D01*
X28977682Y-25868216D02*
X28996729Y-25877740D01*
X28996729Y-25877740D02*
X29006253Y-25887264D01*
X29006253Y-25887264D02*
X29015777Y-25906312D01*
X29015777Y-25906312D02*
X29015777Y-25963454D01*
X29015777Y-25963454D02*
X29006253Y-25982502D01*
X29006253Y-25982502D02*
X28996729Y-25992026D01*
X28996729Y-25992026D02*
X28977682Y-26001550D01*
X28977682Y-26001550D02*
X28949110Y-26001550D01*
X29130063Y-26001550D02*
X29111015Y-25992026D01*
X29111015Y-25992026D02*
X29101491Y-25972978D01*
X29101491Y-25972978D02*
X29101491Y-25801550D01*
X29282444Y-25992026D02*
X29263396Y-26001550D01*
X29263396Y-26001550D02*
X29225301Y-26001550D01*
X29225301Y-26001550D02*
X29206253Y-25992026D01*
X29206253Y-25992026D02*
X29196729Y-25972978D01*
X29196729Y-25972978D02*
X29196729Y-25896788D01*
X29196729Y-25896788D02*
X29206253Y-25877740D01*
X29206253Y-25877740D02*
X29225301Y-25868216D01*
X29225301Y-25868216D02*
X29263396Y-25868216D01*
X29263396Y-25868216D02*
X29282444Y-25877740D01*
X29282444Y-25877740D02*
X29291968Y-25896788D01*
X29291968Y-25896788D02*
X29291968Y-25915835D01*
X29291968Y-25915835D02*
X29196729Y-25934883D01*
X29368158Y-25992026D02*
X29387206Y-26001550D01*
X29387206Y-26001550D02*
X29425301Y-26001550D01*
X29425301Y-26001550D02*
X29444349Y-25992026D01*
X29444349Y-25992026D02*
X29453872Y-25972978D01*
X29453872Y-25972978D02*
X29453872Y-25963454D01*
X29453872Y-25963454D02*
X29444349Y-25944407D01*
X29444349Y-25944407D02*
X29425301Y-25934883D01*
X29425301Y-25934883D02*
X29396729Y-25934883D01*
X29396729Y-25934883D02*
X29377682Y-25925359D01*
X29377682Y-25925359D02*
X29368158Y-25906312D01*
X29368158Y-25906312D02*
X29368158Y-25896788D01*
X29368158Y-25896788D02*
X29377682Y-25877740D01*
X29377682Y-25877740D02*
X29396729Y-25868216D01*
X29396729Y-25868216D02*
X29425301Y-25868216D01*
X29425301Y-25868216D02*
X29444349Y-25877740D01*
X29520539Y-26077740D02*
X29530063Y-26068216D01*
X29530063Y-26068216D02*
X29549110Y-26039645D01*
X29549110Y-26039645D02*
X29558634Y-26020597D01*
X29558634Y-26020597D02*
X29568158Y-25992026D01*
X29568158Y-25992026D02*
X29577682Y-25944407D01*
X29577682Y-25944407D02*
X29577682Y-25906312D01*
X29577682Y-25906312D02*
X29568158Y-25858693D01*
X29568158Y-25858693D02*
X29558634Y-25830121D01*
X29558634Y-25830121D02*
X29549110Y-25811074D01*
X29549110Y-25811074D02*
X29530063Y-25782502D01*
X29530063Y-25782502D02*
X29520539Y-25772978D01*
D10*
X24505000Y-26124066D02*
X24505000Y-26224066D01*
X24455000Y-26174066D02*
X24555000Y-26174066D01*
D11*
X24920539Y-26265550D02*
X24806253Y-26265550D01*
X24863396Y-26265550D02*
X24863396Y-26065550D01*
X24863396Y-26065550D02*
X24844348Y-26094121D01*
X24844348Y-26094121D02*
X24825300Y-26113169D01*
X24825300Y-26113169D02*
X24806253Y-26122693D01*
X25006253Y-26246502D02*
X25015777Y-26256026D01*
X25015777Y-26256026D02*
X25006253Y-26265550D01*
X25006253Y-26265550D02*
X24996729Y-26256026D01*
X24996729Y-26256026D02*
X25006253Y-26246502D01*
X25006253Y-26246502D02*
X25006253Y-26265550D01*
X25139586Y-26065550D02*
X25158634Y-26065550D01*
X25158634Y-26065550D02*
X25177681Y-26075074D01*
X25177681Y-26075074D02*
X25187205Y-26084597D01*
X25187205Y-26084597D02*
X25196729Y-26103645D01*
X25196729Y-26103645D02*
X25206253Y-26141740D01*
X25206253Y-26141740D02*
X25206253Y-26189359D01*
X25206253Y-26189359D02*
X25196729Y-26227454D01*
X25196729Y-26227454D02*
X25187205Y-26246502D01*
X25187205Y-26246502D02*
X25177681Y-26256026D01*
X25177681Y-26256026D02*
X25158634Y-26265550D01*
X25158634Y-26265550D02*
X25139586Y-26265550D01*
X25139586Y-26265550D02*
X25120539Y-26256026D01*
X25120539Y-26256026D02*
X25111015Y-26246502D01*
X25111015Y-26246502D02*
X25101491Y-26227454D01*
X25101491Y-26227454D02*
X25091967Y-26189359D01*
X25091967Y-26189359D02*
X25091967Y-26141740D01*
X25091967Y-26141740D02*
X25101491Y-26103645D01*
X25101491Y-26103645D02*
X25111015Y-26084597D01*
X25111015Y-26084597D02*
X25120539Y-26075074D01*
X25120539Y-26075074D02*
X25139586Y-26065550D01*
X25330062Y-26065550D02*
X25349110Y-26065550D01*
X25349110Y-26065550D02*
X25368158Y-26075074D01*
X25368158Y-26075074D02*
X25377681Y-26084597D01*
X25377681Y-26084597D02*
X25387205Y-26103645D01*
X25387205Y-26103645D02*
X25396729Y-26141740D01*
X25396729Y-26141740D02*
X25396729Y-26189359D01*
X25396729Y-26189359D02*
X25387205Y-26227454D01*
X25387205Y-26227454D02*
X25377681Y-26246502D01*
X25377681Y-26246502D02*
X25368158Y-26256026D01*
X25368158Y-26256026D02*
X25349110Y-26265550D01*
X25349110Y-26265550D02*
X25330062Y-26265550D01*
X25330062Y-26265550D02*
X25311015Y-26256026D01*
X25311015Y-26256026D02*
X25301491Y-26246502D01*
X25301491Y-26246502D02*
X25291967Y-26227454D01*
X25291967Y-26227454D02*
X25282443Y-26189359D01*
X25282443Y-26189359D02*
X25282443Y-26141740D01*
X25282443Y-26141740D02*
X25291967Y-26103645D01*
X25291967Y-26103645D02*
X25301491Y-26084597D01*
X25301491Y-26084597D02*
X25311015Y-26075074D01*
X25311015Y-26075074D02*
X25330062Y-26065550D01*
X25520539Y-26065550D02*
X25539586Y-26065550D01*
X25539586Y-26065550D02*
X25558634Y-26075074D01*
X25558634Y-26075074D02*
X25568158Y-26084597D01*
X25568158Y-26084597D02*
X25577681Y-26103645D01*
X25577681Y-26103645D02*
X25587205Y-26141740D01*
X25587205Y-26141740D02*
X25587205Y-26189359D01*
X25587205Y-26189359D02*
X25577681Y-26227454D01*
X25577681Y-26227454D02*
X25568158Y-26246502D01*
X25568158Y-26246502D02*
X25558634Y-26256026D01*
X25558634Y-26256026D02*
X25539586Y-26265550D01*
X25539586Y-26265550D02*
X25520539Y-26265550D01*
X25520539Y-26265550D02*
X25501491Y-26256026D01*
X25501491Y-26256026D02*
X25491967Y-26246502D01*
X25491967Y-26246502D02*
X25482443Y-26227454D01*
X25482443Y-26227454D02*
X25472920Y-26189359D01*
X25472920Y-26189359D02*
X25472920Y-26141740D01*
X25472920Y-26141740D02*
X25482443Y-26103645D01*
X25482443Y-26103645D02*
X25491967Y-26084597D01*
X25491967Y-26084597D02*
X25501491Y-26075074D01*
X25501491Y-26075074D02*
X25520539Y-26065550D01*
X25672920Y-26265550D02*
X25672920Y-26132216D01*
X25672920Y-26151264D02*
X25682443Y-26141740D01*
X25682443Y-26141740D02*
X25701491Y-26132216D01*
X25701491Y-26132216D02*
X25730062Y-26132216D01*
X25730062Y-26132216D02*
X25749110Y-26141740D01*
X25749110Y-26141740D02*
X25758634Y-26160788D01*
X25758634Y-26160788D02*
X25758634Y-26265550D01*
X25758634Y-26160788D02*
X25768158Y-26141740D01*
X25768158Y-26141740D02*
X25787205Y-26132216D01*
X25787205Y-26132216D02*
X25815777Y-26132216D01*
X25815777Y-26132216D02*
X25834824Y-26141740D01*
X25834824Y-26141740D02*
X25844348Y-26160788D01*
X25844348Y-26160788D02*
X25844348Y-26265550D01*
X25939586Y-26265550D02*
X25939586Y-26132216D01*
X25939586Y-26151264D02*
X25949110Y-26141740D01*
X25949110Y-26141740D02*
X25968158Y-26132216D01*
X25968158Y-26132216D02*
X25996729Y-26132216D01*
X25996729Y-26132216D02*
X26015777Y-26141740D01*
X26015777Y-26141740D02*
X26025301Y-26160788D01*
X26025301Y-26160788D02*
X26025301Y-26265550D01*
X26025301Y-26160788D02*
X26034824Y-26141740D01*
X26034824Y-26141740D02*
X26053872Y-26132216D01*
X26053872Y-26132216D02*
X26082443Y-26132216D01*
X26082443Y-26132216D02*
X26101491Y-26141740D01*
X26101491Y-26141740D02*
X26111015Y-26160788D01*
X26111015Y-26160788D02*
X26111015Y-26265550D01*
X26501491Y-26056026D02*
X26330063Y-26313169D01*
X26758634Y-26065550D02*
X26777682Y-26065550D01*
X26777682Y-26065550D02*
X26796729Y-26075074D01*
X26796729Y-26075074D02*
X26806253Y-26084597D01*
X26806253Y-26084597D02*
X26815777Y-26103645D01*
X26815777Y-26103645D02*
X26825301Y-26141740D01*
X26825301Y-26141740D02*
X26825301Y-26189359D01*
X26825301Y-26189359D02*
X26815777Y-26227454D01*
X26815777Y-26227454D02*
X26806253Y-26246502D01*
X26806253Y-26246502D02*
X26796729Y-26256026D01*
X26796729Y-26256026D02*
X26777682Y-26265550D01*
X26777682Y-26265550D02*
X26758634Y-26265550D01*
X26758634Y-26265550D02*
X26739586Y-26256026D01*
X26739586Y-26256026D02*
X26730063Y-26246502D01*
X26730063Y-26246502D02*
X26720539Y-26227454D01*
X26720539Y-26227454D02*
X26711015Y-26189359D01*
X26711015Y-26189359D02*
X26711015Y-26141740D01*
X26711015Y-26141740D02*
X26720539Y-26103645D01*
X26720539Y-26103645D02*
X26730063Y-26084597D01*
X26730063Y-26084597D02*
X26739586Y-26075074D01*
X26739586Y-26075074D02*
X26758634Y-26065550D01*
X26911015Y-26246502D02*
X26920539Y-26256026D01*
X26920539Y-26256026D02*
X26911015Y-26265550D01*
X26911015Y-26265550D02*
X26901491Y-26256026D01*
X26901491Y-26256026D02*
X26911015Y-26246502D01*
X26911015Y-26246502D02*
X26911015Y-26265550D01*
X27044348Y-26065550D02*
X27063396Y-26065550D01*
X27063396Y-26065550D02*
X27082444Y-26075074D01*
X27082444Y-26075074D02*
X27091967Y-26084597D01*
X27091967Y-26084597D02*
X27101491Y-26103645D01*
X27101491Y-26103645D02*
X27111015Y-26141740D01*
X27111015Y-26141740D02*
X27111015Y-26189359D01*
X27111015Y-26189359D02*
X27101491Y-26227454D01*
X27101491Y-26227454D02*
X27091967Y-26246502D01*
X27091967Y-26246502D02*
X27082444Y-26256026D01*
X27082444Y-26256026D02*
X27063396Y-26265550D01*
X27063396Y-26265550D02*
X27044348Y-26265550D01*
X27044348Y-26265550D02*
X27025301Y-26256026D01*
X27025301Y-26256026D02*
X27015777Y-26246502D01*
X27015777Y-26246502D02*
X27006253Y-26227454D01*
X27006253Y-26227454D02*
X26996729Y-26189359D01*
X26996729Y-26189359D02*
X26996729Y-26141740D01*
X26996729Y-26141740D02*
X27006253Y-26103645D01*
X27006253Y-26103645D02*
X27015777Y-26084597D01*
X27015777Y-26084597D02*
X27025301Y-26075074D01*
X27025301Y-26075074D02*
X27044348Y-26065550D01*
X27177682Y-26065550D02*
X27301491Y-26065550D01*
X27301491Y-26065550D02*
X27234824Y-26141740D01*
X27234824Y-26141740D02*
X27263396Y-26141740D01*
X27263396Y-26141740D02*
X27282444Y-26151264D01*
X27282444Y-26151264D02*
X27291967Y-26160788D01*
X27291967Y-26160788D02*
X27301491Y-26179835D01*
X27301491Y-26179835D02*
X27301491Y-26227454D01*
X27301491Y-26227454D02*
X27291967Y-26246502D01*
X27291967Y-26246502D02*
X27282444Y-26256026D01*
X27282444Y-26256026D02*
X27263396Y-26265550D01*
X27263396Y-26265550D02*
X27206253Y-26265550D01*
X27206253Y-26265550D02*
X27187205Y-26256026D01*
X27187205Y-26256026D02*
X27177682Y-26246502D01*
X27396729Y-26265550D02*
X27434824Y-26265550D01*
X27434824Y-26265550D02*
X27453872Y-26256026D01*
X27453872Y-26256026D02*
X27463396Y-26246502D01*
X27463396Y-26246502D02*
X27482444Y-26217931D01*
X27482444Y-26217931D02*
X27491967Y-26179835D01*
X27491967Y-26179835D02*
X27491967Y-26103645D01*
X27491967Y-26103645D02*
X27482444Y-26084597D01*
X27482444Y-26084597D02*
X27472920Y-26075074D01*
X27472920Y-26075074D02*
X27453872Y-26065550D01*
X27453872Y-26065550D02*
X27415777Y-26065550D01*
X27415777Y-26065550D02*
X27396729Y-26075074D01*
X27396729Y-26075074D02*
X27387205Y-26084597D01*
X27387205Y-26084597D02*
X27377682Y-26103645D01*
X27377682Y-26103645D02*
X27377682Y-26151264D01*
X27377682Y-26151264D02*
X27387205Y-26170312D01*
X27387205Y-26170312D02*
X27396729Y-26179835D01*
X27396729Y-26179835D02*
X27415777Y-26189359D01*
X27415777Y-26189359D02*
X27453872Y-26189359D01*
X27453872Y-26189359D02*
X27472920Y-26179835D01*
X27472920Y-26179835D02*
X27482444Y-26170312D01*
X27482444Y-26170312D02*
X27491967Y-26151264D01*
X27663396Y-26132216D02*
X27663396Y-26265550D01*
X27615777Y-26056026D02*
X27568158Y-26198883D01*
X27568158Y-26198883D02*
X27691967Y-26198883D01*
X27758634Y-26065550D02*
X27758634Y-26103645D01*
X27834825Y-26065550D02*
X27834825Y-26103645D01*
X28130063Y-26341740D02*
X28120539Y-26332216D01*
X28120539Y-26332216D02*
X28101491Y-26303645D01*
X28101491Y-26303645D02*
X28091967Y-26284597D01*
X28091967Y-26284597D02*
X28082444Y-26256026D01*
X28082444Y-26256026D02*
X28072920Y-26208407D01*
X28072920Y-26208407D02*
X28072920Y-26170312D01*
X28072920Y-26170312D02*
X28082444Y-26122693D01*
X28082444Y-26122693D02*
X28091967Y-26094121D01*
X28091967Y-26094121D02*
X28101491Y-26075074D01*
X28101491Y-26075074D02*
X28120539Y-26046502D01*
X28120539Y-26046502D02*
X28130063Y-26036978D01*
X28196729Y-26084597D02*
X28206253Y-26075074D01*
X28206253Y-26075074D02*
X28225301Y-26065550D01*
X28225301Y-26065550D02*
X28272920Y-26065550D01*
X28272920Y-26065550D02*
X28291967Y-26075074D01*
X28291967Y-26075074D02*
X28301491Y-26084597D01*
X28301491Y-26084597D02*
X28311015Y-26103645D01*
X28311015Y-26103645D02*
X28311015Y-26122693D01*
X28311015Y-26122693D02*
X28301491Y-26151264D01*
X28301491Y-26151264D02*
X28187206Y-26265550D01*
X28187206Y-26265550D02*
X28311015Y-26265550D01*
X28406253Y-26265550D02*
X28444348Y-26265550D01*
X28444348Y-26265550D02*
X28463396Y-26256026D01*
X28463396Y-26256026D02*
X28472920Y-26246502D01*
X28472920Y-26246502D02*
X28491967Y-26217931D01*
X28491967Y-26217931D02*
X28501491Y-26179835D01*
X28501491Y-26179835D02*
X28501491Y-26103645D01*
X28501491Y-26103645D02*
X28491967Y-26084597D01*
X28491967Y-26084597D02*
X28482444Y-26075074D01*
X28482444Y-26075074D02*
X28463396Y-26065550D01*
X28463396Y-26065550D02*
X28425301Y-26065550D01*
X28425301Y-26065550D02*
X28406253Y-26075074D01*
X28406253Y-26075074D02*
X28396729Y-26084597D01*
X28396729Y-26084597D02*
X28387206Y-26103645D01*
X28387206Y-26103645D02*
X28387206Y-26151264D01*
X28387206Y-26151264D02*
X28396729Y-26170312D01*
X28396729Y-26170312D02*
X28406253Y-26179835D01*
X28406253Y-26179835D02*
X28425301Y-26189359D01*
X28425301Y-26189359D02*
X28463396Y-26189359D01*
X28463396Y-26189359D02*
X28482444Y-26179835D01*
X28482444Y-26179835D02*
X28491967Y-26170312D01*
X28491967Y-26170312D02*
X28501491Y-26151264D01*
X28739587Y-26265550D02*
X28739587Y-26065550D01*
X28825301Y-26265550D02*
X28825301Y-26160788D01*
X28825301Y-26160788D02*
X28815777Y-26141740D01*
X28815777Y-26141740D02*
X28796729Y-26132216D01*
X28796729Y-26132216D02*
X28768158Y-26132216D01*
X28768158Y-26132216D02*
X28749110Y-26141740D01*
X28749110Y-26141740D02*
X28739587Y-26151264D01*
X28949110Y-26265550D02*
X28930063Y-26256026D01*
X28930063Y-26256026D02*
X28920539Y-26246502D01*
X28920539Y-26246502D02*
X28911015Y-26227454D01*
X28911015Y-26227454D02*
X28911015Y-26170312D01*
X28911015Y-26170312D02*
X28920539Y-26151264D01*
X28920539Y-26151264D02*
X28930063Y-26141740D01*
X28930063Y-26141740D02*
X28949110Y-26132216D01*
X28949110Y-26132216D02*
X28977682Y-26132216D01*
X28977682Y-26132216D02*
X28996729Y-26141740D01*
X28996729Y-26141740D02*
X29006253Y-26151264D01*
X29006253Y-26151264D02*
X29015777Y-26170312D01*
X29015777Y-26170312D02*
X29015777Y-26227454D01*
X29015777Y-26227454D02*
X29006253Y-26246502D01*
X29006253Y-26246502D02*
X28996729Y-26256026D01*
X28996729Y-26256026D02*
X28977682Y-26265550D01*
X28977682Y-26265550D02*
X28949110Y-26265550D01*
X29130063Y-26265550D02*
X29111015Y-26256026D01*
X29111015Y-26256026D02*
X29101491Y-26236978D01*
X29101491Y-26236978D02*
X29101491Y-26065550D01*
X29282444Y-26256026D02*
X29263396Y-26265550D01*
X29263396Y-26265550D02*
X29225301Y-26265550D01*
X29225301Y-26265550D02*
X29206253Y-26256026D01*
X29206253Y-26256026D02*
X29196729Y-26236978D01*
X29196729Y-26236978D02*
X29196729Y-26160788D01*
X29196729Y-26160788D02*
X29206253Y-26141740D01*
X29206253Y-26141740D02*
X29225301Y-26132216D01*
X29225301Y-26132216D02*
X29263396Y-26132216D01*
X29263396Y-26132216D02*
X29282444Y-26141740D01*
X29282444Y-26141740D02*
X29291968Y-26160788D01*
X29291968Y-26160788D02*
X29291968Y-26179835D01*
X29291968Y-26179835D02*
X29196729Y-26198883D01*
X29368158Y-26256026D02*
X29387206Y-26265550D01*
X29387206Y-26265550D02*
X29425301Y-26265550D01*
X29425301Y-26265550D02*
X29444349Y-26256026D01*
X29444349Y-26256026D02*
X29453872Y-26236978D01*
X29453872Y-26236978D02*
X29453872Y-26227454D01*
X29453872Y-26227454D02*
X29444349Y-26208407D01*
X29444349Y-26208407D02*
X29425301Y-26198883D01*
X29425301Y-26198883D02*
X29396729Y-26198883D01*
X29396729Y-26198883D02*
X29377682Y-26189359D01*
X29377682Y-26189359D02*
X29368158Y-26170312D01*
X29368158Y-26170312D02*
X29368158Y-26160788D01*
X29368158Y-26160788D02*
X29377682Y-26141740D01*
X29377682Y-26141740D02*
X29396729Y-26132216D01*
X29396729Y-26132216D02*
X29425301Y-26132216D01*
X29425301Y-26132216D02*
X29444349Y-26141740D01*
X29520539Y-26341740D02*
X29530063Y-26332216D01*
X29530063Y-26332216D02*
X29549110Y-26303645D01*
X29549110Y-26303645D02*
X29558634Y-26284597D01*
X29558634Y-26284597D02*
X29568158Y-26256026D01*
X29568158Y-26256026D02*
X29577682Y-26208407D01*
X29577682Y-26208407D02*
X29577682Y-26170312D01*
X29577682Y-26170312D02*
X29568158Y-26122693D01*
X29568158Y-26122693D02*
X29558634Y-26094121D01*
X29558634Y-26094121D02*
X29549110Y-26075074D01*
X29549110Y-26075074D02*
X29530063Y-26046502D01*
X29530063Y-26046502D02*
X29520539Y-26036978D01*
X24525711Y-26508777D02*
X24525711Y-26367355D01*
X24384288Y-26367355D01*
X24384288Y-26508777D01*
X24525711Y-26508777D01*
X24806253Y-26348597D02*
X24815777Y-26339074D01*
X24815777Y-26339074D02*
X24834824Y-26329550D01*
X24834824Y-26329550D02*
X24882443Y-26329550D01*
X24882443Y-26329550D02*
X24901491Y-26339074D01*
X24901491Y-26339074D02*
X24911015Y-26348597D01*
X24911015Y-26348597D02*
X24920539Y-26367645D01*
X24920539Y-26367645D02*
X24920539Y-26386693D01*
X24920539Y-26386693D02*
X24911015Y-26415264D01*
X24911015Y-26415264D02*
X24796729Y-26529550D01*
X24796729Y-26529550D02*
X24920539Y-26529550D01*
X25006253Y-26510502D02*
X25015777Y-26520026D01*
X25015777Y-26520026D02*
X25006253Y-26529550D01*
X25006253Y-26529550D02*
X24996729Y-26520026D01*
X24996729Y-26520026D02*
X25006253Y-26510502D01*
X25006253Y-26510502D02*
X25006253Y-26529550D01*
X25091967Y-26348597D02*
X25101491Y-26339074D01*
X25101491Y-26339074D02*
X25120539Y-26329550D01*
X25120539Y-26329550D02*
X25168158Y-26329550D01*
X25168158Y-26329550D02*
X25187205Y-26339074D01*
X25187205Y-26339074D02*
X25196729Y-26348597D01*
X25196729Y-26348597D02*
X25206253Y-26367645D01*
X25206253Y-26367645D02*
X25206253Y-26386693D01*
X25206253Y-26386693D02*
X25196729Y-26415264D01*
X25196729Y-26415264D02*
X25082443Y-26529550D01*
X25082443Y-26529550D02*
X25206253Y-26529550D01*
X25330062Y-26329550D02*
X25349110Y-26329550D01*
X25349110Y-26329550D02*
X25368158Y-26339074D01*
X25368158Y-26339074D02*
X25377681Y-26348597D01*
X25377681Y-26348597D02*
X25387205Y-26367645D01*
X25387205Y-26367645D02*
X25396729Y-26405740D01*
X25396729Y-26405740D02*
X25396729Y-26453359D01*
X25396729Y-26453359D02*
X25387205Y-26491454D01*
X25387205Y-26491454D02*
X25377681Y-26510502D01*
X25377681Y-26510502D02*
X25368158Y-26520026D01*
X25368158Y-26520026D02*
X25349110Y-26529550D01*
X25349110Y-26529550D02*
X25330062Y-26529550D01*
X25330062Y-26529550D02*
X25311015Y-26520026D01*
X25311015Y-26520026D02*
X25301491Y-26510502D01*
X25301491Y-26510502D02*
X25291967Y-26491454D01*
X25291967Y-26491454D02*
X25282443Y-26453359D01*
X25282443Y-26453359D02*
X25282443Y-26405740D01*
X25282443Y-26405740D02*
X25291967Y-26367645D01*
X25291967Y-26367645D02*
X25301491Y-26348597D01*
X25301491Y-26348597D02*
X25311015Y-26339074D01*
X25311015Y-26339074D02*
X25330062Y-26329550D01*
X25520539Y-26329550D02*
X25539586Y-26329550D01*
X25539586Y-26329550D02*
X25558634Y-26339074D01*
X25558634Y-26339074D02*
X25568158Y-26348597D01*
X25568158Y-26348597D02*
X25577681Y-26367645D01*
X25577681Y-26367645D02*
X25587205Y-26405740D01*
X25587205Y-26405740D02*
X25587205Y-26453359D01*
X25587205Y-26453359D02*
X25577681Y-26491454D01*
X25577681Y-26491454D02*
X25568158Y-26510502D01*
X25568158Y-26510502D02*
X25558634Y-26520026D01*
X25558634Y-26520026D02*
X25539586Y-26529550D01*
X25539586Y-26529550D02*
X25520539Y-26529550D01*
X25520539Y-26529550D02*
X25501491Y-26520026D01*
X25501491Y-26520026D02*
X25491967Y-26510502D01*
X25491967Y-26510502D02*
X25482443Y-26491454D01*
X25482443Y-26491454D02*
X25472920Y-26453359D01*
X25472920Y-26453359D02*
X25472920Y-26405740D01*
X25472920Y-26405740D02*
X25482443Y-26367645D01*
X25482443Y-26367645D02*
X25491967Y-26348597D01*
X25491967Y-26348597D02*
X25501491Y-26339074D01*
X25501491Y-26339074D02*
X25520539Y-26329550D01*
X25672920Y-26529550D02*
X25672920Y-26396216D01*
X25672920Y-26415264D02*
X25682443Y-26405740D01*
X25682443Y-26405740D02*
X25701491Y-26396216D01*
X25701491Y-26396216D02*
X25730062Y-26396216D01*
X25730062Y-26396216D02*
X25749110Y-26405740D01*
X25749110Y-26405740D02*
X25758634Y-26424788D01*
X25758634Y-26424788D02*
X25758634Y-26529550D01*
X25758634Y-26424788D02*
X25768158Y-26405740D01*
X25768158Y-26405740D02*
X25787205Y-26396216D01*
X25787205Y-26396216D02*
X25815777Y-26396216D01*
X25815777Y-26396216D02*
X25834824Y-26405740D01*
X25834824Y-26405740D02*
X25844348Y-26424788D01*
X25844348Y-26424788D02*
X25844348Y-26529550D01*
X25939586Y-26529550D02*
X25939586Y-26396216D01*
X25939586Y-26415264D02*
X25949110Y-26405740D01*
X25949110Y-26405740D02*
X25968158Y-26396216D01*
X25968158Y-26396216D02*
X25996729Y-26396216D01*
X25996729Y-26396216D02*
X26015777Y-26405740D01*
X26015777Y-26405740D02*
X26025301Y-26424788D01*
X26025301Y-26424788D02*
X26025301Y-26529550D01*
X26025301Y-26424788D02*
X26034824Y-26405740D01*
X26034824Y-26405740D02*
X26053872Y-26396216D01*
X26053872Y-26396216D02*
X26082443Y-26396216D01*
X26082443Y-26396216D02*
X26101491Y-26405740D01*
X26101491Y-26405740D02*
X26111015Y-26424788D01*
X26111015Y-26424788D02*
X26111015Y-26529550D01*
X26501491Y-26320026D02*
X26330063Y-26577169D01*
X26758634Y-26329550D02*
X26777682Y-26329550D01*
X26777682Y-26329550D02*
X26796729Y-26339074D01*
X26796729Y-26339074D02*
X26806253Y-26348597D01*
X26806253Y-26348597D02*
X26815777Y-26367645D01*
X26815777Y-26367645D02*
X26825301Y-26405740D01*
X26825301Y-26405740D02*
X26825301Y-26453359D01*
X26825301Y-26453359D02*
X26815777Y-26491454D01*
X26815777Y-26491454D02*
X26806253Y-26510502D01*
X26806253Y-26510502D02*
X26796729Y-26520026D01*
X26796729Y-26520026D02*
X26777682Y-26529550D01*
X26777682Y-26529550D02*
X26758634Y-26529550D01*
X26758634Y-26529550D02*
X26739586Y-26520026D01*
X26739586Y-26520026D02*
X26730063Y-26510502D01*
X26730063Y-26510502D02*
X26720539Y-26491454D01*
X26720539Y-26491454D02*
X26711015Y-26453359D01*
X26711015Y-26453359D02*
X26711015Y-26405740D01*
X26711015Y-26405740D02*
X26720539Y-26367645D01*
X26720539Y-26367645D02*
X26730063Y-26348597D01*
X26730063Y-26348597D02*
X26739586Y-26339074D01*
X26739586Y-26339074D02*
X26758634Y-26329550D01*
X26911015Y-26510502D02*
X26920539Y-26520026D01*
X26920539Y-26520026D02*
X26911015Y-26529550D01*
X26911015Y-26529550D02*
X26901491Y-26520026D01*
X26901491Y-26520026D02*
X26911015Y-26510502D01*
X26911015Y-26510502D02*
X26911015Y-26529550D01*
X27044348Y-26329550D02*
X27063396Y-26329550D01*
X27063396Y-26329550D02*
X27082444Y-26339074D01*
X27082444Y-26339074D02*
X27091967Y-26348597D01*
X27091967Y-26348597D02*
X27101491Y-26367645D01*
X27101491Y-26367645D02*
X27111015Y-26405740D01*
X27111015Y-26405740D02*
X27111015Y-26453359D01*
X27111015Y-26453359D02*
X27101491Y-26491454D01*
X27101491Y-26491454D02*
X27091967Y-26510502D01*
X27091967Y-26510502D02*
X27082444Y-26520026D01*
X27082444Y-26520026D02*
X27063396Y-26529550D01*
X27063396Y-26529550D02*
X27044348Y-26529550D01*
X27044348Y-26529550D02*
X27025301Y-26520026D01*
X27025301Y-26520026D02*
X27015777Y-26510502D01*
X27015777Y-26510502D02*
X27006253Y-26491454D01*
X27006253Y-26491454D02*
X26996729Y-26453359D01*
X26996729Y-26453359D02*
X26996729Y-26405740D01*
X26996729Y-26405740D02*
X27006253Y-26367645D01*
X27006253Y-26367645D02*
X27015777Y-26348597D01*
X27015777Y-26348597D02*
X27025301Y-26339074D01*
X27025301Y-26339074D02*
X27044348Y-26329550D01*
X27225301Y-26415264D02*
X27206253Y-26405740D01*
X27206253Y-26405740D02*
X27196729Y-26396216D01*
X27196729Y-26396216D02*
X27187205Y-26377169D01*
X27187205Y-26377169D02*
X27187205Y-26367645D01*
X27187205Y-26367645D02*
X27196729Y-26348597D01*
X27196729Y-26348597D02*
X27206253Y-26339074D01*
X27206253Y-26339074D02*
X27225301Y-26329550D01*
X27225301Y-26329550D02*
X27263396Y-26329550D01*
X27263396Y-26329550D02*
X27282444Y-26339074D01*
X27282444Y-26339074D02*
X27291967Y-26348597D01*
X27291967Y-26348597D02*
X27301491Y-26367645D01*
X27301491Y-26367645D02*
X27301491Y-26377169D01*
X27301491Y-26377169D02*
X27291967Y-26396216D01*
X27291967Y-26396216D02*
X27282444Y-26405740D01*
X27282444Y-26405740D02*
X27263396Y-26415264D01*
X27263396Y-26415264D02*
X27225301Y-26415264D01*
X27225301Y-26415264D02*
X27206253Y-26424788D01*
X27206253Y-26424788D02*
X27196729Y-26434312D01*
X27196729Y-26434312D02*
X27187205Y-26453359D01*
X27187205Y-26453359D02*
X27187205Y-26491454D01*
X27187205Y-26491454D02*
X27196729Y-26510502D01*
X27196729Y-26510502D02*
X27206253Y-26520026D01*
X27206253Y-26520026D02*
X27225301Y-26529550D01*
X27225301Y-26529550D02*
X27263396Y-26529550D01*
X27263396Y-26529550D02*
X27282444Y-26520026D01*
X27282444Y-26520026D02*
X27291967Y-26510502D01*
X27291967Y-26510502D02*
X27301491Y-26491454D01*
X27301491Y-26491454D02*
X27301491Y-26453359D01*
X27301491Y-26453359D02*
X27291967Y-26434312D01*
X27291967Y-26434312D02*
X27282444Y-26424788D01*
X27282444Y-26424788D02*
X27263396Y-26415264D01*
X27472920Y-26329550D02*
X27434824Y-26329550D01*
X27434824Y-26329550D02*
X27415777Y-26339074D01*
X27415777Y-26339074D02*
X27406253Y-26348597D01*
X27406253Y-26348597D02*
X27387205Y-26377169D01*
X27387205Y-26377169D02*
X27377682Y-26415264D01*
X27377682Y-26415264D02*
X27377682Y-26491454D01*
X27377682Y-26491454D02*
X27387205Y-26510502D01*
X27387205Y-26510502D02*
X27396729Y-26520026D01*
X27396729Y-26520026D02*
X27415777Y-26529550D01*
X27415777Y-26529550D02*
X27453872Y-26529550D01*
X27453872Y-26529550D02*
X27472920Y-26520026D01*
X27472920Y-26520026D02*
X27482444Y-26510502D01*
X27482444Y-26510502D02*
X27491967Y-26491454D01*
X27491967Y-26491454D02*
X27491967Y-26443835D01*
X27491967Y-26443835D02*
X27482444Y-26424788D01*
X27482444Y-26424788D02*
X27472920Y-26415264D01*
X27472920Y-26415264D02*
X27453872Y-26405740D01*
X27453872Y-26405740D02*
X27415777Y-26405740D01*
X27415777Y-26405740D02*
X27396729Y-26415264D01*
X27396729Y-26415264D02*
X27387205Y-26424788D01*
X27387205Y-26424788D02*
X27377682Y-26443835D01*
X27663396Y-26329550D02*
X27625301Y-26329550D01*
X27625301Y-26329550D02*
X27606253Y-26339074D01*
X27606253Y-26339074D02*
X27596729Y-26348597D01*
X27596729Y-26348597D02*
X27577682Y-26377169D01*
X27577682Y-26377169D02*
X27568158Y-26415264D01*
X27568158Y-26415264D02*
X27568158Y-26491454D01*
X27568158Y-26491454D02*
X27577682Y-26510502D01*
X27577682Y-26510502D02*
X27587205Y-26520026D01*
X27587205Y-26520026D02*
X27606253Y-26529550D01*
X27606253Y-26529550D02*
X27644348Y-26529550D01*
X27644348Y-26529550D02*
X27663396Y-26520026D01*
X27663396Y-26520026D02*
X27672920Y-26510502D01*
X27672920Y-26510502D02*
X27682444Y-26491454D01*
X27682444Y-26491454D02*
X27682444Y-26443835D01*
X27682444Y-26443835D02*
X27672920Y-26424788D01*
X27672920Y-26424788D02*
X27663396Y-26415264D01*
X27663396Y-26415264D02*
X27644348Y-26405740D01*
X27644348Y-26405740D02*
X27606253Y-26405740D01*
X27606253Y-26405740D02*
X27587205Y-26415264D01*
X27587205Y-26415264D02*
X27577682Y-26424788D01*
X27577682Y-26424788D02*
X27568158Y-26443835D01*
X27758634Y-26329550D02*
X27758634Y-26367645D01*
X27834825Y-26329550D02*
X27834825Y-26367645D01*
X28130063Y-26605740D02*
X28120539Y-26596216D01*
X28120539Y-26596216D02*
X28101491Y-26567645D01*
X28101491Y-26567645D02*
X28091967Y-26548597D01*
X28091967Y-26548597D02*
X28082444Y-26520026D01*
X28082444Y-26520026D02*
X28072920Y-26472407D01*
X28072920Y-26472407D02*
X28072920Y-26434312D01*
X28072920Y-26434312D02*
X28082444Y-26386693D01*
X28082444Y-26386693D02*
X28091967Y-26358121D01*
X28091967Y-26358121D02*
X28101491Y-26339074D01*
X28101491Y-26339074D02*
X28120539Y-26310502D01*
X28120539Y-26310502D02*
X28130063Y-26300978D01*
X28301491Y-26329550D02*
X28206253Y-26329550D01*
X28206253Y-26329550D02*
X28196729Y-26424788D01*
X28196729Y-26424788D02*
X28206253Y-26415264D01*
X28206253Y-26415264D02*
X28225301Y-26405740D01*
X28225301Y-26405740D02*
X28272920Y-26405740D01*
X28272920Y-26405740D02*
X28291967Y-26415264D01*
X28291967Y-26415264D02*
X28301491Y-26424788D01*
X28301491Y-26424788D02*
X28311015Y-26443835D01*
X28311015Y-26443835D02*
X28311015Y-26491454D01*
X28311015Y-26491454D02*
X28301491Y-26510502D01*
X28301491Y-26510502D02*
X28291967Y-26520026D01*
X28291967Y-26520026D02*
X28272920Y-26529550D01*
X28272920Y-26529550D02*
X28225301Y-26529550D01*
X28225301Y-26529550D02*
X28206253Y-26520026D01*
X28206253Y-26520026D02*
X28196729Y-26510502D01*
X28549110Y-26529550D02*
X28549110Y-26329550D01*
X28634825Y-26529550D02*
X28634825Y-26424788D01*
X28634825Y-26424788D02*
X28625301Y-26405740D01*
X28625301Y-26405740D02*
X28606253Y-26396216D01*
X28606253Y-26396216D02*
X28577682Y-26396216D01*
X28577682Y-26396216D02*
X28558634Y-26405740D01*
X28558634Y-26405740D02*
X28549110Y-26415264D01*
X28758634Y-26529550D02*
X28739587Y-26520026D01*
X28739587Y-26520026D02*
X28730063Y-26510502D01*
X28730063Y-26510502D02*
X28720539Y-26491454D01*
X28720539Y-26491454D02*
X28720539Y-26434312D01*
X28720539Y-26434312D02*
X28730063Y-26415264D01*
X28730063Y-26415264D02*
X28739587Y-26405740D01*
X28739587Y-26405740D02*
X28758634Y-26396216D01*
X28758634Y-26396216D02*
X28787206Y-26396216D01*
X28787206Y-26396216D02*
X28806253Y-26405740D01*
X28806253Y-26405740D02*
X28815777Y-26415264D01*
X28815777Y-26415264D02*
X28825301Y-26434312D01*
X28825301Y-26434312D02*
X28825301Y-26491454D01*
X28825301Y-26491454D02*
X28815777Y-26510502D01*
X28815777Y-26510502D02*
X28806253Y-26520026D01*
X28806253Y-26520026D02*
X28787206Y-26529550D01*
X28787206Y-26529550D02*
X28758634Y-26529550D01*
X28939587Y-26529550D02*
X28920539Y-26520026D01*
X28920539Y-26520026D02*
X28911015Y-26500978D01*
X28911015Y-26500978D02*
X28911015Y-26329550D01*
X29091968Y-26520026D02*
X29072920Y-26529550D01*
X29072920Y-26529550D02*
X29034825Y-26529550D01*
X29034825Y-26529550D02*
X29015777Y-26520026D01*
X29015777Y-26520026D02*
X29006253Y-26500978D01*
X29006253Y-26500978D02*
X29006253Y-26424788D01*
X29006253Y-26424788D02*
X29015777Y-26405740D01*
X29015777Y-26405740D02*
X29034825Y-26396216D01*
X29034825Y-26396216D02*
X29072920Y-26396216D01*
X29072920Y-26396216D02*
X29091968Y-26405740D01*
X29091968Y-26405740D02*
X29101491Y-26424788D01*
X29101491Y-26424788D02*
X29101491Y-26443835D01*
X29101491Y-26443835D02*
X29006253Y-26462883D01*
X29177682Y-26520026D02*
X29196729Y-26529550D01*
X29196729Y-26529550D02*
X29234825Y-26529550D01*
X29234825Y-26529550D02*
X29253872Y-26520026D01*
X29253872Y-26520026D02*
X29263396Y-26500978D01*
X29263396Y-26500978D02*
X29263396Y-26491454D01*
X29263396Y-26491454D02*
X29253872Y-26472407D01*
X29253872Y-26472407D02*
X29234825Y-26462883D01*
X29234825Y-26462883D02*
X29206253Y-26462883D01*
X29206253Y-26462883D02*
X29187206Y-26453359D01*
X29187206Y-26453359D02*
X29177682Y-26434312D01*
X29177682Y-26434312D02*
X29177682Y-26424788D01*
X29177682Y-26424788D02*
X29187206Y-26405740D01*
X29187206Y-26405740D02*
X29206253Y-26396216D01*
X29206253Y-26396216D02*
X29234825Y-26396216D01*
X29234825Y-26396216D02*
X29253872Y-26405740D01*
X29330063Y-26605740D02*
X29339587Y-26596216D01*
X29339587Y-26596216D02*
X29358634Y-26567645D01*
X29358634Y-26567645D02*
X29368158Y-26548597D01*
X29368158Y-26548597D02*
X29377682Y-26520026D01*
X29377682Y-26520026D02*
X29387206Y-26472407D01*
X29387206Y-26472407D02*
X29387206Y-26434312D01*
X29387206Y-26434312D02*
X29377682Y-26386693D01*
X29377682Y-26386693D02*
X29368158Y-26358121D01*
X29368158Y-26358121D02*
X29358634Y-26339074D01*
X29358634Y-26339074D02*
X29339587Y-26310502D01*
X29339587Y-26310502D02*
X29330063Y-26300978D01*
M02*
