G04 #@! TF.GenerationSoftware,KiCad,Pcbnew,8.0.6*
G04 #@! TF.CreationDate,2024-12-19T22:24:49+08:00*
G04 #@! TF.ProjectId,keyboard,6b657962-6f61-4726-942e-6b696361645f,rev?*
G04 #@! TF.SameCoordinates,Original*
G04 #@! TF.FileFunction,Soldermask,Top*
G04 #@! TF.FilePolarity,Negative*
%FSLAX46Y46*%
G04 Gerber Fmt 4.6, Leading zero omitted, Abs format (unit mm)*
G04 Created by KiCad (PCBNEW 8.0.6) date 2024-12-19 22:24:49*
%MOMM*%
%LPD*%
G01*
G04 APERTURE LIST*
G04 Aperture macros list*
%AMRoundRect*
0 Rectangle with rounded corners*
0 $1 Rounding radius*
0 $2 $3 $4 $5 $6 $7 $8 $9 X,Y pos of 4 corners*
0 Add a 4 corners polygon primitive as box body*
4,1,4,$2,$3,$4,$5,$6,$7,$8,$9,$2,$3,0*
0 Add four circle primitives for the rounded corners*
1,1,$1+$1,$2,$3*
1,1,$1+$1,$4,$5*
1,1,$1+$1,$6,$7*
1,1,$1+$1,$8,$9*
0 Add four rect primitives between the rounded corners*
20,1,$1+$1,$2,$3,$4,$5,0*
20,1,$1+$1,$4,$5,$6,$7,0*
20,1,$1+$1,$6,$7,$8,$9,0*
20,1,$1+$1,$8,$9,$2,$3,0*%
G04 Aperture macros list end*
%ADD10C,1.800000*%
%ADD11RoundRect,0.450000X-0.450000X0.450000X-0.450000X-0.450000X0.450000X-0.450000X0.450000X0.450000X0*%
%ADD12C,1.780000*%
%ADD13C,2.600000*%
%ADD14C,3.500000*%
%ADD15C,1.750000*%
%ADD16C,3.000000*%
%ADD17C,3.987800*%
%ADD18R,1.600000X1.600000*%
%ADD19O,1.600000X1.600000*%
%ADD20C,3.048000*%
G04 APERTURE END LIST*
D10*
X249289500Y-147628000D03*
D11*
X249289500Y-132388000D03*
D10*
X274689500Y-140008000D03*
X274689500Y-137468000D03*
X274689500Y-134928000D03*
X279769500Y-147628000D03*
X277229500Y-147628000D03*
X274689500Y-147628000D03*
X272149500Y-147628000D03*
X269609500Y-147628000D03*
X267069500Y-147628000D03*
X264529500Y-147628000D03*
X261989500Y-147628000D03*
X259449500Y-147628000D03*
X256909500Y-147628000D03*
D11*
X254369500Y-147628000D03*
D12*
X251829500Y-147628000D03*
D10*
X279769500Y-132388000D03*
X277229500Y-132388000D03*
X274689500Y-132388000D03*
X272149500Y-132388000D03*
X269609500Y-132388000D03*
X267069500Y-132388000D03*
X264529500Y-132388000D03*
X261989500Y-132388000D03*
D11*
X259449500Y-132388000D03*
X256909500Y-132388000D03*
D10*
X254369500Y-132388000D03*
X251829500Y-132388000D03*
D13*
X288500000Y-192250000D03*
D14*
X288500000Y-192250000D03*
D13*
X328500000Y-154000000D03*
D14*
X328500000Y-154000000D03*
D13*
X328500000Y-245000000D03*
D14*
X328500000Y-245000000D03*
D13*
X249000000Y-245000000D03*
D14*
X249000000Y-245000000D03*
D13*
X249000000Y-154000000D03*
D14*
X249000000Y-154000000D03*
D15*
X273995000Y-201875000D03*
D16*
X275265000Y-199335000D03*
D17*
X279075000Y-201875000D03*
D16*
X281615000Y-196795000D03*
D15*
X284155000Y-201875000D03*
D18*
X303492000Y-129698000D03*
D19*
X303492000Y-137318000D03*
D18*
X299742000Y-129698000D03*
D19*
X299742000Y-137318000D03*
D20*
X324160000Y-218512000D03*
D17*
X308920000Y-218512000D03*
D15*
X317175000Y-225370000D03*
D16*
X312095000Y-227910000D03*
D17*
X317175000Y-230450000D03*
D16*
X314635000Y-234260000D03*
D15*
X317175000Y-235530000D03*
D20*
X324160000Y-242388000D03*
D17*
X308920000Y-242388000D03*
D18*
X318492000Y-129698000D03*
D19*
X318492000Y-137318000D03*
D18*
X292242000Y-143508000D03*
D19*
X292242000Y-151128000D03*
D18*
X299742000Y-143508000D03*
D19*
X299742000Y-151128000D03*
D18*
X307242000Y-143508000D03*
D19*
X307242000Y-151128000D03*
D15*
X254945000Y-182825000D03*
D16*
X256215000Y-180285000D03*
D17*
X260025000Y-182825000D03*
D16*
X262565000Y-177745000D03*
D15*
X265105000Y-182825000D03*
X254945000Y-201875000D03*
D16*
X256215000Y-199335000D03*
D17*
X260025000Y-201875000D03*
D16*
X262565000Y-196795000D03*
D15*
X265105000Y-201875000D03*
X254945000Y-163775000D03*
D16*
X256215000Y-161235000D03*
D17*
X260025000Y-163775000D03*
D16*
X262565000Y-158695000D03*
D15*
X265105000Y-163775000D03*
X303205000Y-239975000D03*
D16*
X300665000Y-234895000D03*
D17*
X298125000Y-239975000D03*
D16*
X294315000Y-237435000D03*
D15*
X293045000Y-239975000D03*
D18*
X310992000Y-129698000D03*
D19*
X310992000Y-137318000D03*
D18*
X295992000Y-143508000D03*
D19*
X295992000Y-151128000D03*
D15*
X273995000Y-220925000D03*
D16*
X275265000Y-218385000D03*
D17*
X279075000Y-220925000D03*
D16*
X281615000Y-215845000D03*
D15*
X284155000Y-220925000D03*
D18*
X314742000Y-143508000D03*
D19*
X314742000Y-151128000D03*
D18*
X292242000Y-129698000D03*
D19*
X292242000Y-137318000D03*
D17*
X308920000Y-204258000D03*
D20*
X324160000Y-204258000D03*
D15*
X317175000Y-197400000D03*
D16*
X314635000Y-196130000D03*
D17*
X317175000Y-192320000D03*
D16*
X312095000Y-189780000D03*
D15*
X317175000Y-187240000D03*
D17*
X308920000Y-180382000D03*
D20*
X324160000Y-180382000D03*
D15*
X254945000Y-220925000D03*
D16*
X256215000Y-218385000D03*
D17*
X260025000Y-220925000D03*
D16*
X262565000Y-215845000D03*
D15*
X265105000Y-220925000D03*
X293045000Y-220925000D03*
D16*
X294315000Y-218385000D03*
D17*
X298125000Y-220925000D03*
D16*
X300665000Y-215845000D03*
D15*
X303205000Y-220925000D03*
X293045000Y-182825000D03*
D16*
X294315000Y-180285000D03*
D17*
X298125000Y-182825000D03*
D16*
X300665000Y-177745000D03*
D15*
X303205000Y-182825000D03*
D18*
X314742000Y-129698000D03*
D19*
X314742000Y-137318000D03*
D18*
X318492000Y-143568000D03*
D19*
X318492000Y-151188000D03*
D15*
X293045000Y-201875000D03*
D16*
X294315000Y-199335000D03*
D17*
X298125000Y-201875000D03*
D16*
X300665000Y-196795000D03*
D15*
X303205000Y-201875000D03*
X273995000Y-182825000D03*
D16*
X275265000Y-180285000D03*
D17*
X279075000Y-182825000D03*
D16*
X281615000Y-177745000D03*
D15*
X284155000Y-182825000D03*
X312095000Y-163775000D03*
D16*
X313365000Y-161235000D03*
D17*
X317175000Y-163775000D03*
D16*
X319715000Y-158695000D03*
D15*
X322255000Y-163775000D03*
D18*
X310992000Y-143508000D03*
D19*
X310992000Y-151128000D03*
D17*
X257612000Y-231720000D03*
D20*
X257612000Y-246960000D03*
D15*
X264470000Y-239975000D03*
D16*
X265740000Y-237435000D03*
D17*
X269550000Y-239975000D03*
D16*
X272090000Y-234895000D03*
D15*
X274630000Y-239975000D03*
D17*
X281488000Y-231720000D03*
D20*
X281488000Y-246960000D03*
D15*
X293045000Y-163775000D03*
D16*
X294315000Y-161235000D03*
D17*
X298125000Y-163775000D03*
D16*
X300665000Y-158695000D03*
D15*
X303205000Y-163775000D03*
X273995000Y-163775000D03*
D16*
X275265000Y-161235000D03*
D17*
X279075000Y-163775000D03*
D16*
X281615000Y-158695000D03*
D15*
X284155000Y-163775000D03*
D18*
X288742000Y-129698000D03*
D19*
X288742000Y-137318000D03*
D18*
X303492000Y-143508000D03*
D19*
X303492000Y-151128000D03*
D18*
X307242000Y-129698000D03*
D19*
X307242000Y-137318000D03*
D18*
X295992000Y-129698000D03*
D19*
X295992000Y-137318000D03*
M02*
