M48
; DRILL file {KiCad 8.0.6} date 2024-12-20T23:32:23+0800
; FORMAT={-:-/ absolute / metric / decimal}
; #@! TF.CreationDate,2024-12-20T23:32:23+08:00
; #@! TF.GenerationSoftware,Kicad,Pcbnew,8.0.6
; #@! TF.FileFunction,Plated,1,2,PTH
FMAT,2
METRIC
; #@! TA.AperFunction,Plated,PTH,ViaDrill
T1C0.400
; #@! TA.AperFunction,Plated,PTH,ComponentDrill
T2C0.800
; #@! TA.AperFunction,Plated,PTH,ComponentDrill
T3C1.000
; #@! TA.AperFunction,Plated,PTH,ComponentDrill
T4C2.200
%
G90
G05
T1
X271.992Y-153.508
X290.742Y-153.508
X309.992Y-153.758
X312.992Y-145.008
X316.492Y-146.833
X318.492Y-145.008
T2
X288.742Y-129.698
X288.742Y-137.318
X292.242Y-129.698
X292.242Y-137.318
X292.242Y-143.508
X292.242Y-151.128
X295.992Y-129.698
X295.992Y-137.318
X295.992Y-143.508
X295.992Y-151.128
X299.742Y-129.698
X299.742Y-137.318
X299.742Y-143.508
X299.742Y-151.128
X303.492Y-129.698
X303.492Y-137.318
X303.492Y-143.508
X303.492Y-151.128
X307.242Y-129.698
X307.242Y-137.318
X307.242Y-143.508
X307.242Y-151.128
X310.992Y-129.698
X310.992Y-137.318
X310.992Y-143.508
X310.992Y-151.128
X314.742Y-129.698
X314.742Y-137.318
X314.742Y-143.508
X314.742Y-151.128
X318.492Y-129.698
X318.492Y-137.318
X318.492Y-143.568
X318.492Y-151.188
T3
X249.289Y-132.388
X249.289Y-147.628
X251.829Y-132.388
X251.829Y-147.628
X254.369Y-132.388
X254.369Y-147.628
X256.909Y-132.388
X256.909Y-147.628
X259.45Y-132.388
X259.45Y-147.628
X261.989Y-132.388
X261.989Y-147.628
X264.529Y-132.388
X264.529Y-147.628
X267.07Y-132.388
X267.07Y-147.628
X269.609Y-132.388
X269.609Y-147.628
X272.149Y-132.388
X272.149Y-147.628
X274.69Y-132.388
X274.69Y-134.928
X274.69Y-137.468
X274.69Y-140.008
X274.69Y-147.628
X277.229Y-132.388
X277.229Y-147.628
X279.769Y-132.388
X279.769Y-147.628
T4
X248.75Y-154.0
X248.75Y-245.0
X288.625Y-192.25
X328.5Y-154.0
X328.5Y-245.0
M30
